<?xml version="1.0" encoding="utf-8"?>
<!-- Generator: Adobe Illustrator 27.4.0, SVG Export Plug-In . SVG Version: 6.00 Build 0)  -->
<svg version="1.1" id="Layer_1" xmlns="http://www.w3.org/2000/svg" xmlns:xlink="http://www.w3.org/1999/xlink" x="0px" y="0px"
	 viewBox="0 0 606.4 148" style="enable-background:new 0 0 606.4 148;" xml:space="preserve">
<style type="text/css">
	.st0{fill:#FFCC00;}
	.st1{fill-rule:evenodd;clip-rule:evenodd;}
</style>
<g>
	<g>
		<path d="M216.9,105.8c-5.3,0-9.8-0.8-13.5-2.6c-3.6-1.7-6.4-4-8.3-7c-1.9-3-2.9-6.4-2.9-10.2h11.5c0,1.6,0.4,3.2,1.3,4.7
			c0.9,1.5,2.3,2.7,4.2,3.6c2,0.9,4.6,1.4,7.8,1.4c2.9,0,5.2-0.4,7.2-1.2c1.9-0.8,3.4-1.9,4.3-3.2c0.9-1.4,1.4-2.9,1.4-4.6
			c0-2.1-0.9-3.8-2.7-5.1c-1.8-1.3-4.6-2.1-8.4-2.5l-5.3-0.4c-5.8-0.5-10.4-2.3-13.9-5.4c-3.4-3.1-5.1-7.3-5.1-12.4
			c0-3.8,0.9-7.2,2.7-9.9c1.8-2.8,4.3-5,7.6-6.4c3.3-1.5,7.1-2.3,11.6-2.3s8.5,0.8,11.8,2.4c3.3,1.6,5.9,3.8,7.7,6.8
			c1.8,2.9,2.7,6.2,2.7,10.1h-11.5c0-1.7-0.4-3.2-1.2-4.5c-0.8-1.4-1.9-2.6-3.6-3.4c-1.5-0.9-3.5-1.3-5.9-1.3s-4.2,0.4-5.8,1.2
			c-1.5,0.8-2.7,1.8-3.5,3.1s-1.2,2.8-1.2,4.3c0,1.9,0.7,3.5,2.1,5c1.4,1.4,3.6,2.2,6.5,2.4l5.3,0.5c4.3,0.3,8.1,1.2,11.3,2.7
			c3.2,1.5,5.7,3.5,7.5,6c1.8,2.5,2.7,5.6,2.7,9.2c0,3.8-1,7.2-3,10.1c-2,2.9-4.8,5.1-8.5,6.7C226.1,105,221.8,105.8,216.9,105.8
			L216.9,105.8z"/>
		<path d="M269.4,105.8c-3.9,0-7.2-0.7-10.1-2c-2.9-1.3-5.2-3.1-7.2-5.3c-1.9-2.2-3.3-4.8-4.3-7.5c-0.9-2.8-1.4-5.5-1.4-8.4v-1.6
			c0-3,0.5-5.8,1.4-8.6c1-2.8,2.4-5.3,4.3-7.4c1.9-2.2,4.3-3.9,7.1-5.2c2.8-1.3,6-2,9.7-2c4.8,0,8.9,1.1,12.1,3.2
			c3.3,2.1,5.8,4.9,7.4,8.3c1.6,3.4,2.5,7.1,2.5,11v4.1h-39.7v-7h32.5l-3.5,3.5c0-2.9-0.4-5.3-1.2-7.3c-0.8-2-2.1-3.6-3.8-4.7
			c-1.6-1.1-3.7-1.7-6.3-1.7s-4.7,0.6-6.4,1.7c-1.8,1.2-3.1,2.8-4,5c-0.9,2.1-1.3,4.7-1.3,7.8c0,2.8,0.4,5.3,1.3,7.5
			c0.9,2.1,2.2,3.8,4,5.1c1.8,1.2,4.1,1.8,6.9,1.8s5.1-0.5,6.8-1.7c1.8-1.2,2.9-2.6,3.4-4.2h10.6c-0.7,3.1-1.9,5.8-3.8,8.1
			s-4.3,4.1-7.2,5.4C276.3,105.2,273,105.8,269.4,105.8L269.4,105.8z"/>
		<path d="M297.1,104.6V59.8h9.1v19h-0.2c0-6.4,1.4-11.3,4.1-14.6c2.7-3.3,6.8-5,12.1-5h1.6v10h-3.1c-3.9,0-6.9,1-9,3.1
			c-2.1,2-3.1,5-3.1,8.9v23.3L297.1,104.6L297.1,104.6z"/>
		<path d="M344.1,104.6l-14-44.8h11.8l13.4,44.8H344.1L344.1,104.6z M347.5,104.6v-9.4h12.1v9.4H347.5z M352,104.6l11.5-44.8h11
			l-12.1,44.8H352L352,104.6z"/>
		<path d="M380.8,104.6V59.8h11.5v44.8H380.8z"/>
		<path d="M421.3,105.8c-3.9,0-7.3-0.7-10.1-2c-2.8-1.3-5.2-3.1-7.1-5.3c-1.9-2.2-3.3-4.7-4.2-7.4c-0.9-2.8-1.4-5.5-1.4-8.4v-1.6
			c0-3,0.5-5.9,1.4-8.7c1-2.8,2.5-5.3,4.4-7.4c1.9-2.2,4.3-3.9,7.1-5.2c2.9-1.3,6.2-2,9.9-2s7.4,0.8,10.5,2.3
			c3.1,1.5,5.5,3.6,7.3,6.3c1.9,2.7,2.9,5.8,3.1,9.4H431c-0.3-2.3-1.3-4.2-3-5.8c-1.6-1.5-3.9-2.3-6.8-2.3c-2.5,0-4.6,0.6-6.4,1.8
			c-1.6,1.2-2.9,2.9-3.7,5c-0.8,2.1-1.2,4.5-1.2,7.3s0.4,5,1.1,7.2c0.8,2.1,2.1,3.8,3.7,5c1.7,1.2,3.9,1.8,6.5,1.8
			c2,0,3.7-0.4,5.1-1.1s2.6-1.7,3.4-3c0.9-1.3,1.4-2.7,1.6-4.3h11.1c-0.2,3.6-1.3,6.8-3.2,9.6c-1.9,2.7-4.4,4.8-7.5,6.3
			C428.8,105.1,425.2,105.8,421.3,105.8L421.3,105.8z"/>
		<path d="M471.8,105.8c-3.9,0-7.2-0.7-10.1-2c-2.9-1.3-5.2-3.1-7.2-5.3c-1.9-2.2-3.3-4.8-4.3-7.5c-0.9-2.8-1.4-5.5-1.4-8.4v-1.6
			c0-3,0.5-5.8,1.4-8.6c1-2.8,2.4-5.3,4.3-7.4c1.9-2.2,4.3-3.9,7.1-5.2c2.8-1.3,6-2,9.7-2c4.8,0,8.9,1.1,12.1,3.2
			c3.3,2.1,5.8,4.9,7.4,8.3c1.6,3.4,2.5,7.1,2.5,11v4.1h-39.7v-7h32.5l-3.5,3.5c0-2.9-0.4-5.3-1.2-7.3c-0.8-2-2.1-3.6-3.8-4.7
			c-1.6-1.1-3.7-1.7-6.3-1.7s-4.7,0.6-6.4,1.7c-1.8,1.2-3.1,2.8-4,5c-0.9,2.1-1.3,4.7-1.3,7.8c0,2.8,0.4,5.3,1.3,7.5
			c0.9,2.1,2.2,3.8,4,5.1c1.8,1.2,4.1,1.8,6.9,1.8s5.1-0.5,6.8-1.7c1.8-1.2,2.9-2.6,3.4-4.2h10.6c-0.7,3.1-1.9,5.8-3.8,8.1
			s-4.3,4.1-7.2,5.4C478.8,105.2,475.5,105.8,471.8,105.8L471.8,105.8z"/>
		<path d="M558.8,121.1V59.8h9.1v19.3l-1.4-0.1c0.2-4.6,1.2-8.4,2.8-11.5c1.7-3.1,4-5.4,6.8-6.8c2.8-1.5,5.9-2.3,9.4-2.3
			c3.2,0,6,0.6,8.6,1.7c2.6,1.2,4.8,2.8,6.6,4.9c1.9,2.1,3.3,4.5,4.3,7.3c1,2.8,1.5,5.7,1.5,8.9V83c0,3.2-0.5,6.3-1.5,9.1
			c-0.9,2.8-2.3,5.2-4.2,7.3c-1.8,2.1-4,3.7-6.6,5c-2.6,1.2-5.5,1.7-8.7,1.7c-3.3,0-6.4-0.7-9.2-2.1c-2.8-1.4-5-3.6-6.7-6.5
			c-1.7-3-2.7-6.8-2.9-11.5l3.6,5.5v29.5L558.8,121.1L558.8,121.1z M582.6,96.4c2.5,0,4.6-0.6,6.4-1.8c1.9-1.2,3.3-2.9,4.4-5
			c1-2.2,1.6-4.7,1.6-7.4s-0.5-5.3-1.6-7.4c-1-2.1-2.5-3.7-4.4-4.9c-1.8-1.2-4-1.8-6.4-1.8c-2.2,0-4.3,0.5-6.3,1.5
			c-1.9,1-3.4,2.5-4.6,4.4c-1.2,1.9-1.7,4.2-1.7,6.9v3.3c0,2.6,0.6,4.8,1.8,6.6s2.8,3.2,4.7,4.2C578.4,96,580.4,96.5,582.6,96.4
			L582.6,96.4z"/>
		<circle cx="386.5" cy="49" r="6.7"/>
		<path d="M526.2,105.8c-5.6,0-10.3-1.1-14.2-3.2c-3.9-2.1-6.8-5.1-8.8-9c-2-3.9-3-8.5-3-13.7V43.4h11.7v37.2c0,2.9,0.5,5.4,1.7,7.6
			c1.1,2.1,2.7,3.8,4.8,5c2.1,1.2,4.8,1.7,7.8,1.7s5.6-0.6,7.7-1.7c2.1-1.2,3.7-2.9,4.8-5c1.1-2.1,1.7-4.7,1.7-7.6V43.4H552v36.6
			c0,5.2-1,9.8-3,13.7c-1.9,3.8-4.8,6.8-8.7,9C536.5,104.8,531.8,105.8,526.2,105.8L526.2,105.8z"/>
	</g>
	<g>
		<path class="st0" d="M0.1,75.9C0,75,0,74.2,0,73.4c0,0,0,0,0-0.1s0,0,0-0.1c0-1.2,0-2.4,0.1-3.6c0,0,0-0.1,0-0.2
			C1.9,34.8,27.5,6.2,60.9,0c0.1,0,0.2,0,0.2,0c0.2,0,0.4,0.2,0.4,0.4v8.2c0,0.2-0.1,0.4-0.3,0.4c-4,0.9-8,2.2-11.9,3.8
			c-7.8,3.4-14.8,8.2-20.9,14.3c-6.1,6.1-10.9,13.1-14.2,20.9c-3,7-4.8,14.4-5.1,21.9c0,0,0,0.1,0,0.1C9,71.2,9,72.3,9,73.3
			C9,74,9,74.8,9,75.5c0.3,7.9,2,15.7,5.2,23.1c3.4,7.8,8.2,14.8,14.3,20.9s13.1,10.9,21,14.3c7.1,3,14.4,4.8,22,5.2
			c0.3,0,0.7,0,1.1,0c0.7,0,1.4,0.1,2.2,0.1s1.4,0,2.2-0.1c0.3,0,0.7,0,1.1,0c7.5-0.4,14.9-2.1,22-5.2c7.8-3.4,14.8-8.2,20.9-14.3
			c6.1-6.1,10.9-13.1,14.3-20.9c3.2-7.4,4.9-15.2,5.2-23.1c0-0.7,0.1-1.4,0.1-2.2c0-1.1,0-2.1-0.1-3.2c0,0,0-0.1,0-0.1
			c-0.4-7.5-2.1-14.9-5.1-21.9c-3.4-7.8-8.2-14.8-14.2-20.9c-6.1-6.1-13.1-10.9-20.9-14.3C96,11.3,92.1,10,88,9.1
			c-0.2,0-0.3-0.2-0.3-0.4V0.5c0-0.2,0.2-0.4,0.4-0.4c0.1,0,0.1,0,0.2,0c33.4,6.2,59.1,34.8,60.8,69.5c0,0,0,0.1,0,0.2
			c0.1,1.2,0.1,2.4,0.1,3.6c0,0,0,0,0,0.1s0,0,0,0.1c0,0.8,0,1.7-0.1,2.5c-1.3,38.8-32.2,70.1-70.9,72c-0.5,0-1,0-1.4,0
			c-0.7,0-1.5,0.1-2.2,0.1h0h0h0h0c-0.7,0-1.5,0-2.2-0.1c-0.5,0-1,0-1.4,0C32.3,146,1.4,114.6,0.1,75.9z"/>
		<path class="st1" d="M120,60.6c0-0.1,0-0.2,0-0.3c0-0.1,0-0.3,0-0.4c0-0.1,0-0.1,0-0.2c0-0.3-0.1-0.6-0.2-0.9c0-0.1,0-0.2-0.1-0.2
			c0,0,0,0,0-0.1c-0.1-0.3-0.2-0.5-0.5-0.8c-0.7-0.8-1.8-1.2-2.8-1.2h-9.8l-3.2-10.1c-0.5-1.5-2.4-2.9-4.2-2.9H50.1
			c-1.9,0-3.8,1.5-4.2,2.9l-3.2,10.1h-9.8c-1,0-2.2,0.5-2.9,1.2c-0.2,0.2-0.4,0.5-0.5,0.8c0,0,0,0,0,0.1c0,0.1,0,0.1,0,0.2
			c-0.1,0.3-0.1,0.6-0.2,1c0,0.1,0,0.1,0,0.2c0,0.1,0,0.3,0,0.4c0,0.1,0,0.2,0,0.3c0,0.1,0,0.2,0,0.3c0,0,0,0.1,0,0.1
			c0.2,0.7,0.7,1.4,1.6,1.7l5.6,1.9l1.2,0.4l-3.6,2.8c-3.5,2.8-4.1,4.4-4.1,7.7V102c0,1.5,1.2,2.7,2.7,2.7h9.5
			c1.5,0,2.7-1.2,2.7-2.7v-7.8h59.3v7.8c0,1.5,1.2,2.7,2.7,2.7h9.4c1.5,0,2.7-1.2,2.7-2.7V75.5c0-3.2-0.7-4.8-4.2-7.7l-3.6-2.8
			l1.2-0.4l5.6-1.9c0.9-0.3,1.4-1,1.6-1.7c0,0,0-0.1,0.1-0.1C119.9,60.8,119.9,60.7,120,60.6L120,60.6z M55,76.7
			c0.3-0.1,0.6-0.2,0.9-0.2c0.4,0,0.8,0.1,1.1,0.2c5.7,2.3,11.5,3.5,17.6,3.4c6.1,0.1,11.9-1,17.6-3.4c0.3-0.2,0.7-0.2,1.1-0.2
			c0.3,0,0.6,0.1,0.9,0.2c0.1,0,0.1,0,0.2,0.1c0.6,0.3,0.9,0.8,0.9,1.3V81c0,0.9-1.1,1.3-2.5,1.7c-0.3,0.1-0.6,0.2-0.9,0.2
			c-5.8,1.5-11.6,2.2-17.4,2.2c-5.7,0-11.5-0.8-17.4-2.2c-0.3-0.1-0.6-0.1-0.9-0.2c-1.5-0.4-2.5-0.8-2.5-1.7v-2.9
			c0-0.5,0.4-1,0.9-1.3C54.9,76.8,54.9,76.8,55,76.7z M46.6,62.7l2.5-10.5c0.6-2.3,2-4.2,4.5-4.2h42c2.4,0,3.9,2,4.5,4.2l2.6,10.5
			H46.6L46.6,62.7z"/>
	</g>
</g>
</svg>
