<?xml version="1.0" standalone="no"?>
<!DOCTYPE svg PUBLIC "-//W3C//DTD SVG 1.1//EN" "http://www.w3.org/Graphics/SVG/1.1/DTD/svg11.dtd" >
<svg xmlns="http://www.w3.org/2000/svg" xmlns:xlink="http://www.w3.org/1999/xlink" version="1.1">
<metadata>
Created by FontForge 20190801 at Mon Sep 24 05:54:21 2012
 By www-data
Copyright (c) 2012, Eduardo Tunni (http://www.tipo.net.ar), with Reserved Font Name 'Combo'
</metadata>
<defs>
<font id="ComboRegular" horiz-adv-x="520" >
  <font-face 
    font-family="ComboRegular"
    font-weight="400"
    font-stretch="normal"
    units-per-em="1000"
    panose-1="2 0 0 0 0 0 0 0 0 0"
    ascent="800"
    descent="-200"
    x-height="516"
    cap-height="670"
    bbox="-68 -269 1072 907"
    underline-thickness="50"
    underline-position="-100"
    unicode-range="U+000D-FB02"
  />
<missing-glyph horiz-adv-x="300" 
 />
    <glyph glyph-name=".notdef" horiz-adv-x="300" 
 />
    <glyph glyph-name=".null" horiz-adv-x="0" 
 />
    <glyph glyph-name="nonmarkingreturn" unicode="&#xd;" horiz-adv-x="300" 
 />
    <glyph glyph-name="NULL" horiz-adv-x="0" 
 />
    <glyph glyph-name="NULL" horiz-adv-x="0" 
 />
    <glyph glyph-name="space" unicode=" " horiz-adv-x="300" 
 />
    <glyph glyph-name="exclam" unicode="!" horiz-adv-x="265" 
d="M132 186q-7 0 -13 23.5t-11 61.5t-9.5 85t-7.5 93t-4.5 87t-1.5 67q0 29 2.5 46t8 26t14.5 12t22 3t22.5 -3t14.5 -12t7.5 -26t2.5 -46q0 -26 -1.5 -67t-4.5 -87t-7.5 -93t-9.5 -85t-11 -61.5t-13 -23.5zM132 120q11 0 20 -8.5t16 -22t10.5 -30.5t3.5 -35
q0 -26 -14.5 -32.5t-35.5 -6.5t-35 6.5t-14 32.5q0 18 3.5 35t10.5 30.5t15.5 22t19.5 8.5z" />
    <glyph glyph-name="quotedbl" unicode="&#x22;" horiz-adv-x="351" 
d="M96 497q-10 0 -18.5 23t-14.5 54.5t-9.5 63.5t-3.5 50q0 26 13.5 33t32.5 7t32 -7t13 -33q0 -18 -3.5 -50t-9.5 -63.5t-14 -54.5t-18 -23zM256 497q-10 0 -18.5 23t-14.5 54.5t-9.5 63.5t-3.5 50q0 26 13.5 33t32.5 7t32 -7t13 -33q0 -18 -3.5 -50t-9.5 -63.5t-14 -54.5
t-18 -23z" />
    <glyph glyph-name="numbersign" unicode="#" horiz-adv-x="654" 
d="M381 191h-180l-71 -238l-46 13l67 225h-101l15 48h100l46 152h-101l14 48h101l71 238l46 -13l-67 -225h180l71 238l46 -13l-67 -225h99l-13 -48h-101l-45 -152h100l-14 -48h-100l-71 -238l-46 13zM215 239h180l46 152h-181z" />
    <glyph glyph-name="dollar" unicode="$" 
d="M237 -14q-33 3 -61.5 15t-50 34t-35 55.5t-15.5 80.5l81 19q1 -44 7.5 -73.5t17.5 -48t25 -28.5t31 -13v269q-27 17 -54 35t-48 39.5t-34 49.5t-13 64q0 77 40 116t109 44v100h43v-100q31 -3 59 -13.5t49.5 -32.5t36 -56.5t17.5 -84.5l-75 -17q-1 43 -8.5 73t-19.5 48.5
t-27.5 28.5t-31.5 13v-245q29 -17 58.5 -36t53.5 -43t39 -55t15 -72q0 -157 -166 -166v-86h-43v86zM363 146q0 41 -24.5 70t-58.5 53v-243q42 7 62.5 40t20.5 80zM167 494q0 -35 20 -60.5t50 -47.5v217q-40 -8 -55 -39t-15 -70z" />
    <glyph glyph-name="percent" unicode="%" horiz-adv-x="842" 
d="M70 0zM504 677l46 -13l-212 -711l-46 13zM191 610q-14 0 -25.5 -20.5t-20 -53.5t-13.5 -75t-5 -85q0 -30 5 -48t14 -27.5t20.5 -12.5t24.5 -3t24.5 3t20.5 12.5t14 27.5t5 48q0 43 -5 85t-13.5 75t-20.5 53.5t-25 20.5zM191 645q26 0 48 -23.5t38.5 -61.5t25.5 -86.5
t9 -97.5q0 -42 -9.5 -68t-26 -40t-38.5 -18.5t-47 -4.5t-47 4.5t-38.5 18.5t-26 40t-9.5 68q0 49 9 97.5t25.5 86.5t38.5 61.5t48 23.5zM651 350q-14 0 -25.5 -20.5t-20 -53.5t-13.5 -75t-5 -85q0 -30 5 -48t14 -27.5t20.5 -12.5t24.5 -3t24.5 3t20.5 12.5t14 27.5t5 48
q0 43 -5 85t-13.5 75t-20.5 53.5t-25 20.5zM651 385q26 0 48 -23.5t38.5 -61.5t25.5 -86.5t9 -97.5q0 -42 -9.5 -68t-26 -40t-38.5 -18.5t-47 -4.5t-47 4.5t-38.5 18.5t-26 40t-9.5 68q0 49 9 97.5t25.5 86.5t38.5 61.5t48 23.5z" />
    <glyph glyph-name="ampersand" unicode="&#x26;" horiz-adv-x="529" 
d="M366 -148l9 269h-7q-9 -27 -19.5 -52t-24 -43.5t-29 -29.5t-33.5 -11q-42 0 -79 41t-64 108t-43 152.5t-16 175.5q0 73 16 117t43.5 67.5t64.5 31t78 7.5q39 0 73.5 -6.5t61.5 -26t44 -55.5t22 -96l-86 -24q-1 55 -10.5 88.5t-25 51t-36 23t-43.5 5.5t-44 -6t-36.5 -25
t-24.5 -55t-9 -97q0 -31 1 -61t3 -59h377v-61l-99 3l14 -432h-78zM262 25q16 0 33 22t32.5 58t28.5 83t21 98l-220 7q7 -57 17.5 -106t24 -85t29.5 -56.5t34 -20.5z" />
    <glyph glyph-name="quotesingle" unicode="'" horiz-adv-x="191" 
d="M96 497q-10 0 -18.5 23t-14.5 54.5t-9.5 63.5t-3.5 50q0 26 13.5 33t32.5 7t32 -7t13 -33q0 -18 -3.5 -50t-9.5 -63.5t-14 -54.5t-18 -23z" />
    <glyph glyph-name="parenleft" unicode="(" horiz-adv-x="250" 
d="M93 322q0 -90 4.5 -153.5t12.5 -106t19.5 -66.5t25.5 -36.5t30.5 -16t34.5 -3.5v-40q-26 0 -49 5t-43 20t-35.5 43.5t-26.5 75.5t-17 115t-6 163q0 142 13 226t36.5 127.5t56 56t71.5 12.5v-40q-18 0 -34.5 -3.5t-30.5 -16t-25.5 -36.5t-19.5 -66.5t-12.5 -106
t-4.5 -153.5z" />
    <glyph glyph-name="parenright" unicode=")" horiz-adv-x="250" 
d="M157 322q0 90 -4.5 153.5t-12.5 106t-19.5 66.5t-25.5 36.5t-30.5 16t-34.5 3.5v40q39 0 71.5 -12.5t56 -56t36.5 -127.5t13 -226q0 -95 -6 -163t-17 -115t-26.5 -75.5t-35.5 -43.5t-43 -20t-49 -5v40q18 0 34.5 3.5t30.5 16t25.5 36.5t19.5 66.5t12.5 106t4.5 153.5z
" />
    <glyph glyph-name="asterisk" unicode="*" horiz-adv-x="536" 
d="M268 555q-8 0 -15.5 19.5t-12.5 46t-8 53.5t-3 42q0 23 11.5 28.5t27.5 5.5t27 -5.5t11 -28.5q0 -15 -3 -42t-8 -53.5t-12 -46t-15 -19.5zM302 530q-3 0 -8 1.5t-5 6.5q0 8 14.5 23.5t34.5 32t40.5 31.5t32.5 22q10 6 19 6q14 0 25 -16t11 -30t-18 -24q-10 -6 -30 -15
t-42 -17.5t-42.5 -14.5t-31.5 -6zM234 530q-11 0 -31.5 6t-42.5 14.5t-42 17.5t-30 15q-18 10 -18 24t11 30t25 16q9 0 19 -6q12 -7 32.5 -22t40.5 -31.5t34.5 -32t14.5 -23.5q0 -5 -5 -6.5t-8 -1.5zM268 489q8 0 15 -19.5t12 -46t8 -53.5t3 -42q0 -23 -11 -28.5t-27 -5.5
t-27.5 5.5t-11.5 28.5q0 15 3 42t8 53.5t12.5 46t15.5 19.5zM302 514q11 0 31.5 -6t42.5 -14.5t42 -17.5t30 -15q18 -10 18 -24t-11 -30t-25 -16q-9 0 -19 6q-12 7 -32.5 22t-40.5 31.5t-34.5 32t-14.5 23.5q0 5 5 6.5t8 1.5zM234 514q3 0 8 -1.5t5 -6.5q0 -8 -14.5 -23.5
t-34.5 -32t-40.5 -31.5t-32.5 -22q-10 -6 -19 -6q-14 0 -25 16t-11 30t18 24q10 6 30 15t42 17.5t42.5 14.5t31.5 6z" />
    <glyph glyph-name="plus" unicode="+" 
d="M285 347h165v-50h-165v-165h-50v165h-165v50h165v165h50v-165z" />
    <glyph glyph-name="comma" unicode="," horiz-adv-x="205" 
d="M32 -89q20 17 35 43t15 52q-14 10 -23 30.5t-9 49.5q0 28 15.5 35t37.5 7t37 -7t15 -35q0 -41 -10 -74t-25 -58t-32.5 -42.5t-32.5 -27.5l-23 27v0z" />
    <glyph glyph-name="hyphen" unicode="-" horiz-adv-x="389" 
d="M339 340v-67l-289 14v53h289z" />
    <glyph glyph-name="period" unicode="." horiz-adv-x="205" 
d="M103 -15q-11 0 -21 8.5t-17 23t-11 32.5t-4 37q0 28 15.5 35t37.5 7t37 -7t15 -35q0 -19 -4 -37t-11 -32.5t-16.5 -23t-20.5 -8.5z" />
    <glyph glyph-name="slash" unicode="/" horiz-adv-x="240" 
d="M242 743l47 -17l-291 -799l-47 17z" />
    <glyph glyph-name="zero" unicode="0" 
d="M260 601q-25 0 -46 -35t-36.5 -92t-24.5 -129.5t-9 -146.5q0 -53 9 -85t25 -49.5t37 -23t45 -5.5t45 5.5t37 23t25 49.5t9 85q0 74 -9 146.5t-24.5 129.5t-36.5 92t-46 35zM260 645q42 0 78 -39t62.5 -102t41.5 -143t15 -163q0 -69 -15.5 -111t-42.5 -64.5t-63 -30
t-76 -7.5t-76 7.5t-63 30t-42.5 64.5t-15.5 111q0 83 15 163t41.5 143t62.5 102t78 39z" />
    <glyph glyph-name="one" unicode="1" 
d="M254 635h56v-579l133 5v-61h-353v48l134 5l27 525l-172 -97l-27 55z" />
    <glyph glyph-name="two" unicode="2" 
d="M443 489q0 -49 -20.5 -105t-59 -113t-93 -111.5t-121.5 -101.5l284 -8v-50h-373v49q60 38 115 91t96.5 112.5t66 121t24.5 115.5q0 24 -5 44.5t-17 35.5t-31.5 23.5t-47.5 8.5q-42 0 -71.5 -17.5t-29.5 -64.5q0 -25 5 -53l-75 -10q-11 33 -11 63q0 36 14.5 60t39.5 39
t58 21t70 6q90 0 136 -42t46 -114z" />
    <glyph glyph-name="three" unicode="3" 
d="M452 519q0 -42 -18 -84t-55 -75t-92 -53.5t-130 -20.5v40q51 0 87 10t60 26t37.5 37t20 42t8 41.5t1.5 36.5q0 47 -29.5 64.5t-71.5 17.5t-71.5 -17.5t-29.5 -64.5q0 -25 5 -53l-75 -10q-11 33 -11 63q0 36 14.5 60t39.5 39t58 21t70 6t70 -6t58 -21t39.5 -39t14.5 -60z
M293 329q45 -11 76 -32t50.5 -46.5t28.5 -51.5t9 -47q0 -49 -15.5 -81t-42.5 -51t-63 -27t-76 -8t-76 7.5t-63 23.5t-42.5 42t-15.5 64q0 30 9 57l76 -11q-4 -20 -4 -46q0 -25 9 -42t25 -27t37 -14t45 -4t45 4.5t37 17.5t25 36t9 59q0 18 -5.5 39.5t-19.5 42.5t-37.5 39
t-58.5 29z" />
    <glyph glyph-name="four" unicode="4" 
d="M330 125h-57q-38 0 -76 6t-68.5 23.5t-49.5 50t-19 86.5q0 47 13.5 92t36 87.5t52 82.5t60.5 77h39q-24 -38 -44.5 -78t-36.5 -79.5t-25 -77.5t-9 -72q0 -80 28 -119t99 -39h59l22 351h56v-351h68v-40h-68v-125h-88z" />
    <glyph glyph-name="five" unicode="5" 
d="M403 574l-214 9l-36 -220q85 0 143.5 -22t94 -54t51 -68.5t15.5 -66.5q0 -49 -15.5 -81t-42.5 -51t-63 -27t-76 -8t-76 7.5t-63 23.5t-42.5 42t-15.5 64q0 30 9 57l76 -11q-4 -20 -4 -46q0 -25 9 -42t25 -27t37 -14t45 -4t45 4.5t37 17.5t25 36t9 59q0 24 -8 53t-33 55
t-71.5 43.5t-123.5 17.5h-50l20 314h293v-61z" />
    <glyph glyph-name="six" unicode="6" 
d="M64 149q0 73 24 142t64 131.5t92.5 118.5t109.5 104l34 -33q-72 -66 -120 -128.5t-77 -125.5q72 -5 122.5 -27t82 -54t46 -70.5t14.5 -76.5q0 -40 -16 -67.5t-43.5 -45t-64 -25t-77.5 -7.5q-39 0 -73.5 7.5t-61 26t-41.5 50.5t-15 80zM375 138q0 31 -7.5 62.5t-29 57
t-61 42.5t-102.5 20q-16 -42 -23 -84t-7 -85q0 -37 9 -59.5t24 -35t35.5 -17t43.5 -4.5q55 0 86.5 21.5t31.5 81.5z" />
    <glyph glyph-name="seven" unicode="7" 
d="M330 263q-51 -94 -111 -166t-109 -112l-34 33q56 54 102 121t81 141l-104 26l11 44l112 -28q26 64 43.5 127.5t25.5 122.5l-269 8v50h363q-3 -86 -27 -168.5t-62 -157.5l62 -15l-11 -44z" />
    <glyph glyph-name="eight" unicode="8" 
d="M63 122q0 32 11 63t29.5 57.5t42.5 48t50 33.5q-24 13 -45 34.5t-37.5 47t-26 54.5t-9.5 59q0 36 14.5 60t39.5 39t58 21t70 6t70 -6t58 -21t39.5 -39t14.5 -60q0 -30 -9.5 -59t-26 -54.5t-38 -47t-45.5 -34.5q27 -12 51 -33.5t42.5 -48t29.5 -57.5t11 -63
q0 -38 -15.5 -64t-42.5 -42t-63 -23.5t-76 -7.5t-76 7.5t-63 23.5t-42.5 42t-15.5 64zM260 301q-25 0 -46 -15t-36.5 -39.5t-24.5 -57t-9 -67.5q0 -25 9 -42t25 -27t37 -14t45 -4t45 4t37 14t25 27t9 42q0 35 -9 67.5t-24.5 57t-36.5 39.5t-46 15zM260 345q21 0 39.5 15
t32 39t21.5 55.5t8 64.5q0 47 -29.5 64.5t-71.5 17.5t-71.5 -17.5t-29.5 -64.5q0 -33 8 -64.5t21.5 -55.5t32 -39t39.5 -15z" />
    <glyph glyph-name="nine" unicode="9" 
d="M457 468q0 -73 -25.5 -143.5t-65.5 -133.5t-88.5 -115.5t-94.5 -90.5l-34 33q69 66 115 128.5t72 124.5q-74 6 -126 29t-84.5 56t-47.5 73t-15 79q0 37 15.5 63.5t42.5 42.5t63 23.5t76 7.5t76 -8t63 -28t42.5 -54.5t15.5 -86.5zM144 508q0 -33 7 -67t29 -61.5
t62.5 -46.5t107.5 -23q14 39 20 78t6 80q0 40 -9 65t-25 38.5t-37 18.5t-45 5t-45 -4t-37 -14t-25 -27t-9 -42z" />
    <glyph glyph-name="colon" unicode=":" horiz-adv-x="205" 
d="M50 0zM103 -15q-11 0 -21 8.5t-17 23t-11 32.5t-4 37q0 28 15.5 35t37.5 7t37 -7t15 -35q0 -19 -4 -37t-11 -32.5t-16.5 -23t-20.5 -8.5zM103 335q-11 0 -21 8.5t-17 23t-11 32.5t-4 37q0 28 15.5 35t37.5 7t37 -7t15 -35q0 -19 -4 -37t-11 -32.5t-16.5 -23t-20.5 -8.5z
" />
    <glyph glyph-name="semicolon" unicode=";" horiz-adv-x="205" 
d="M32 0zM32 -89q20 17 35 43t15 52q-14 10 -23 30.5t-9 49.5q0 28 15.5 35t37.5 7t37 -7t15 -35q0 -41 -10 -74t-25 -58t-32.5 -42.5t-32.5 -27.5l-23 27v0zM103 335q-11 0 -21 8.5t-17 23t-11 32.5t-4 37q0 28 15.5 35t37.5 7t37 -7t15 -35q0 -19 -4 -37t-11 -32.5
t-16.5 -23t-20.5 -8.5z" />
    <glyph glyph-name="less" unicode="&#x3c;" 
d="M70 297v50l380 150v-50l-322 -125l322 -125v-50z" />
    <glyph glyph-name="equal" unicode="=" 
d="M70 387v50h380v-50h-380zM70 207v50h380v-50h-380z" />
    <glyph glyph-name="greater" unicode="&#x3e;" 
d="M70 147v50l322 125l-322 125v50l380 -150v-50z" />
    <glyph glyph-name="question" unicode="?" horiz-adv-x="461" 
d="M229 120q11 0 20 -8.5t16 -22t10.5 -30.5t3.5 -35q0 -26 -14.5 -32.5t-35.5 -6.5t-35 6.5t-14 32.5q0 18 3.5 35t10.5 30.5t15.5 22t19.5 8.5zM193 207q31 38 57.5 80t45.5 84t30 83.5t11 79.5q0 24 -5.5 44.5t-17.5 35.5t-31 23.5t-47 8.5q-55 0 -76.5 -26.5
t-21.5 -65.5q0 -26 7.5 -54.5t19.5 -56.5l-70 -23q-30 66 -30 119q0 36 13 64t36 47.5t55 29.5t70 10q90 0 136 -42t46 -114q0 -80 -52.5 -170.5t-146.5 -184.5z" />
    <glyph glyph-name="at" unicode="@" horiz-adv-x="835" 
d="M561 292q2 -16 3 -32t1 -32q0 -46 -12 -74t-33 -43.5t-48.5 -20.5t-58.5 -5t-57 4.5t-45.5 17.5t-30.5 36t-11 60q0 30 14 54t38 40t55.5 24.5t65.5 8.5h45q-5 34 -12.5 64.5t-17 53.5t-21 36t-23.5 13q-17 0 -31 -30t-14 -80l-72 17q10 38 22.5 62.5t27.5 39t32 20
t35 5.5q25 0 47 -16t40.5 -43.5t32.5 -64t22 -77.5h122q4 25 5.5 50t1.5 52q0 58 -21.5 93.5t-58.5 54.5t-86.5 25t-104.5 6q-54 0 -102 -6t-83.5 -25t-56 -54.5t-20.5 -93.5q0 -57 9 -113.5t25.5 -108.5t40 -96.5t53 -77.5t63 -51.5t71.5 -18.5q48 0 89.5 29t76.5 77
l44 -25q-44 -53 -97 -84t-113 -31q-71 0 -132 43.5t-105.5 114.5t-70 160.5t-25.5 181.5q0 69 26 111t71 64.5t106 30t130 7.5q70 0 132 -7.5t108.5 -30t74 -64.5t27.5 -111q0 -37 -4 -70t-12 -69zM494 228q0 32 -3 64h-26q-25 0 -47.5 -5t-40 -15.5t-27.5 -27.5t-10 -41
q0 -26 5 -42.5t15 -26t23 -13t30 -3.5t31.5 4t25.5 15.5t17.5 33t6.5 57.5z" />
    <glyph glyph-name="A" unicode="A" horiz-adv-x="544" 
d="M397 0q0 42 -1 81.5t-3 78.5h-241q-2 -39 -3 -78.5t-1 -81.5h-88q1 138 17.5 262.5t45 218.5t67 149t82.5 55q45 0 83 -55t66.5 -149t45 -218.5t17.5 -262.5h-87zM272 645q-21 0 -40 -33.5t-34 -92.5t-26 -139.5t-17 -174.5h235q-6 94 -17.5 174.5t-27 139.5t-34 92.5
t-39.5 33.5z" />
    <glyph glyph-name="B" unicode="B" horiz-adv-x="497" 
d="M80 670q75 15 136 15q116 0 178.5 -50.5t62.5 -146.5q0 -70 -41.5 -128.5t-107.5 -104.5q55 -29 79.5 -62t24.5 -75q0 -34 -15.5 -59t-42 -41.5t-62 -24.5t-76.5 -8q-58 0 -119 15zM215 642q-23 0 -48 -3l-9 -421q41 21 79 49t67.5 62t47 74t17.5 84q0 75 -37 115
t-117 40zM324 119q0 32 -12.5 60t-42.5 51q-53 -32 -112 -56l-3 -140q33 -9 64 -9q46 0 76 23t30 71z" />
    <glyph glyph-name="C" unicode="C" horiz-adv-x="503" 
d="M420 174q-14 -42 -31 -76.5t-37.5 -59.5t-43 -39t-46.5 -14q-42 0 -79 41t-64 108t-43 152.5t-16 175.5q0 73 16 117t43.5 67.5t64.5 31t78 7.5q39 0 73.5 -6.5t61.5 -26t44 -55.5t22 -96l-86 -24q-1 55 -10.5 88.5t-25 51t-36 23t-43.5 5.5t-44 -6t-36.5 -25t-24.5 -55
t-9 -97q0 -83 8.5 -161.5t24 -140t36.5 -98.5t45 -37q28 0 50.5 45.5t38.5 117.5z" />
    <glyph glyph-name="D" unicode="D" horiz-adv-x="517" 
d="M467 488q0 -56 -17.5 -121.5t-55.5 -131t-97.5 -127t-143.5 -108.5h-56l-17 670q76 15 140 15q121 0 184 -50.5t63 -146.5zM219 642q-12 0 -25 -1t-27 -3l-13 -587q60 38 102.5 90.5t69.5 111.5t40 119.5t13 114.5q0 75 -38.5 115t-121.5 40z" />
    <glyph glyph-name="E" unicode="E" horiz-adv-x="503" 
d="M420 174q-14 -42 -31 -76.5t-37.5 -59.5t-43 -39t-46.5 -14q-42 0 -79 41t-64 108t-43 152.5t-16 175.5q0 73 16 117t43.5 67.5t64.5 31t78 7.5q39 0 73.5 -6.5t61.5 -26t44 -55.5t22 -96l-86 -24q-1 55 -10.5 88.5t-25 51t-36 23t-43.5 5.5t-44 -6t-36.5 -25t-24.5 -55
t-9 -97q0 -41 1.5 -80t6.5 -77h195v-45h-189q7 -50 17 -93t23 -74.5t28 -49.5t32 -18q28 0 50.5 45.5t38.5 117.5z" />
    <glyph glyph-name="F" unicode="F" horiz-adv-x="398" 
d="M97 670h286v-71l-229 19l7 -313h172v-45h-171l6 -260h-88z" />
    <glyph glyph-name="G" unicode="G" 
d="M463 263q-13 -59 -32 -109.5t-44 -88t-54 -59t-61 -21.5q-44 0 -83 41t-67.5 108t-45 152.5t-16.5 175.5q0 73 17 117t46 67.5t67.5 31t81.5 7.5q41 0 78.5 -7t66 -27.5t45.5 -57.5t18 -97l-87 -23q-1 32 -4.5 63t-16 55t-36 39t-64.5 15q-25 0 -47.5 -6t-39.5 -25
t-27 -55t-10 -97q0 -83 9.5 -161.5t26 -140t39 -98.5t49.5 -37q16 0 31 14.5t28 40t24 61t19 77.5h-107v45h196z" />
    <glyph glyph-name="H" unicode="H" horiz-adv-x="569" 
d="M400 260h-232v-260h-88l33 670h55v-365h232v365h55l34 -670h-88z" />
    <glyph glyph-name="I" unicode="I" horiz-adv-x="248" 
d="M97 670h56l15 -670h-88z" />
    <glyph glyph-name="J" unicode="J" horiz-adv-x="417" 
d="M102 207q-4 -14 -6 -33t-2 -36q0 -22 4.5 -42.5t15 -36t27 -25t40.5 -9.5q22 0 38.5 8.5t27.5 29.5t16 57t5 90v460h55q6 -122 10 -206.5t6.5 -139.5t4 -85.5t2 -45.5t0.5 -19v-5q0 -53 -13.5 -88.5t-36 -56.5t-52.5 -30t-63 -9q-35 0 -66.5 7.5t-54.5 27t-36.5 53.5
t-13.5 87q0 17 1.5 35t5.5 35z" />
    <glyph glyph-name="K" unicode="K" horiz-adv-x="482" 
d="M97 670h56l10 -469q85 109 131 222t58 247h89q-13 -127 -60 -229t-110 -182q28 -8 52.5 -30.5t42.5 -56t28 -77.5t10 -95h-81q0 53 -3.5 91.5t-12.5 65.5t-24.5 43.5t-38.5 24.5q-20 -23 -39.5 -44t-39.5 -39l3 -142h-88z" />
    <glyph glyph-name="L" unicode="L" horiz-adv-x="393" 
d="M97 670h56l14 -619l206 20v-71h-293z" />
    <glyph glyph-name="M" unicode="M" horiz-adv-x="849" 
d="M629 645q-18 0 -38.5 -32.5t-40.5 -90t-38.5 -135.5t-33.5 -169q1 -11 1 -20.5v-20.5q0 -43 -1.5 -87t-5.5 -90h-87q6 69 8.5 134.5t2.5 125.5q0 83 -5 153.5t-14 122t-22.5 80.5t-30.5 29q-20 0 -42 -38t-44 -104t-41 -155.5t-33 -192.5l4 -155h-88l17 670h56l7 -307
q16 72 34.5 131t39.5 101.5t45 66t52 23.5q25 0 47 -22t39.5 -62t30 -96.5t20.5 -124.5q17 68 35 124.5t38.5 96.5t44 62t50.5 22q34 0 61.5 -39t46.5 -107t29.5 -161t10.5 -201q0 -43 -1.5 -87t-5.5 -90h-87q6 69 8.5 134.5t2.5 125.5q0 83 -5 153.5t-14 122t-22.5 80.5
t-30.5 29z" />
    <glyph glyph-name="N" unicode="N" horiz-adv-x="576" 
d="M97 670h56l7 -325q20 75 40.5 137.5t43.5 107.5t49 70t58 25q37 0 66.5 -39t50.5 -107t32 -161t11 -201q0 -43 -1.5 -87t-5.5 -90h-87q6 69 8.5 134.5t2.5 125.5q0 83 -5 153.5t-15.5 122t-25.5 80.5t-34 29q-23 0 -48.5 -39t-50.5 -107t-47 -159.5t-37 -196.5l3 -143
h-88z" />
    <glyph glyph-name="O" unicode="O" horiz-adv-x="544" 
d="M272 25q27 0 50 37t39.5 98.5t26 140t9.5 161.5q0 61 -10 97t-27 55t-39.5 25t-48.5 6q-25 0 -47.5 -6t-39.5 -25t-27 -55t-10 -97q0 -83 9.5 -161.5t26 -140t39 -98.5t49.5 -37zM272 -15q-44 0 -83 41t-67.5 108t-45 152.5t-16.5 175.5q0 73 17 117t46 67.5t67.5 31
t81.5 7.5q44 0 82.5 -7.5t67.5 -31t45.5 -67.5t16.5 -117q0 -90 -16.5 -175.5t-45 -152.5t-67 -108t-83.5 -41z" />
    <glyph glyph-name="P" unicode="P" horiz-adv-x="472" 
d="M80 670q66 15 121 15q116 0 178.5 -50.5t62.5 -146.5q0 -55 -23 -103.5t-62 -90.5t-91 -76.5t-110 -61.5l-3 -156h-56zM200 642q-8 0 -16 -0.5t-17 -1.5l-10 -438q39 23 75 53.5t63 66.5t43 77.5t16 87.5q0 75 -37 115t-117 40z" />
    <glyph glyph-name="Q" unicode="Q" horiz-adv-x="544" 
d="M417 -124q-16 0 -37 11t-41 23.5t-38 23.5t-28 11q-5 0 -11.5 -1.5t-12.5 -7.5t-10 -18t-4 -32l-38 6q5 44 15.5 67t26.5 33q-38 14 -71 59t-57 109t-37.5 142.5t-13.5 159.5q0 73 17 117t46 67.5t67.5 31t81.5 7.5q44 0 82.5 -7.5t67.5 -31t45.5 -67.5t16.5 -117
q0 -81 -13.5 -158.5t-37 -142t-56 -109.5t-70.5 -60q14 -6 27.5 -14.5t26 -17t24.5 -14t22 -5.5q5 0 10 1.5t9 7.5t6.5 18t2.5 32l58 -16q-3 -32 -10.5 -53t-17 -33t-22 -17t-26.5 -5zM272 25q27 0 50 37t39.5 98.5t26 140t9.5 161.5q0 61 -10 97t-27 55t-39.5 25t-48.5 6
q-25 0 -47.5 -6t-39.5 -25t-27 -55t-10 -97q0 -83 9.5 -161.5t26 -140t39 -98.5t49.5 -37z" />
    <glyph glyph-name="R" unicode="R" horiz-adv-x="492" 
d="M80 670q66 15 121 15q116 0 178.5 -50.5t62.5 -146.5q0 -71 -43 -133t-112 -111q51 -21 84 -84.5t33 -159.5h-81q0 53 -3.5 90.5t-12.5 62.5t-24.5 39.5t-39.5 22.5q-20 -12 -41.5 -23.5t-44.5 -21.5l-4 -170h-56zM200 642q-8 0 -16 -0.5t-17 -1.5l-9 -424q39 22 74.5 51
t62.5 64t43 74.5t16 81.5q0 75 -37 115t-117 40z" />
    <glyph glyph-name="S" unicode="S" horiz-adv-x="502" 
d="M156 476q0 -34 22.5 -57t56 -43t72.5 -39t72.5 -44t56 -58.5t22.5 -82.5q0 -83 -48.5 -125t-150.5 -42q-41 0 -79 6.5t-67 27.5t-47.5 60t-21.5 103q22 2 45 4t43 4q2 -56 13 -89t28 -50t39.5 -21.5t46.5 -4.5q62 0 89 34.5t27 86.5q0 38 -22 64.5t-55 48t-71 40.5
t-71 42t-55 53t-22 73q0 37 14 75.5t38 70t55 52t65 20.5q24 0 47.5 -13.5t44.5 -37.5t38.5 -57.5t29.5 -73.5l-85 -25q-1 40 -8 71t-17.5 52.5t-23.5 32.5t-26 11q-20 0 -37 -16t-30 -41t-20.5 -55t-7.5 -57z" />
    <glyph glyph-name="T" unicode="T" horiz-adv-x="433" 
d="M187 616l-177 6v48h413v-61l-177 5l14 -614h-88z" />
    <glyph glyph-name="U" unicode="U" horiz-adv-x="548" 
d="M274 -15q-60 0 -101 22t-66 60t-36 88t-11 106q0 55 6.5 112t18 110t26 101t29.5 86h92q-24 -53 -42.5 -111.5t-31 -117t-19.5 -114t-7 -103.5q0 -97 38.5 -148t103.5 -51q64 0 103 51t39 148q0 48 -7 103.5t-19.5 114t-31 117t-42.5 111.5h92q15 -38 29.5 -86t26 -101
t18 -110t6.5 -112q0 -56 -11 -106t-36 -88t-66 -60t-101 -22z" />
    <glyph glyph-name="V" unicode="V" horiz-adv-x="555" 
d="M280 25q18 0 34 24t30 66.5t25 102.5t19 131.5t12.5 153t4.5 167.5h87q-1 -138 -17.5 -262.5t-45 -218.5t-66.5 -149t-83 -55q-44 0 -82.5 55t-67 149t-45 218.5t-17.5 262.5h88q0 -129 10 -246t26.5 -205.5t39 -141t48.5 -52.5z" />
    <glyph glyph-name="W" unicode="W" horiz-adv-x="821" 
d="M279 25q27 0 44.5 52.5t28.5 141t15.5 205.5t4.5 246h87q0 -129 4.5 -246t15.5 -205.5t28.5 -141t44.5 -52.5t49.5 52.5t39 141t26 205.5t9.5 246h88q-1 -138 -17.5 -262.5t-45 -218.5t-67 -149t-82.5 -55q-28 0 -50 23.5t-39 66t-29 101.5t-19 131q-8 -72 -19.5 -131
t-28 -101.5t-38.5 -66t-50 -23.5q-44 0 -82.5 55t-67 149t-45 218.5t-17.5 262.5h88q0 -129 9.5 -246t26 -205.5t39 -141t49.5 -52.5z" />
    <glyph glyph-name="X" unicode="X" horiz-adv-x="580" 
d="M294 338q-33 0 -54.5 -26.5t-34 -72.5t-18 -107.5t-5.5 -131.5h-88q1 134 36.5 225.5t92.5 129.5q-29 16 -49 46.5t-33 71.5t-19 91t-8 106h85q0 -60 2 -113.5t11 -93t28 -63t54 -23.5t54 23t28 62.5t11 93t2 114.5h83q-2 -56 -8.5 -106t-18.5 -91t-32 -71.5t-49 -46.5
q56 -38 91.5 -129.5t36.5 -225.5h-87q0 70 -5.5 131.5t-18 107.5t-33.5 72.5t-54 26.5z" />
    <glyph glyph-name="Y" unicode="Y" horiz-adv-x="492" 
d="M218 168q-36 12 -66.5 52t-53 104.5t-35.5 152t-13 193.5h85q0 -94 5.5 -179t18 -149t34 -102t54.5 -38t54 38t33.5 102t18 149t5.5 179h84q0 -106 -13 -193t-35.5 -152t-53 -105t-65.5 -52l15 -168h-88z" />
    <glyph glyph-name="Z" unicode="Z" horiz-adv-x="448" 
d="M423 670q-3 -93 -34.5 -183.5t-79 -170.5t-103.5 -146.5t-108 -111.5l312 -8v-50h-385v47q67 55 118.5 123.5t88 143.5t59 151.5t31.5 146.5l-285 8v50h386z" />
    <glyph glyph-name="bracketleft" unicode="[" horiz-adv-x="250" 
d="M131 -60h89v-40h-139v844h139v-40h-89v-764z" />
    <glyph glyph-name="backslash" unicode="\" horiz-adv-x="240" 
d="M289 -56l-47 -17l-291 799l47 17z" />
    <glyph glyph-name="bracketright" unicode="]" horiz-adv-x="250" 
d="M119 704h-89v40h139v-844h-139v40h89v764z" />
    <glyph glyph-name="asciicircum" unicode="^" 
d="M235 630h50l150 -280h-50l-125 232l-125 -232h-50z" />
    <glyph glyph-name="underscore" unicode="_" horiz-adv-x="437" 
d="M1 0zM1.50195 -49v50h437.009v-50h-437.009z" />
    <glyph glyph-name="grave" unicode="`" horiz-adv-x="277" 
d="M214 574q-11 0 -31.5 6t-42.5 14.5t-42 17.5t-30 15q-18 10 -18 24t11 30t25 16q9 0 19 -6q12 -7 32.5 -22t40.5 -31.5t34.5 -32t14.5 -23.5q0 -5 -5 -6.5t-8 -1.5z" />
    <glyph glyph-name="a" unicode="a" horiz-adv-x="435" 
d="M213 531q36 0 67.5 -32.5t55 -85t36.5 -119t13 -134.5q0 -57 -13.5 -91t-37 -53t-55 -25t-66.5 -6t-65 5.5t-52 21.5t-34.5 44.5t-12.5 73.5q0 37 16 66t43 48.5t62.5 30t74.5 10.5q24 0 52 -5q-5 43 -13.5 81t-19.5 66.5t-24 45t-27 16.5q-19 0 -35.5 -37t-16.5 -97
l-81 21q11 46 25 76t31 47.5t36.5 24.5t40.5 7zM304 160q0 38 -3 76q-8 1 -15 1.5t-14 0.5q-29 0 -54.5 -6t-45 -19t-31 -33.5t-11.5 -49.5q0 -32 6 -52.5t17 -32t26 -15.5t34 -4t35.5 4.5t29 19t19.5 40.5t7 70z" />
    <glyph glyph-name="b" unicode="b" horiz-adv-x="464" 
d="M80 750h51l6 -340q17 53 42.5 85.5t62.5 32.5q36 0 67.5 -32t55 -84t36.5 -118t13 -134q0 -57 -13.5 -91t-37 -53t-55 -25t-66.5 -6t-66.5 6t-55 25t-37 53t-13.5 91zM242 487q-20 0 -37 -28t-30.5 -74t-21 -105t-7.5 -120q0 -44 8 -70t21.5 -40.5t30.5 -19t36 -4.5
t35.5 4.5t29 19t19.5 40.5t7 70q0 61 -7 120t-19 105t-29 74t-36 28z" />
    <glyph glyph-name="c" unicode="c" horiz-adv-x="425" 
d="M303 356q0 43 -7 69.5t-18.5 41t-27 19t-33.5 4.5t-33.5 -4.5t-27 -19t-18.5 -41t-7 -69.5q0 -61 6.5 -120t18 -105.5t27 -75t33.5 -28.5q17 0 31.5 34.5t25.5 93.5l71 -13q-23 -72 -58.5 -114.5t-70.5 -42.5t-65 32.5t-52.5 85t-35 119t-12.5 134.5q0 57 13 91t35.5 53
t52.5 25t64 6t64.5 -6t54 -22.5t37 -47t13.5 -79.5z" />
    <glyph glyph-name="d" unicode="d" horiz-adv-x="464" 
d="M384 750q2 -148 4 -250t3 -168t1.5 -102t1 -53t0.5 -20.5v-4.5q0 -54 -14 -87t-37.5 -50.5t-55 -23.5t-65.5 -6q-35 0 -66.5 6t-55 25t-37 53t-13.5 91q0 68 13 134t36.5 118t55 84t67.5 32q37 0 62.5 -32.5t42.5 -85.5l6 340h51zM222 487q-20 0 -36.5 -28t-28.5 -74
t-19 -105t-7 -120q0 -44 7 -70t19.5 -40.5t29 -19t35.5 -4.5t36 4.5t30.5 19t21.5 40.5t8 70q0 61 -7.5 120t-21 105t-31 74t-36.5 28z" />
    <glyph glyph-name="e" unicode="e" horiz-adv-x="472" 
d="M407 386q0 -30 -10.5 -58.5t-32 -51.5t-54.5 -37t-78 -14q-18 0 -38 2.5t-41 7.5q5 -43 13.5 -81t19.5 -66t24 -44.5t27 -16.5q18 0 33.5 34.5t27.5 93.5l71 -13q-23 -72 -59.5 -114.5t-72.5 -42.5t-67.5 32.5t-55 85t-36.5 119t-13 134.5q0 57 13.5 91t37 53t55 25
t66.5 6t66 -7t54 -24t36.5 -44.5t13.5 -69.5zM146 356q0 -41 3 -78q17 -3 32 -4t29 -1q35 0 58 8.5t36 23.5t18 36t5 45q0 57 -26 80.5t-64 23.5q-19 0 -35.5 -4.5t-29 -19t-19.5 -41t-7 -69.5z" />
    <glyph glyph-name="f" unicode="f" horiz-adv-x="308" 
d="M130 516q4 55 13 100.5t23.5 78.5t35 51.5t48.5 18.5q14 0 30 -5.5t31 -18.5t26 -35t16 -56l-79 -24q-4 45 -15 66t-27 21q-12 0 -19.5 -14.5t-12.5 -41t-7 -62.5t-3 -79h106v-58l-106 4v-14v-25t0.5 -46.5t1 -79t1.5 -122t3 -175.5h-76q1 103 2 175.5t2 122t1 79.5
t0.5 47.5t1 25.5t0.5 15l-77 3v48h80z" />
    <glyph glyph-name="g" unicode="g" horiz-adv-x="462" 
d="M232 135q-35 0 -64 20q-5 -16 -7 -28.5t-2 -25.5q0 -21 18.5 -34t46.5 -23t60.5 -19.5t60.5 -25.5t46.5 -40t18.5 -62q0 -65 -47.5 -98.5t-132.5 -33.5q-37 0 -70.5 5.5t-59.5 23t-42 49t-18 83.5l81 6q1 -41 10 -65.5t24 -38t34.5 -18t41.5 -4.5q50 0 75.5 25t25.5 66
q0 27 -16.5 43t-42 27t-54.5 19.5t-54.5 20.5t-42 29.5t-16.5 47.5q0 22 5.5 46.5t23.5 53.5q-35 38 -55 96.5t-20 120.5q0 40 13 65t36 38.5t53 18.5t65 5q13 38 27 62t29.5 37.5t33.5 18t39 4.5q12 0 25 -4t24.5 -13.5t20 -25t11.5 -39.5l-81 -22q-1 26 -8.5 39t-19.5 13
q-31 0 -57 -72q28 -2 52.5 -8.5t42.5 -20.5t28 -37.5t10 -58.5q0 -49 -13 -97t-36.5 -85.5t-55 -60.5t-67.5 -23zM232 176q19 0 36 19t29 50t19 71t7 81q0 29 -7 47t-19.5 27.5t-29 12.5t-35.5 3t-35.5 -3t-29 -12.5t-19.5 -27.5t-7 -47q0 -41 7 -81t19 -71t28.5 -50
t36.5 -19z" />
    <glyph glyph-name="h" unicode="h" horiz-adv-x="464" 
d="M259 486q-20 0 -38 -39.5t-32.5 -106.5t-24.5 -155t-13 -185h-81l10 750h51l4 -521q7 65 18 120t26.5 94.5t35.5 62t46 22.5q34 0 62 -37.5t48.5 -101.5t32 -150t11.5 -183v-28t-1 -28h-81q1 23 1 44.5v43.5q0 82 -5.5 154.5t-15 126.5t-23.5 85.5t-31 31.5z" />
    <glyph glyph-name="i" unicode="i" horiz-adv-x="251" 
d="M88 516h78l-11 -516h-56zM126 585q-10 0 -18.5 7.5t-14.5 20t-9.5 28.5t-3.5 32q0 24 13.5 30.5t32.5 6.5t32 -6.5t13 -30.5q0 -16 -3.5 -32t-9.5 -28.5t-14 -20t-18 -7.5z" />
    <glyph glyph-name="j" unicode="j" horiz-adv-x="251" 
d="M126 585q-10 0 -18.5 7.5t-14.5 20t-9.5 28.5t-3.5 32q0 24 13.5 30.5t32.5 6.5t32 -6.5t13 -30.5q0 -16 -3.5 -32t-9.5 -28.5t-14 -20t-18 -7.5zM11 -96q4 -45 15 -66t27 -21q13 0 21 18t12.5 50t6.5 76t2 95v16v26.5t-0.5 47.5t-1.5 78.5t-2 119.5t-3 172h78l-6 -371
q-1 -80 -7.5 -149.5t-20.5 -120.5t-37.5 -80.5t-59.5 -29.5q-14 0 -30 5.5t-31 18.5t-26.5 35t-15.5 56z" />
    <glyph glyph-name="k" unicode="k" horiz-adv-x="464" 
d="M92 750h49l9 -449q37 7 64.5 29t45.5 53t27 66t9 67h78q0 -33 -8.5 -67.5t-26.5 -65.5t-46.5 -57t-67.5 -41q48 -14 81.5 -40t55.5 -62.5t32 -82.5t10 -100h-81q0 55 -12.5 101t-35 80.5t-54 55.5t-70.5 27l6 -264h-78z" />
    <glyph glyph-name="l" unicode="l" horiz-adv-x="236" 
d="M79 750h78l-11 -750h-56z" />
    <glyph glyph-name="m" unicode="m" horiz-adv-x="677" 
d="M472 489q-20 0 -34.5 -40t-25.5 -107.5t-18 -156t-10 -185.5h-71q3 78 3 152q0 71 -3 132.5t-10 107t-18 71.5t-26 26q-20 0 -38 -40t-32.5 -107.5t-24.5 -156t-13 -185.5h-81l10 516h36l19 -287q7 66 18 121t26.5 95.5t35.5 63t46 22.5q23 0 40 -18.5t28.5 -51.5
t18.5 -79t10 -101q7 55 17.5 101t24.5 79t32.5 51.5t41.5 18.5q34 0 62 -38t48.5 -102.5t32 -151t11.5 -183.5v-28t-1 -28h-81q1 23 1 44.5v43.5q0 82 -5.5 155t-15 128t-23.5 86.5t-31 31.5z" />
    <glyph glyph-name="n" unicode="n" horiz-adv-x="464" 
d="M259 486q-20 0 -38 -39.5t-32.5 -106.5t-24.5 -155t-13 -185h-81l10 516h36l19 -287q7 65 18 120t26.5 94.5t35.5 62t46 22.5q34 0 62 -37.5t48.5 -101.5t32 -150t11.5 -183v-28t-1 -28h-81q1 23 1 44.5v43.5q0 82 -5.5 154.5t-15 126.5t-23.5 85.5t-31 31.5z" />
    <glyph glyph-name="o" unicode="o" horiz-adv-x="444" 
d="M222 26q19 0 36 28t29 74t19 105t7 120q0 43 -7 69.5t-19.5 41t-29 19t-35.5 4.5t-35.5 -4.5t-29 -19t-19.5 -41t-7 -69.5q0 -61 7 -120t19 -105t28.5 -74t36.5 -28zM222 -15q-36 0 -67.5 32t-55 84t-36.5 118t-13 134q0 57 13.5 91t37 53t55 25t66.5 6t66.5 -6t55 -25
t37 -53t13.5 -91q0 -68 -13 -134t-36.5 -118t-55 -84t-67.5 -32z" />
    <glyph glyph-name="p" unicode="p" horiz-adv-x="464" 
d="M80 -220q-3 144 -4.5 243t-2.5 163t-1.5 99t-1 52t-0.5 20v4q0 54 14 87t37.5 50.5t54.5 23.5t66 6t66.5 -6t55 -25t37 -53t13.5 -91q0 -68 -13 -134t-36.5 -118t-55 -84t-67.5 -32q-37 0 -63 32t-43 86l-5 -323h-51zM242 26q19 0 36 28t29 74t19 105t7 120q0 43 -7 69.5
t-19.5 41t-29 19t-35.5 4.5t-36 -4.5t-30.5 -19t-21.5 -41t-8 -69.5q0 -61 7.5 -120t21 -105t30.5 -74t37 -28z" />
    <glyph glyph-name="q" unicode="q" horiz-adv-x="464" 
d="M384 -220h-51l-6 323q-17 -54 -42.5 -86t-62.5 -32q-36 0 -67.5 32t-55 84t-36.5 118t-13 134q0 57 13.5 91t37 53t55 25t66.5 6t66.5 -6t55 -25t37 -53t13.5 -91zM222 26q19 0 36.5 28t31 74t21 105t7.5 120q0 43 -8 69.5t-21.5 41t-30.5 19t-36 4.5t-35.5 -4.5t-29 -19
t-19.5 -41t-7 -69.5q0 -61 7 -120t19 -105t28.5 -74t36.5 -28z" />
    <glyph glyph-name="r" unicode="r" horiz-adv-x="366" 
d="M130 263q6 59 16 108.5t25 85t36 55t49 19.5q17 0 36.5 -7t36 -24.5t27 -47.5t10.5 -76l-81 -21q0 60 -12 97t-31 37q-20 0 -36.5 -40t-28.5 -107.5t-19 -156t-7 -185.5h-81l10 516h36z" />
    <glyph glyph-name="s" unicode="s" horiz-adv-x="423" 
d="M149 361q0 -30 17.5 -48t44 -31t57 -25t57 -29t44 -43t17.5 -68q0 -65 -44 -98.5t-122 -33.5q-34 0 -64.5 5.5t-54 23t-37.5 49t-16 83.5l81 6q1 -41 8.5 -65.5t19.5 -38t28.5 -18t34.5 -4.5q43 0 65 25t22 66q0 31 -17 50t-43 32t-55.5 24.5t-55.5 27t-43 39.5t-17 64
q0 28 11.5 59t31 56.5t45 42t53.5 16.5q42 0 78.5 -41.5t54.5 -110.5l-81 -21q0 60 -16.5 97t-35.5 37q-14 0 -26.5 -12.5t-21.5 -32t-14.5 -42t-5.5 -41.5z" />
    <glyph glyph-name="t" unicode="t" horiz-adv-x="353" 
d="M220 -15q-31 0 -51 11.5t-31.5 37.5t-16 68t-4.5 103v36v41.5t0.5 42.5t1.5 40l4 99l-93 4v48h94l4 134h55l2 -134h111v-58l-110 4q1 -120 3 -202t6.5 -132.5t13 -73t23.5 -22.5q14 0 22.5 32t10.5 91l73 -13q-10 -72 -41.5 -114.5t-76.5 -42.5z" />
    <glyph glyph-name="u" unicode="u" horiz-adv-x="492" 
d="M246 -15q-50 0 -83.5 17.5t-54 46.5t-29.5 68t-9 82t5.5 87t13.5 85.5t17.5 78.5t17.5 66h81q-29 -83 -49 -170.5t-20 -184.5q0 -38 8.5 -63.5t23.5 -41.5t35 -23t43 -7t43 7t35 23t23.5 41.5t8.5 63.5q0 97 -20 184.5t-49 170.5h81q8 -29 17.5 -66t17.5 -78.5
t13.5 -85.5t5.5 -87t-9 -82t-29.5 -68t-54 -46.5t-83.5 -17.5z" />
    <glyph glyph-name="v" unicode="v" horiz-adv-x="444" 
d="M222 30q19 0 36 39.5t29 106.5t19 155t7 185h81q0 -106 -13 -202t-36.5 -168.5t-55 -115t-67.5 -42.5t-67.5 42.5t-55 115t-36.5 168.5t-13 202h81q0 -97 7 -185t19 -155t28.5 -106.5t36.5 -39.5z" />
    <glyph glyph-name="w" unicode="w" horiz-adv-x="657" 
d="M222 27q19 0 33 40t22 107.5t12 156t4 185.5h71q0 -97 4 -185.5t12 -156t21.5 -107.5t33.5 -40q19 0 36 40t29 107.5t19 156t7 185.5h81q0 -106 -13 -202.5t-36.5 -169.5t-55 -116t-67.5 -43q-23 0 -41 18t-30.5 51t-21.5 79t-14 102q-5 -56 -13.5 -102t-21.5 -79
t-30.5 -51t-40.5 -18q-36 0 -67.5 43t-55 116t-36.5 169.5t-13 202.5h81q0 -97 7 -185.5t19 -156t28.5 -107.5t36.5 -40z" />
    <glyph glyph-name="x" unicode="x" horiz-adv-x="464" 
d="M232 256q-48 0 -64.5 -67t-16.5 -189h-81q0 100 27 170t70 101q-48 27 -70 92t-24 153h74q0 -46 2.5 -86.5t11.5 -71t25.5 -48t45.5 -17.5q28 0 45 18t26 48.5t11.5 71t2.5 85.5h74q-2 -87 -24 -152.5t-71 -92.5q44 -31 71 -101t27 -170h-81q0 122 -16.5 189t-64.5 67z
" />
    <glyph glyph-name="y" unicode="y" horiz-adv-x="444" 
d="M169 -204q33 58 60.5 117.5t48.5 118.5q-24 -32 -56 -32q-36 0 -67.5 41t-55 111t-36.5 164t-13 200h81q0 -97 7 -183t19 -150.5t28.5 -102.5t36.5 -38q26 0 44 28t29 77t15.5 116t4.5 145q0 26 -0.5 53t-1.5 55h81q0 -112 -13 -215t-35 -197.5t-51 -179t-60 -158.5z" />
    <glyph glyph-name="z" unicode="z" horiz-adv-x="418" 
d="M383 516q-6 -76 -33 -142.5t-66 -124t-87 -105.5t-96 -86l279 -8v-50h-355v47q65 57 111 108t76.5 100t48.5 98.5t28 104.5l-242 8v50h336z" />
    <glyph glyph-name="braceleft" unicode="{" horiz-adv-x="250" 
d="M3 342q43 0 64 15.5t21 39.5q0 18 -1 39.5t-2.5 43.5t-2.5 43t-1 37q0 60 10 96t28 55.5t43.5 26t57.5 6.5v-40q-18 0 -33.5 -4.5t-27 -19t-18.5 -41t-7 -69.5q0 -32 3.5 -70t3.5 -73q0 -82 -68 -105q33 -12 50.5 -37.5t17.5 -67.5q0 -35 -3.5 -73t-3.5 -70q0 -44 7 -70
t18.5 -40.5t27 -19t33.5 -4.5v-40q-32 0 -57.5 6.5t-43.5 26t-28 55.5t-10 96q0 16 1 37t2.5 43t2.5 43.5t1 39.5q0 24 -21 39.5t-64 15.5v40z" />
    <glyph glyph-name="bar" unicode="|" horiz-adv-x="350" 
d="M150 744h50v-844h-50v844z" />
    <glyph glyph-name="braceright" unicode="}" horiz-adv-x="250" 
d="M247 302q-43 0 -64 -15.5t-21 -39.5q0 -18 1 -39.5t2.5 -43.5t2.5 -43t1 -37q0 -60 -10 -96t-28 -55.5t-44 -26t-57 -6.5v40q18 0 33.5 4.5t27 19t18.5 40.5t7 70q0 32 -3.5 70t-3.5 73q0 42 17.5 67.5t50.5 37.5q-68 23 -68 105q0 35 3.5 73t3.5 70q0 43 -7 69.5
t-18.5 41t-27 19t-33.5 4.5v40q31 0 57 -6.5t44 -26t28 -55.5t10 -96q0 -16 -1 -37t-2.5 -43t-2.5 -43.5t-1 -39.5q0 -24 21 -39.5t64 -15.5v-40z" />
    <glyph glyph-name="asciitilde" unicode="~" 
d="M450 298q-42 25 -91 25q-25 0 -49 -8t-49 -18t-50.5 -18t-53.5 -8q-24 0 -46 6t-41 22v50q18 -15 40 -21.5t46 -6.5q25 0 49.5 8t49 18t49.5 18t52 8q51 0 94 -25v-50v0z" />
    <glyph glyph-name="uni00A0" unicode="&#xa0;" horiz-adv-x="300" 
 />
    <glyph glyph-name="exclamdown" unicode="&#xa1;" horiz-adv-x="265" 
d="M133 330q7 0 13 -23.5t11 -61.5t9.5 -85t7.5 -93t4.5 -87t1.5 -67q0 -29 -2.5 -46t-8 -26t-14.5 -12t-22 -3q-14 0 -23 3t-14 12t-7.5 26t-2.5 46q0 26 1.5 67t4.5 87t7.5 93t9.5 85t11 61.5t13 23.5zM133 396q-11 0 -20 8t-16 21.5t-10.5 31t-3.5 35.5q0 26 14.5 32.5
t35.5 6.5t35 -6.5t14 -32.5q0 -18 -3.5 -35.5t-10.5 -31t-16 -21.5t-19 -8z" />
    <glyph glyph-name="cent" unicode="&#xa2;" horiz-adv-x="425" 
d="M198 86q-29 10 -53.5 42.5t-42 79t-27.5 103.5t-10 115q0 49 10 80t28 49t42.5 25.5t52.5 9.5v120h43v-120q28 -2 53 -9t44 -23.5t29.5 -45t10.5 -71.5l-81 -19q0 40 -6 64.5t-16.5 38t-24.5 17.5t-29 4t-28.5 -4t-24 -17t-16.5 -36.5t-6 -62.5q0 -56 6 -109.5t16 -95.5
t23.5 -68t29.5 -26q13 0 25 32t23 85l74 -11q-19 -59 -46.5 -97.5t-55.5 -49.5v-126h-43v126z" />
    <glyph glyph-name="sterling" unicode="&#xa3;" 
d="M112 339q-11 36 -20 72.5t-9 77.5q0 72 46 114t136 42q37 0 70 -6t58 -21t39.5 -39t14.5 -60q0 -30 -11 -63l-75 10q5 28 5 53q0 47 -29.5 64.5t-71.5 17.5q-29 0 -48 -8.5t-31 -23.5t-17 -35.5t-5 -44.5q0 -38 6.5 -75t14.5 -75h177v-43h-170l4 -34t2 -34
q0 -47 -15.5 -92.5t-59.5 -92.5l313 28v-71h-373v38q42 49 57.5 92t15.5 84q0 21 -3.5 41.5t-8.5 40.5h-51v43h39z" />
    <glyph glyph-name="currency" unicode="&#xa4;" 
d="M445 332q0 -35 -8.5 -65t-23.5 -54l84 -83l-35 -35l-80 80q-52 -47 -122 -47q-35 0 -66 12t-56 35l-80 -80l-35 35l84 84q-31 48 -31 118q0 68 31 118l-84 84l35 35l80 -81q53 48 122 48q34 0 65.5 -12t56.5 -35l80 80l35 -35l-83 -83q14 -24 22.5 -54t8.5 -65zM153 368
q0 -26 5.5 -60.5t19 -65.5t36 -52t55.5 -21q49 0 74.5 35t25.5 93q0 46 -9.5 82.5t-25.5 62t-37.5 39.5t-45.5 14q-49 0 -73.5 -35t-24.5 -92z" />
    <glyph glyph-name="yen" unicode="&#xa5;" 
d="M108 339q-19 55 -30 127.5t-11 163.5h80q0 -93 7.5 -170t22 -133t35 -87t47.5 -31q26 0 46.5 31t35 87t22 133t7.5 170h80q-1 -91 -12 -163.5t-30 -127.5h70v-43h-87q-24 -56 -55 -87h142v-43h-189l13 -166h-88l14 166h-187v43h140q-31 33 -56 87h-84v43h67z" />
    <glyph glyph-name="brokenbar" unicode="&#xa6;" horiz-adv-x="350" 
d="M150 734h50v-290h-50v290zM150 190h50v-290h-50v290z" />
    <glyph glyph-name="section" unicode="&#xa7;" horiz-adv-x="534" 
d="M474 192q0 -42 -18.5 -74t-48.5 -53q14 -16 23 -36t9 -46q0 -37 -14 -75.5t-38 -70t-55 -52t-65 -20.5q-24 0 -47.5 13.5t-44.5 37.5t-38.5 57.5t-29.5 73.5l85 25q1 -40 8 -71t17.5 -52.5t23.5 -32.5t26 -11q19 0 36.5 16t30.5 41t20.5 55t7.5 57q0 33 -22.5 54t-56 36
t-72.5 29t-72.5 34.5t-56 51t-22.5 79.5q0 42 18.5 73.5t48.5 52.5q-15 16 -23.5 36t-8.5 47q0 37 14 75.5t38 70t55 52t65 20.5q24 0 47.5 -13.5t44.5 -37.5t38.5 -57.5t29.5 -73.5l-85 -25q-1 40 -8 71t-17.5 52.5t-23.5 32.5t-26 11q-20 0 -37 -16t-30 -41t-20.5 -55
t-7.5 -57q0 -33 22.5 -54t56 -36t72.5 -29t72.5 -34.5t56 -51t22.5 -79.5zM391 186q0 38 -22 61.5t-55 40t-71.5 30.5t-71.5 33q-14 -16 -21 -38.5t-7 -48.5q0 -38 22 -62t55 -40.5t71.5 -30.5t71.5 -33q14 17 21 39.5t7 48.5z" />
    <glyph glyph-name="dieresis" unicode="&#xa8;" horiz-adv-x="339" 
d="M94 588q-9 0 -17 7.5t-14 19.5t-9.5 27t-3.5 30q0 23 13 29t31 6t30.5 -6t12.5 -29q0 -15 -3 -30t-9 -27t-14 -19.5t-17 -7.5zM246 588q-9 0 -17 7.5t-14 19.5t-9.5 27t-3.5 30q0 23 13 29t31 6t30.5 -6t12.5 -29q0 -15 -3 -30t-9 -27t-14 -19.5t-17 -7.5z" />
    <glyph glyph-name="copyright" unicode="&#xa9;" horiz-adv-x="835" 
d="M478 525q0 35 -5 56t-14 32.5t-21 15t-25 3.5t-25 -3.5t-21 -14.5t-14 -31.5t-5 -53.5q0 -48 5 -94.5t13.5 -82.5t20.5 -58.5t26 -22.5q11 0 21.5 27.5t19.5 73.5l64 -10q-20 -60 -49 -95t-57 -35q-29 0 -53.5 26t-42.5 68t-28 95t-10 108q0 46 10.5 74t28.5 43t42.5 20
t52.5 5t52.5 -5t43 -19t29.5 -39t11 -66zM413 132q-71 0 -132 38.5t-105.5 101.5t-70 142.5t-25.5 161.5q0 61 26 98.5t71 57.5t106 26.5t130 6.5q70 0 132 -6.5t108.5 -26.5t74 -57.5t27.5 -98.5q0 -82 -26.5 -161.5t-73 -142.5t-109 -101.5t-133.5 -38.5zM413 166
q57 0 106 35.5t86 93.5t58 131t21 148q0 51 -21.5 82t-58.5 47.5t-86.5 22t-104.5 5.5q-54 0 -102 -5.5t-83.5 -22t-56 -47.5t-20.5 -82q0 -75 20 -148t55 -131t83 -93.5t104 -35.5z" />
    <glyph glyph-name="ordfeminine" unicode="&#xaa;" horiz-adv-x="321" 
d="M157 721q22 0 41.5 -19.5t33.5 -51t22 -71.5t8 -81q0 -35 -8.5 -56t-22.5 -32.5t-33 -15t-41 -3.5t-40.5 3.5t-32 13t-21 27t-7.5 45.5q0 22 10 40t26.5 30t38 18.5t45.5 6.5q6 0 14 -0.5t14 -1.5q-6 49 -18.5 83t-28.5 34q-11 0 -19 -22t-8 -58l-56 14q14 58 35.5 77.5
t47.5 19.5zM208 498v21t-1 21q-7 0 -10 0.5t-5 0.5q-32 0 -56.5 -13.5t-24.5 -47.5q0 -36 13 -47t33 -11q10 0 19.5 2.5t16.5 10.5t11 23t4 40z" />
    <glyph glyph-name="guillemotleft" unicode="&#xab;" horiz-adv-x="490" 
d="M158 309q0 -20 19 -64t63 -98l-10 -27q-39 17 -67 42.5t-46.5 52t-27.5 52t-9 42.5t9 42.5t27.5 52t46.5 52t67 42.5l10 -27q-44 -54 -63 -98.5t-19 -63.5zM328 309q0 -20 19 -64t63 -98l-10 -27q-39 17 -67 42.5t-46.5 52t-27.5 52t-9 42.5t9 42.5t27.5 52t46.5 52
t67 42.5l10 -27q-44 -54 -63 -98.5t-19 -63.5z" />
    <glyph glyph-name="logicalnot" unicode="&#xac;" 
d="M451 162h-48v135h-333v50h381v-185z" />
    <glyph glyph-name="registered" unicode="&#xae;" horiz-adv-x="835" 
d="M413 132q-71 0 -132 38.5t-105.5 101.5t-70 142.5t-25.5 161.5q0 61 26 98.5t71 57.5t106 26.5t130 6.5q70 0 132 -6.5t108.5 -26.5t74 -57.5t27.5 -98.5q0 -82 -26.5 -161.5t-73 -142.5t-109 -101.5t-133.5 -38.5zM413 166q57 0 106 35.5t86 93.5t58 131t21 148
q0 51 -21.5 82t-58.5 47.5t-86.5 22t-104.5 5.5q-54 0 -102 -5.5t-83.5 -22t-56 -47.5t-20.5 -82q0 -75 20 -148t55 -131t83 -93.5t104 -35.5zM314 661q20 5 42 7t42 2q75 0 117 -33t42 -96q0 -45 -24.5 -80t-68.5 -66q30 -18 50 -59t20 -101h-66q0 65 -9 95t-33 39
q-11 -6 -23.5 -12.5t-27.5 -12.5l-3 -109h-48zM382 632l-7 -247q47 26 80 65.5t33 90.5q0 45 -21.5 68t-69.5 23h-15z" />
    <glyph glyph-name="macron" unicode="&#xaf;" horiz-adv-x="334" 
d="M274 671q5 0 8.5 -9.5t3.5 -21.5t-3.5 -21.5t-8.5 -9.5h-214q-5 0 -8.5 9.5t-3.5 21.5t3.5 21.5t8.5 9.5h214z" />
    <glyph glyph-name="degree" unicode="&#xb0;" horiz-adv-x="330" 
d="M165 422q11 0 20.5 12t16.5 31.5t11 44t4 50.5q0 35 -15.5 45t-36.5 10q-20 0 -35 -10t-15 -45q0 -26 4 -50.5t10.5 -44t15.5 -31.5t20 -12zM165 391q-22 0 -41 15t-33.5 39.5t-22.5 55t-8 62.5q0 26 8.5 42t22.5 25t33.5 12t40.5 3q22 0 41 -3t33.5 -12t22.5 -25t8 -42
q0 -32 -8 -62.5t-22 -55t-33.5 -39.5t-41.5 -15z" />
    <glyph glyph-name="plusminus" unicode="&#xb1;" 
d="M70 1zM285 347h165v-50h-165v-165h-50v165h-165v50h165v165h50v-165zM70 1v50h380v-50h-380z" />
    <glyph glyph-name="twosuperior" unicode="&#xb2;" horiz-adv-x="372" 
d="M62 330zM298 624q0 -28 -12 -60t-33.5 -65t-52 -65t-66.5 -60q39 -1 79 -2.5t79 -2.5v-39h-230v36q36 23 68 54.5t56.5 66t39 70t14.5 67.5q0 26 -12 44t-42 18q-23 0 -39 -9.5t-16 -35.5q0 -7 1 -15.5t3 -18.5l-55 -8q-8 22 -8 42q0 23 9 38.5t24.5 24.5t36.5 13t44 4
q55 0 83.5 -26t28.5 -71z" />
    <glyph glyph-name="threesuperior" unicode="&#xb3;" horiz-adv-x="372" 
d="M64 321zM302 640q0 -32 -17 -63.5t-52 -52.5q20 -8 34 -20.5t22.5 -26t12 -27.5t3.5 -26q0 -30 -9.5 -50t-26 -31.5t-38.5 -16.5t-46 -5q-25 0 -47 4.5t-38.5 15t-26 26.5t-9.5 40q0 21 6 39l55 -8q-4 -16 -4 -31q0 -27 19 -37t45 -10q13 0 24.5 2.5t20 9.5t13.5 19.5
t5 32.5t-13 44t-50 38q-14 -3 -29.5 -5t-36.5 -2v33q45 0 70.5 12t38 29t15 35.5t2.5 31.5q0 25 -16 34.5t-39 9.5t-41.5 -9.5t-18.5 -34.5q0 -8 1 -16.5t2 -17.5l-53 -8q-6 21 -6 42q0 23 9.5 38t26 24t37 13t43.5 4t43.5 -4t35.5 -13t24 -24t9 -38z" />
    <glyph glyph-name="acute" unicode="&#xb4;" horiz-adv-x="444" 
d="M177 574q-3 0 -8 1.5t-5 6.5q0 8 14.5 23.5t34.5 32t40.5 31.5t32.5 22q10 6 19 6q14 0 25 -16t11 -30t-18 -24q-10 -6 -30 -15t-42 -17.5t-42.5 -14.5t-31.5 -6z" />
    <glyph glyph-name="mu" unicode="&#xb5;" horiz-adv-x="444" 
d="M336 185h-4q-8 -45 -18.5 -81t-24 -62t-30 -40t-37.5 -14t-39 15t-33 43t-26.5 66.5t-20.5 86.5h-5l18 -419h-76l10 736h81q0 -97 7 -185t19 -155t28.5 -106.5t36.5 -39.5q19 0 36 39.5t29 106.5t19 155t7 185h80l-10 -516h-36z" />
    <glyph glyph-name="paragraph" unicode="&#xb6;" horiz-adv-x="472" 
d="M368 -100h-56v363q-113 32 -172.5 91.5t-59.5 146.5q0 44 15.5 78t43.5 57.5t66.5 36t85.5 12.5q42 0 101 -15z" />
    <glyph glyph-name="periodcentered" unicode="&#xb7;" horiz-adv-x="205" 
d="M103 235q-11 0 -21 8.5t-17 23t-11 32.5t-4 37q0 28 15.5 35t37.5 7t37 -7t15 -35q0 -19 -4 -37t-11 -32.5t-16.5 -23t-20.5 -8.5z" />
    <glyph glyph-name="cedilla" unicode="&#xb8;" horiz-adv-x="326" 
d="M184 23q43 -41 67.5 -80t24.5 -81q0 -45 -28.5 -71t-83.5 -26q-23 0 -44 4t-36.5 13t-24.5 24.5t-9 38.5q0 20 8 42l55 -8q-2 -10 -3 -18.5t-1 -15.5q0 -26 16 -35.5t39 -9.5q30 0 42 18t12 44q0 37 -19 73t-51 70z" />
    <glyph glyph-name="onesuperior" unicode="&#xb9;" horiz-adv-x="372" 
d="M55 330zM179 715h40v-342l79 3v-46h-219v38l79 3q4 77 8.5 149.5t8.5 149.5q-25 -14 -51 -28.5t-50 -28.5l-19 41z" />
    <glyph glyph-name="ordmasculine" unicode="&#xba;" horiz-adv-x="326" 
d="M162 422q11 0 20.5 16.5t16.5 43t11 61t4 70.5q0 24 -4 39t-11.5 23.5t-17 11t-19.5 2.5t-19 -2.5t-16 -11t-11 -23.5t-4 -39q0 -36 4 -70.5t10.5 -61t15.5 -43t20 -16.5zM162 391q-22 0 -41 19.5t-33.5 51t-22.5 71t-8 80.5q0 34 8.5 55t22.5 32t33.5 15t40.5 4
q22 0 41 -4t33.5 -15t22.5 -32t8 -55q0 -41 -8 -80.5t-22 -71t-33.5 -51t-41.5 -19.5z" />
    <glyph glyph-name="guillemotright" unicode="&#xbb;" horiz-adv-x="490" 
d="M332 309q0 19 -19 63.5t-63 98.5l10 27q39 -17 67 -42.5t46.5 -52t27.5 -52t9 -42.5t-9 -42.5t-27.5 -52t-46.5 -52t-67 -42.5l-10 27q44 54 63 98t19 64zM162 309q0 19 -19 63.5t-63 98.5l10 27q39 -17 67 -42.5t46.5 -52t27.5 -52t9 -42.5t-9 -42.5t-27.5 -52
t-46.5 -52t-67 -42.5l-10 27q44 54 63 98t19 64z" />
    <glyph glyph-name="onequarter" unicode="&#xbc;" horiz-adv-x="842" 
d="M61 0zM504 677l46 -13l-212 -711l-46 13zM185 639h40v-342l79 3v-46h-219v38l79 3q4 77 8.5 149.5t8.5 149.5q-25 -14 -51 -28.5t-50 -28.5l-19 41zM687 74h-28q-23 0 -46.5 3.5t-42.5 15t-30.5 31.5t-11.5 53q0 28 8 55t21.5 53t31.5 50t37 47h35q-30 -48 -51 -97.5
t-21 -88.5q0 -45 15.5 -67t54.5 -22h29l13 208h43v-208h41v-33h-41v-74h-62z" />
    <glyph glyph-name="onehalf" unicode="&#xbd;" horiz-adv-x="842" 
d="M61 0zM504 677l46 -13l-212 -711l-46 13zM185 639h40v-342l79 3v-46h-219v38l79 3q4 77 8.5 149.5t8.5 149.5q-25 -14 -51 -28.5t-50 -28.5l-19 41zM764 294q0 -28 -12 -60t-33.5 -65t-52 -65t-66.5 -60q39 -1 79 -2.5t79 -2.5v-39h-230v36q36 23 68 54.5t56.5 66t39 70
t14.5 67.5q0 26 -12 44t-42 18q-23 0 -39 -9.5t-16 -35.5q0 -7 1 -15.5t3 -18.5l-55 -8q-8 22 -8 42q0 23 9 38.5t24.5 24.5t36.5 13t44 4q55 0 83.5 -26t28.5 -71z" />
    <glyph glyph-name="threequarters" unicode="&#xbe;" horiz-adv-x="842" 
d="M70 0zM504 677l46 -13l-212 -711l-46 13zM308 564q0 -32 -17 -63.5t-52 -52.5q20 -8 34 -20.5t22.5 -26t12 -27.5t3.5 -26q0 -30 -9.5 -50t-26 -31.5t-38.5 -16.5t-46 -5q-25 0 -47 4.5t-38.5 15t-26 26.5t-9.5 40q0 21 6 39l55 -8q-4 -16 -4 -31q0 -27 19 -37t45 -10
q13 0 24.5 2.5t20 9.5t13.5 19.5t5 32.5t-13 44t-50 38q-14 -3 -29.5 -5t-36.5 -2v33q45 0 70.5 12t38 29t15 35.5t2.5 31.5q0 25 -16 34.5t-39 9.5t-41.5 -9.5t-18.5 -34.5q0 -8 1 -16.5t2 -17.5l-53 -8q-6 21 -6 42q0 23 9.5 38t26 24t37 13t43.5 4t43.5 -4t35.5 -13
t24 -24t9 -38zM687 74h-28q-23 0 -46.5 3.5t-42.5 15t-30.5 31.5t-11.5 53q0 28 8 55t21.5 53t31.5 50t37 47h35q-30 -48 -51 -97.5t-21 -88.5q0 -45 15.5 -67t54.5 -22h29l13 208h43v-208h41v-33h-41v-74h-62z" />
    <glyph glyph-name="questiondown" unicode="&#xbf;" horiz-adv-x="461" 
d="M232 396q-11 0 -20 8t-16 21.5t-10.5 31t-3.5 35.5q0 26 14.5 32.5t35.5 6.5t35 -6.5t14 -32.5q0 -18 -3.5 -35.5t-10.5 -31t-16 -21.5t-19 -8zM268 309q-31 -38 -57.5 -80t-45.5 -84t-30 -83.5t-11 -79.5q0 -24 5.5 -44.5t17.5 -35.5t31 -23.5t47 -8.5q55 0 76.5 26.5
t21.5 65.5q0 26 -7.5 54.5t-19.5 56.5l70 23q30 -66 30 -119q0 -36 -13 -64t-36 -47.5t-55 -29.5t-70 -10q-90 0 -136 42t-46 114q0 80 52.5 170.5t146.5 184.5z" />
    <glyph glyph-name="Agrave" unicode="&#xc0;" horiz-adv-x="544" 
d="M60 0zM397 0q0 42 -1 81.5t-3 78.5h-241q-2 -39 -3 -78.5t-1 -81.5h-88q1 138 17.5 262.5t45 218.5t67 149t82.5 55q45 0 83 -55t66.5 -149t45 -218.5t17.5 -262.5h-87zM272 645q-21 0 -40 -33.5t-34 -92.5t-26 -139.5t-17 -174.5h235q-6 94 -17.5 174.5t-27 139.5
t-34 92.5t-39.5 33.5zM347 724q-11 0 -31.5 6t-42.5 14.5t-42 17.5t-30 15q-18 10 -18 24t11 30t25 16q9 0 19 -6q12 -7 32.5 -22t40.5 -31.5t34.5 -32t14.5 -23.5q0 -5 -5 -6.5t-8 -1.5z" />
    <glyph glyph-name="Aacute" unicode="&#xc1;" horiz-adv-x="544" 
d="M60 0zM397 0q0 42 -1 81.5t-3 78.5h-241q-2 -39 -3 -78.5t-1 -81.5h-88q1 138 17.5 262.5t45 218.5t67 149t82.5 55q45 0 83 -55t66.5 -149t45 -218.5t17.5 -262.5h-87zM272 645q-21 0 -40 -33.5t-34 -92.5t-26 -139.5t-17 -174.5h235q-6 94 -17.5 174.5t-27 139.5
t-34 92.5t-39.5 33.5zM216 724q-3 0 -8 1.5t-5 6.5q0 8 14.5 23.5t34.5 32t40.5 31.5t32.5 22q10 6 19 6q14 0 25 -16t11 -30t-18 -24q-10 -6 -30 -15t-42 -17.5t-42.5 -14.5t-31.5 -6z" />
    <glyph glyph-name="Acircumflex" unicode="&#xc2;" horiz-adv-x="544" 
d="M60 0zM397 0q0 42 -1 81.5t-3 78.5h-241q-2 -39 -3 -78.5t-1 -81.5h-88q1 138 17.5 262.5t45 218.5t67 149t82.5 55q45 0 83 -55t66.5 -149t45 -218.5t17.5 -262.5h-87zM272 645q-21 0 -40 -33.5t-34 -92.5t-26 -139.5t-17 -174.5h235q-6 94 -17.5 174.5t-27 139.5
t-34 92.5t-39.5 33.5zM376 724q-8 0 -21 5.5t-27.5 13.5t-29.5 17t-26 17q-11 -8 -26 -17t-29.5 -17t-27.5 -13.5t-21 -5.5q-3 0 -8 1.5t-5 6.5q0 8 12.5 25t29 35.5t33.5 35t26 23.5q9 6 16 6q5 0 16 -6q9 -7 26 -23.5t33.5 -35t29 -35.5t12.5 -25q0 -5 -5 -6.5t-8 -1.5z
" />
    <glyph glyph-name="Atilde" unicode="&#xc3;" horiz-adv-x="544" 
d="M60 0zM397 0q0 42 -1 81.5t-3 78.5h-241q-2 -39 -3 -78.5t-1 -81.5h-88q1 138 17.5 262.5t45 218.5t67 149t82.5 55q45 0 83 -55t66.5 -149t45 -218.5t17.5 -262.5h-87zM272 645q-21 0 -40 -33.5t-34 -92.5t-26 -139.5t-17 -174.5h235q-6 94 -17.5 174.5t-27 139.5
t-34 92.5t-39.5 33.5zM329 733q-16 0 -30.5 9t-27.5 20.5t-24.5 20.5t-21.5 9q-5 0 -10 -1.5t-9 -7.5t-6.5 -18t-2.5 -32l-58 16q3 32 10.5 53t17 33t22 17t26.5 5q18 0 32 -9t25.5 -20.5t22.5 -20.5t24 -9q5 0 10 1.5t9 7.5t6.5 18t2.5 32l58 -16q-3 -32 -10.5 -53t-17 -33
t-22 -17t-26.5 -5z" />
    <glyph glyph-name="Adieresis" unicode="&#xc4;" horiz-adv-x="544" 
d="M60 0zM397 0q0 42 -1 81.5t-3 78.5h-241q-2 -39 -3 -78.5t-1 -81.5h-88q1 138 17.5 262.5t45 218.5t67 149t82.5 55q45 0 83 -55t66.5 -149t45 -218.5t17.5 -262.5h-87zM272 645q-21 0 -40 -33.5t-34 -92.5t-26 -139.5t-17 -174.5h235q-6 94 -17.5 174.5t-27 139.5
t-34 92.5t-39.5 33.5zM196 738q-9 0 -17 7.5t-14 19.5t-9.5 27t-3.5 30q0 23 13 29t31 6t30.5 -6t12.5 -29q0 -15 -3 -30t-9 -27t-14 -19.5t-17 -7.5zM348 738q-9 0 -17 7.5t-14 19.5t-9.5 27t-3.5 30q0 23 13 29t31 6t30.5 -6t12.5 -29q0 -15 -3 -30t-9 -27t-14 -19.5
t-17 -7.5z" />
    <glyph glyph-name="Aring" unicode="&#xc5;" horiz-adv-x="544" 
d="M60 0zM397 0q0 42 -1 81.5t-3 78.5h-241q-2 -39 -3 -78.5t-1 -81.5h-88q1 138 17.5 262.5t45 218.5t67 149t82.5 55q45 0 83 -55t66.5 -149t45 -218.5t17.5 -262.5h-87zM272 645q-21 0 -40 -33.5t-34 -92.5t-26 -139.5t-17 -174.5h235q-6 94 -17.5 174.5t-27 139.5
t-34 92.5t-39.5 33.5zM273 720q-17 0 -31.5 9t-25.5 24t-17.5 34t-6.5 39q0 29 24 37t57 8t56 -8t23 -37q0 -20 -6 -39t-16.5 -34t-25 -24t-31.5 -9zM273 760q13 0 21.5 17t8.5 32q0 12 -8.5 17t-21.5 5q-14 0 -23 -5t-9 -17q0 -15 9 -32t23 -17z" />
    <glyph glyph-name="AE" unicode="&#xc6;" horiz-adv-x="792" 
d="M709 174q-14 -42 -31 -76.5t-37.5 -59.5t-43 -39t-46.5 -14q-30 0 -57.5 21t-50.5 58t-42 87.5t-31 108.5h-203q-4 -63 -5.5 -128.5t-3.5 -131.5h-88q2 198 23.5 329.5t55 210.5t75 112t83.5 33q26 0 52 -11t46 -31q28 26 65.5 34t80.5 8q39 0 73.5 -6.5t61.5 -26
t44 -55.5t22 -96l-86 -24q-1 55 -10.5 88.5t-25 51t-36 23t-43.5 5.5t-44 -6t-36.5 -25t-24.5 -55t-9 -97q0 -41 1.5 -80t6.5 -77h195v-45h-189q7 -50 17 -93t23 -74.5t28 -49.5t32 -18q28 0 50.5 45.5t38.5 117.5zM306 645q-33 0 -56 -26t-38.5 -72t-25 -108t-15.5 -134
h191q-6 38 -9.5 77t-3.5 80q0 54 8.5 91.5t25.5 62.5q-42 29 -77 29z" />
    <glyph glyph-name="Ccedilla" unicode="&#xc7;" horiz-adv-x="503" 
d="M60 0zM420 174q-14 -42 -31 -76.5t-37.5 -59.5t-43 -39t-46.5 -14q-42 0 -79 41t-64 108t-43 152.5t-16 175.5q0 73 16 117t43.5 67.5t64.5 31t78 7.5q39 0 73.5 -6.5t61.5 -26t44 -55.5t22 -96l-86 -24q-1 55 -10.5 88.5t-25 51t-36 23t-43.5 5.5t-44 -6t-36.5 -25
t-24.5 -55t-9 -97q0 -83 8.5 -161.5t24 -140t36.5 -98.5t45 -37q28 0 50.5 45.5t38.5 117.5zM241 23q43 -41 67.5 -80t24.5 -81q0 -45 -28.5 -71t-83.5 -26q-23 0 -44 4t-36.5 13t-24.5 24.5t-9 38.5q0 20 8 42l55 -8q-2 -10 -3 -18.5t-1 -15.5q0 -26 16 -35.5t39 -9.5
q30 0 42 18t12 44q0 37 -19 73t-51 70z" />
    <glyph glyph-name="Egrave" unicode="&#xc8;" horiz-adv-x="503" 
d="M60 0zM420 174q-14 -42 -31 -76.5t-37.5 -59.5t-43 -39t-46.5 -14q-42 0 -79 41t-64 108t-43 152.5t-16 175.5q0 73 16 117t43.5 67.5t64.5 31t78 7.5q39 0 73.5 -6.5t61.5 -26t44 -55.5t22 -96l-86 -24q-1 55 -10.5 88.5t-25 51t-36 23t-43.5 5.5t-44 -6t-36.5 -25
t-24.5 -55t-9 -97q0 -41 1.5 -80t6.5 -77h195v-45h-189q7 -50 17 -93t23 -74.5t28 -49.5t32 -18q28 0 50.5 45.5t38.5 117.5zM327 724q-11 0 -31.5 6t-42.5 14.5t-42 17.5t-30 15q-18 10 -18 24t11 30t25 16q9 0 19 -6q12 -7 32.5 -22t40.5 -31.5t34.5 -32t14.5 -23.5
q0 -5 -5 -6.5t-8 -1.5z" />
    <glyph glyph-name="Eacute" unicode="&#xc9;" horiz-adv-x="503" 
d="M60 0zM420 174q-14 -42 -31 -76.5t-37.5 -59.5t-43 -39t-46.5 -14q-42 0 -79 41t-64 108t-43 152.5t-16 175.5q0 73 16 117t43.5 67.5t64.5 31t78 7.5q39 0 73.5 -6.5t61.5 -26t44 -55.5t22 -96l-86 -24q-1 55 -10.5 88.5t-25 51t-36 23t-43.5 5.5t-44 -6t-36.5 -25
t-24.5 -55t-9 -97q0 -41 1.5 -80t6.5 -77h195v-45h-189q7 -50 17 -93t23 -74.5t28 -49.5t32 -18q28 0 50.5 45.5t38.5 117.5zM197 724q-3 0 -8 1.5t-5 6.5q0 8 14.5 23.5t34.5 32t40.5 31.5t32.5 22q10 6 19 6q14 0 25 -16t11 -30t-18 -24q-10 -6 -30 -15t-42 -17.5
t-42.5 -14.5t-31.5 -6z" />
    <glyph glyph-name="Ecircumflex" unicode="&#xca;" horiz-adv-x="503" 
d="M60 0zM420 174q-14 -42 -31 -76.5t-37.5 -59.5t-43 -39t-46.5 -14q-42 0 -79 41t-64 108t-43 152.5t-16 175.5q0 73 16 117t43.5 67.5t64.5 31t78 7.5q39 0 73.5 -6.5t61.5 -26t44 -55.5t22 -96l-86 -24q-1 55 -10.5 88.5t-25 51t-36 23t-43.5 5.5t-44 -6t-36.5 -25
t-24.5 -55t-9 -97q0 -41 1.5 -80t6.5 -77h195v-45h-189q7 -50 17 -93t23 -74.5t28 -49.5t32 -18q28 0 50.5 45.5t38.5 117.5zM355 724q-8 0 -21 5.5t-27.5 13.5t-29.5 17t-26 17q-11 -8 -26 -17t-29.5 -17t-27.5 -13.5t-21 -5.5q-3 0 -8 1.5t-5 6.5q0 8 12.5 25t29 35.5
t33.5 35t26 23.5q9 6 16 6q5 0 16 -6q9 -7 26 -23.5t33.5 -35t29 -35.5t12.5 -25q0 -5 -5 -6.5t-8 -1.5z" />
    <glyph glyph-name="Edieresis" unicode="&#xcb;" horiz-adv-x="503" 
d="M60 0zM420 174q-14 -42 -31 -76.5t-37.5 -59.5t-43 -39t-46.5 -14q-42 0 -79 41t-64 108t-43 152.5t-16 175.5q0 73 16 117t43.5 67.5t64.5 31t78 7.5q39 0 73.5 -6.5t61.5 -26t44 -55.5t22 -96l-86 -24q-1 55 -10.5 88.5t-25 51t-36 23t-43.5 5.5t-44 -6t-36.5 -25
t-24.5 -55t-9 -97q0 -41 1.5 -80t6.5 -77h195v-45h-189q7 -50 17 -93t23 -74.5t28 -49.5t32 -18q28 0 50.5 45.5t38.5 117.5zM176 738q-9 0 -17 7.5t-14 19.5t-9.5 27t-3.5 30q0 23 13 29t31 6t30.5 -6t12.5 -29q0 -15 -3 -30t-9 -27t-14 -19.5t-17 -7.5zM328 738
q-9 0 -17 7.5t-14 19.5t-9.5 27t-3.5 30q0 23 13 29t31 6t30.5 -6t12.5 -29q0 -15 -3 -30t-9 -27t-14 -19.5t-17 -7.5z" />
    <glyph glyph-name="Igrave" unicode="&#xcc;" horiz-adv-x="248" 
d="M37 0zM97 670h56l15 -670h-88zM201 724q-11 0 -31.5 6t-42.5 14.5t-42 17.5t-30 15q-18 10 -18 24t11 30t25 16q9 0 19 -6q12 -7 32.5 -22t40.5 -31.5t34.5 -32t14.5 -23.5q0 -5 -5 -6.5t-8 -1.5z" />
    <glyph glyph-name="Iacute" unicode="&#xcd;" horiz-adv-x="248" 
d="M57 0zM97 670h56l15 -670h-88zM70 724q-3 0 -8 1.5t-5 6.5q0 8 14.5 23.5t34.5 32t40.5 31.5t32.5 22q10 6 19 6q14 0 25 -16t11 -30t-18 -24q-10 -6 -30 -15t-42 -17.5t-42.5 -14.5t-31.5 -6z" />
    <glyph glyph-name="Icircumflex" unicode="&#xce;" horiz-adv-x="248" 
d="M8 0zM97 670h56l15 -670h-88zM229 724q-8 0 -21 5.5t-27.5 13.5t-29.5 17t-26 17q-11 -8 -26 -17t-29.5 -17t-27.5 -13.5t-21 -5.5q-3 0 -8 1.5t-5 6.5q0 8 12.5 25t29 35.5t33.5 35t26 23.5q9 6 16 6q5 0 16 -6q9 -7 26 -23.5t33.5 -35t29 -35.5t12.5 -25q0 -5 -5 -6.5
t-8 -1.5z" />
    <glyph glyph-name="Idieresis" unicode="&#xcf;" horiz-adv-x="248" 
d="M6 0zM97 670h56l15 -670h-88zM50 738q-9 0 -17 7.5t-14 19.5t-9.5 27t-3.5 30q0 23 13 29t31 6t30.5 -6t12.5 -29q0 -15 -3 -30t-9 -27t-14 -19.5t-17 -7.5zM202 738q-9 0 -17 7.5t-14 19.5t-9.5 27t-3.5 30q0 23 13 29t31 6t30.5 -6t12.5 -29q0 -15 -3 -30t-9 -27
t-14 -19.5t-17 -7.5z" />
    <glyph glyph-name="Eth" unicode="&#xd0;" horiz-adv-x="517" 
d="M27 0zM467 488q0 -56 -17.5 -121.5t-55.5 -131t-97.5 -127t-143.5 -108.5h-56l-17 670q76 15 140 15q121 0 184 -50.5t63 -146.5zM219 642q-12 0 -25 -1t-27 -3l-13 -587q60 38 102.5 90.5t69.5 111.5t40 119.5t13 114.5q0 75 -38.5 115t-121.5 40zM295.796 367v-45
h-268.796v45h268.796z" />
    <glyph glyph-name="Ntilde" unicode="&#xd1;" horiz-adv-x="576" 
d="M80 0zM97 670h56l7 -325q20 75 40.5 137.5t43.5 107.5t49 70t58 25q37 0 66.5 -39t50.5 -107t32 -161t11 -201q0 -43 -1.5 -87t-5.5 -90h-87q6 69 8.5 134.5t2.5 125.5q0 83 -5 153.5t-15.5 122t-25.5 80.5t-34 29q-23 0 -48.5 -39t-50.5 -107t-47 -159.5t-37 -196.5
l3 -143h-88zM349 733q-16 0 -30.5 9t-27.5 20.5t-24.5 20.5t-21.5 9q-5 0 -10 -1.5t-9 -7.5t-6.5 -18t-2.5 -32l-58 16q3 32 10.5 53t17 33t22 17t26.5 5q18 0 32 -9t25.5 -20.5t22.5 -20.5t24 -9q5 0 10 1.5t9 7.5t6.5 18t2.5 32l58 -16q-3 -32 -10.5 -53t-17 -33t-22 -17
t-26.5 -5z" />
    <glyph glyph-name="Ograve" unicode="&#xd2;" horiz-adv-x="544" 
d="M60 0zM272 25q27 0 50 37t39.5 98.5t26 140t9.5 161.5q0 61 -10 97t-27 55t-39.5 25t-48.5 6q-25 0 -47.5 -6t-39.5 -25t-27 -55t-10 -97q0 -83 9.5 -161.5t26 -140t39 -98.5t49.5 -37zM272 -15q-44 0 -83 41t-67.5 108t-45 152.5t-16.5 175.5q0 73 17 117t46 67.5
t67.5 31t81.5 7.5q44 0 82.5 -7.5t67.5 -31t45.5 -67.5t16.5 -117q0 -90 -16.5 -175.5t-45 -152.5t-67 -108t-83.5 -41zM347 724q-11 0 -31.5 6t-42.5 14.5t-42 17.5t-30 15q-18 10 -18 24t11 30t25 16q9 0 19 -6q12 -7 32.5 -22t40.5 -31.5t34.5 -32t14.5 -23.5
q0 -5 -5 -6.5t-8 -1.5z" />
    <glyph glyph-name="Oacute" unicode="&#xd3;" horiz-adv-x="544" 
d="M60 0zM272 25q27 0 50 37t39.5 98.5t26 140t9.5 161.5q0 61 -10 97t-27 55t-39.5 25t-48.5 6q-25 0 -47.5 -6t-39.5 -25t-27 -55t-10 -97q0 -83 9.5 -161.5t26 -140t39 -98.5t49.5 -37zM272 -15q-44 0 -83 41t-67.5 108t-45 152.5t-16.5 175.5q0 73 17 117t46 67.5
t67.5 31t81.5 7.5q44 0 82.5 -7.5t67.5 -31t45.5 -67.5t16.5 -117q0 -90 -16.5 -175.5t-45 -152.5t-67 -108t-83.5 -41zM216 724q-3 0 -8 1.5t-5 6.5q0 8 14.5 23.5t34.5 32t40.5 31.5t32.5 22q10 6 19 6q14 0 25 -16t11 -30t-18 -24q-10 -6 -30 -15t-42 -17.5t-42.5 -14.5
t-31.5 -6z" />
    <glyph glyph-name="Ocircumflex" unicode="&#xd4;" horiz-adv-x="544" 
d="M60 0zM272 25q27 0 50 37t39.5 98.5t26 140t9.5 161.5q0 61 -10 97t-27 55t-39.5 25t-48.5 6q-25 0 -47.5 -6t-39.5 -25t-27 -55t-10 -97q0 -83 9.5 -161.5t26 -140t39 -98.5t49.5 -37zM272 -15q-44 0 -83 41t-67.5 108t-45 152.5t-16.5 175.5q0 73 17 117t46 67.5
t67.5 31t81.5 7.5q44 0 82.5 -7.5t67.5 -31t45.5 -67.5t16.5 -117q0 -90 -16.5 -175.5t-45 -152.5t-67 -108t-83.5 -41zM376 724q-8 0 -21 5.5t-27.5 13.5t-29.5 17t-26 17q-11 -8 -26 -17t-29.5 -17t-27.5 -13.5t-21 -5.5q-3 0 -8 1.5t-5 6.5q0 8 12.5 25t29 35.5t33.5 35
t26 23.5q9 6 16 6q5 0 16 -6q9 -7 26 -23.5t33.5 -35t29 -35.5t12.5 -25q0 -5 -5 -6.5t-8 -1.5z" />
    <glyph glyph-name="Otilde" unicode="&#xd5;" horiz-adv-x="544" 
d="M60 0zM272 25q27 0 50 37t39.5 98.5t26 140t9.5 161.5q0 61 -10 97t-27 55t-39.5 25t-48.5 6q-25 0 -47.5 -6t-39.5 -25t-27 -55t-10 -97q0 -83 9.5 -161.5t26 -140t39 -98.5t49.5 -37zM272 -15q-44 0 -83 41t-67.5 108t-45 152.5t-16.5 175.5q0 73 17 117t46 67.5
t67.5 31t81.5 7.5q44 0 82.5 -7.5t67.5 -31t45.5 -67.5t16.5 -117q0 -90 -16.5 -175.5t-45 -152.5t-67 -108t-83.5 -41zM329 733q-16 0 -30.5 9t-27.5 20.5t-24.5 20.5t-21.5 9q-5 0 -10 -1.5t-9 -7.5t-6.5 -18t-2.5 -32l-58 16q3 32 10.5 53t17 33t22 17t26.5 5q18 0 32 -9
t25.5 -20.5t22.5 -20.5t24 -9q5 0 10 1.5t9 7.5t6.5 18t2.5 32l58 -16q-3 -32 -10.5 -53t-17 -33t-22 -17t-26.5 -5z" />
    <glyph glyph-name="Odieresis" unicode="&#xd6;" horiz-adv-x="544" 
d="M60 0zM272 25q27 0 50 37t39.5 98.5t26 140t9.5 161.5q0 61 -10 97t-27 55t-39.5 25t-48.5 6q-25 0 -47.5 -6t-39.5 -25t-27 -55t-10 -97q0 -83 9.5 -161.5t26 -140t39 -98.5t49.5 -37zM272 -15q-44 0 -83 41t-67.5 108t-45 152.5t-16.5 175.5q0 73 17 117t46 67.5
t67.5 31t81.5 7.5q44 0 82.5 -7.5t67.5 -31t45.5 -67.5t16.5 -117q0 -90 -16.5 -175.5t-45 -152.5t-67 -108t-83.5 -41zM196 738q-9 0 -17 7.5t-14 19.5t-9.5 27t-3.5 30q0 23 13 29t31 6t30.5 -6t12.5 -29q0 -15 -3 -30t-9 -27t-14 -19.5t-17 -7.5zM348 738q-9 0 -17 7.5
t-14 19.5t-9.5 27t-3.5 30q0 23 13 29t31 6t30.5 -6t12.5 -29q0 -15 -3 -30t-9 -27t-14 -19.5t-17 -7.5z" />
    <glyph glyph-name="multiply" unicode="&#xd7;" 
d="M260 357l138 138l35 -35l-138 -138l138 -138l-35 -35l-138 138l-138 -138l-35 35l138 138l-138 138l35 35z" />
    <glyph glyph-name="Oslash" unicode="&#xd8;" horiz-adv-x="544" 
d="M60 0zM272 25q27 0 50 37t39.5 98.5t26 140t9.5 161.5q0 61 -10 97t-27 55t-39.5 25t-48.5 6q-25 0 -47.5 -6t-39.5 -25t-27 -55t-10 -97q0 -83 9.5 -161.5t26 -140t39 -98.5t49.5 -37zM272 -15q-44 0 -83 41t-67.5 108t-45 152.5t-16.5 175.5q0 73 17 117t46 67.5
t67.5 31t81.5 7.5q44 0 82.5 -7.5t67.5 -31t45.5 -67.5t16.5 -117q0 -90 -16.5 -175.5t-45 -152.5t-67 -108t-83.5 -41zM394 743l47 -17l-291 -799l-47 17z" />
    <glyph glyph-name="Ugrave" unicode="&#xd9;" horiz-adv-x="546" 
d="M60 0zM274 -15q-60 0 -101 22t-66 60t-36 88t-11 106q0 55 6.5 112t18 110t26 101t29.5 86h92q-24 -53 -42.5 -111.5t-31 -117t-19.5 -114t-7 -103.5q0 -97 38.5 -148t103.5 -51q64 0 103 51t39 148q0 48 -7 103.5t-19.5 114t-31 117t-42.5 111.5h92q15 -38 29.5 -86
t26 -101t18 -110t6.5 -112q0 -56 -11 -106t-36 -88t-66 -60t-101 -22zM348 724q-11 0 -31.5 6t-42.5 14.5t-42 17.5t-30 15q-18 10 -18 24t11 30t25 16q9 0 19 -6q12 -7 32.5 -22t40.5 -31.5t34.5 -32t14.5 -23.5q0 -5 -5 -6.5t-8 -1.5z" />
    <glyph glyph-name="Uacute" unicode="&#xda;" horiz-adv-x="546" 
d="M60 0zM274 -15q-60 0 -101 22t-66 60t-36 88t-11 106q0 55 6.5 112t18 110t26 101t29.5 86h92q-24 -53 -42.5 -111.5t-31 -117t-19.5 -114t-7 -103.5q0 -97 38.5 -148t103.5 -51q64 0 103 51t39 148q0 48 -7 103.5t-19.5 114t-31 117t-42.5 111.5h92q15 -38 29.5 -86
t26 -101t18 -110t6.5 -112q0 -56 -11 -106t-36 -88t-66 -60t-101 -22zM217 724q-3 0 -8 1.5t-5 6.5q0 8 14.5 23.5t34.5 32t40.5 31.5t32.5 22q10 6 19 6q14 0 25 -16t11 -30t-18 -24q-10 -6 -30 -15t-42 -17.5t-42.5 -14.5t-31.5 -6z" />
    <glyph glyph-name="Ucircumflex" unicode="&#xdb;" horiz-adv-x="548" 
d="M60 0zM274 -15q-60 0 -101 22t-66 60t-36 88t-11 106q0 55 6.5 112t18 110t26 101t29.5 86h92q-24 -53 -42.5 -111.5t-31 -117t-19.5 -114t-7 -103.5q0 -97 38.5 -148t103.5 -51q64 0 103 51t39 148q0 48 -7 103.5t-19.5 114t-31 117t-42.5 111.5h92q15 -38 29.5 -86
t26 -101t18 -110t6.5 -112q0 -56 -11 -106t-36 -88t-66 -60t-101 -22zM378 724q-8 0 -21 5.5t-27.5 13.5t-29.5 17t-26 17q-11 -8 -26 -17t-29.5 -17t-27.5 -13.5t-21 -5.5q-3 0 -8 1.5t-5 6.5q0 8 12.5 25t29 35.5t33.5 35t26 23.5q9 6 16 6q5 0 16 -6q9 -7 26 -23.5
t33.5 -35t29 -35.5t12.5 -25q0 -5 -5 -6.5t-8 -1.5z" />
    <glyph glyph-name="Udieresis" unicode="&#xdc;" horiz-adv-x="546" 
d="M60 0zM274 -15q-60 0 -101 22t-66 60t-36 88t-11 106q0 55 6.5 112t18 110t26 101t29.5 86h92q-24 -53 -42.5 -111.5t-31 -117t-19.5 -114t-7 -103.5q0 -97 38.5 -148t103.5 -51q64 0 103 51t39 148q0 48 -7 103.5t-19.5 114t-31 117t-42.5 111.5h92q15 -38 29.5 -86
t26 -101t18 -110t6.5 -112q0 -56 -11 -106t-36 -88t-66 -60t-101 -22zM197 738q-9 0 -17 7.5t-14 19.5t-9.5 27t-3.5 30q0 23 13 29t31 6t30.5 -6t12.5 -29q0 -15 -3 -30t-9 -27t-14 -19.5t-17 -7.5zM349 738q-9 0 -17 7.5t-14 19.5t-9.5 27t-3.5 30q0 23 13 29t31 6
t30.5 -6t12.5 -29q0 -15 -3 -30t-9 -27t-14 -19.5t-17 -7.5z" />
    <glyph glyph-name="Yacute" unicode="&#xdd;" horiz-adv-x="492" 
d="M50 0zM218 168q-36 12 -66.5 52t-53 104.5t-35.5 152t-13 193.5h85q0 -94 5.5 -179t18 -149t34 -102t54.5 -38t54 38t33.5 102t18 149t5.5 179h84q0 -106 -13 -193t-35.5 -152t-53 -105t-65.5 -52l15 -168h-88zM172 724q-3 0 -8 1.5t-5 6.5q0 8 14.5 23.5t34.5 32
t40.5 31.5t32.5 22q10 6 19 6q14 0 25 -16t11 -30t-18 -24q-10 -6 -30 -15t-42 -17.5t-42.5 -14.5t-31.5 -6z" />
    <glyph glyph-name="Thorn" unicode="&#xde;" horiz-adv-x="472" 
d="M80 670h88l-2 -77q9 1 18 1.5t17 0.5q116 0 178.5 -50.5t62.5 -146.5q0 -55 -23 -104t-62.5 -91t-92 -76.5t-110.5 -61.5l-1 -65h-56zM200 552q-8 0 -17 -0.5t-18 -1.5l-10 -440q39 23 75 53.5t63.5 67t44 78t16.5 88.5q0 75 -37 115t-117 40z" />
    <glyph glyph-name="germandbls" unicode="&#xdf;" horiz-adv-x="610" 
d="M393 -15q-34 0 -64 7.5t-52 23.5t-35 42t-13 64h78q0 -50 25 -68.5t61 -18.5q18 0 33.5 4.5t27.5 17.5t18.5 36t6.5 59q0 24 -4.5 51t-23.5 50t-56.5 38t-104.5 15v40q14 0 28 5t25.5 19t18.5 40.5t7 68.5q0 66 -8.5 112t-22 74.5t-29 41.5t-29.5 13t-29.5 -14.5t-28 -48
t-20.5 -89.5t-8 -139v-429h-87l18 382q2 43 6 82l-81 4v48h88q8 54 21 99.5t30.5 78t40 50.5t50.5 18q36 0 64.5 -25t48.5 -65.5t31 -91.5t11 -102q0 -73 -19 -105t-56 -42q57 -8 95.5 -26.5t61.5 -43.5t33 -53.5t10 -55.5q0 -49 -13.5 -81t-36 -51t-53 -27t-64.5 -8z" />
    <glyph glyph-name="agrave" unicode="&#xe0;" horiz-adv-x="435" 
d="M49 0zM213 531q36 0 67.5 -32.5t55 -85t36.5 -119t13 -134.5q0 -57 -13.5 -91t-37 -53t-55 -25t-66.5 -6t-65 5.5t-52 21.5t-34.5 44.5t-12.5 73.5q0 37 16 66t43 48.5t62.5 30t74.5 10.5q24 0 52 -5q-5 43 -13.5 81t-19.5 66.5t-24 45t-27 16.5q-19 0 -35.5 -37
t-16.5 -97l-81 21q11 46 25 76t31 47.5t36.5 24.5t40.5 7zM304 160q0 38 -3 76q-8 1 -15 1.5t-14 0.5q-29 0 -54.5 -6t-45 -19t-31 -33.5t-11.5 -49.5q0 -32 6 -52.5t17 -32t26 -15.5t34 -4t35.5 4.5t29 19t19.5 40.5t7 70zM293 574q-11 0 -31.5 6t-42.5 14.5t-42 17.5
t-30 15q-18 10 -18 24t11 30t25 16q9 0 19 -6q12 -7 32.5 -22t40.5 -31.5t34.5 -32t14.5 -23.5q0 -5 -5 -6.5t-8 -1.5z" />
    <glyph glyph-name="aacute" unicode="&#xe1;" horiz-adv-x="435" 
d="M49 0zM213 531q36 0 67.5 -32.5t55 -85t36.5 -119t13 -134.5q0 -57 -13.5 -91t-37 -53t-55 -25t-66.5 -6t-65 5.5t-52 21.5t-34.5 44.5t-12.5 73.5q0 37 16 66t43 48.5t62.5 30t74.5 10.5q24 0 52 -5q-5 43 -13.5 81t-19.5 66.5t-24 45t-27 16.5q-19 0 -35.5 -37
t-16.5 -97l-81 21q11 46 25 76t31 47.5t36.5 24.5t40.5 7zM304 160q0 38 -3 76q-8 1 -15 1.5t-14 0.5q-29 0 -54.5 -6t-45 -19t-31 -33.5t-11.5 -49.5q0 -32 6 -52.5t17 -32t26 -15.5t34 -4t35.5 4.5t29 19t19.5 40.5t7 70zM147 574q-3 0 -8 1.5t-5 6.5q0 8 14.5 23.5
t34.5 32t40.5 31.5t32.5 22q10 6 19 6q14 0 25 -16t11 -30t-18 -24q-10 -6 -30 -15t-42 -17.5t-42.5 -14.5t-31.5 -6z" />
    <glyph glyph-name="acircumflex" unicode="&#xe2;" horiz-adv-x="435" 
d="M49 0zM213 531q36 0 67.5 -32.5t55 -85t36.5 -119t13 -134.5q0 -57 -13.5 -91t-37 -53t-55 -25t-66.5 -6t-65 5.5t-52 21.5t-34.5 44.5t-12.5 73.5q0 37 16 66t43 48.5t62.5 30t74.5 10.5q24 0 52 -5q-5 43 -13.5 81t-19.5 66.5t-24 45t-27 16.5q-19 0 -35.5 -37
t-16.5 -97l-81 21q11 46 25 76t31 47.5t36.5 24.5t40.5 7zM304 160q0 38 -3 76q-8 1 -15 1.5t-14 0.5q-29 0 -54.5 -6t-45 -19t-31 -33.5t-11.5 -49.5q0 -32 6 -52.5t17 -32t26 -15.5t34 -4t35.5 4.5t29 19t19.5 40.5t7 70zM321 574q-8 0 -21 5.5t-27.5 13.5t-29.5 17
t-26 17q-11 -8 -26 -17t-29.5 -17t-27.5 -13.5t-21 -5.5q-3 0 -8 1.5t-5 6.5q0 8 12.5 25t29 35.5t33.5 35t26 23.5q9 6 16 6q5 0 16 -6q9 -7 26 -23.5t33.5 -35t29 -35.5t12.5 -25q0 -5 -5 -6.5t-8 -1.5z" />
    <glyph glyph-name="atilde" unicode="&#xe3;" horiz-adv-x="435" 
d="M49 0zM213 531q36 0 67.5 -32.5t55 -85t36.5 -119t13 -134.5q0 -57 -13.5 -91t-37 -53t-55 -25t-66.5 -6t-65 5.5t-52 21.5t-34.5 44.5t-12.5 73.5q0 37 16 66t43 48.5t62.5 30t74.5 10.5q24 0 52 -5q-5 43 -13.5 81t-19.5 66.5t-24 45t-27 16.5q-19 0 -35.5 -37
t-16.5 -97l-81 21q11 46 25 76t31 47.5t36.5 24.5t40.5 7zM304 160q0 38 -3 76q-8 1 -15 1.5t-14 0.5q-29 0 -54.5 -6t-45 -19t-31 -33.5t-11.5 -49.5q0 -32 6 -52.5t17 -32t26 -15.5t34 -4t35.5 4.5t29 19t19.5 40.5t7 70zM274 583q-16 0 -30.5 9t-27.5 20.5t-24.5 20.5
t-21.5 9q-5 0 -10 -1.5t-9 -7.5t-6.5 -18t-2.5 -32l-58 16q3 32 10.5 53t17 33t22 17t26.5 5q18 0 32 -9t25.5 -20.5t22.5 -20.5t24 -9q5 0 10 1.5t9 7.5t6.5 18t2.5 32l58 -16q-3 -32 -10.5 -53t-17 -33t-22 -17t-26.5 -5z" />
    <glyph glyph-name="adieresis" unicode="&#xe4;" horiz-adv-x="435" 
d="M49 0zM213 531q36 0 67.5 -32.5t55 -85t36.5 -119t13 -134.5q0 -57 -13.5 -91t-37 -53t-55 -25t-66.5 -6t-65 5.5t-52 21.5t-34.5 44.5t-12.5 73.5q0 37 16 66t43 48.5t62.5 30t74.5 10.5q24 0 52 -5q-5 43 -13.5 81t-19.5 66.5t-24 45t-27 16.5q-19 0 -35.5 -37
t-16.5 -97l-81 21q11 46 25 76t31 47.5t36.5 24.5t40.5 7zM304 160q0 38 -3 76q-8 1 -15 1.5t-14 0.5q-29 0 -54.5 -6t-45 -19t-31 -33.5t-11.5 -49.5q0 -32 6 -52.5t17 -32t26 -15.5t34 -4t35.5 4.5t29 19t19.5 40.5t7 70zM142 588q-9 0 -17 7.5t-14 19.5t-9.5 27t-3.5 30
q0 23 13 29t31 6t30.5 -6t12.5 -29q0 -15 -3 -30t-9 -27t-14 -19.5t-17 -7.5zM294 588q-9 0 -17 7.5t-14 19.5t-9.5 27t-3.5 30q0 23 13 29t31 6t30.5 -6t12.5 -29q0 -15 -3 -30t-9 -27t-14 -19.5t-17 -7.5z" />
    <glyph glyph-name="aring" unicode="&#xe5;" horiz-adv-x="435" 
d="M49 0zM213 531q36 0 67.5 -32.5t55 -85t36.5 -119t13 -134.5q0 -57 -13.5 -91t-37 -53t-55 -25t-66.5 -6t-65 5.5t-52 21.5t-34.5 44.5t-12.5 73.5q0 37 16 66t43 48.5t62.5 30t74.5 10.5q24 0 52 -5q-5 43 -13.5 81t-19.5 66.5t-24 45t-27 16.5q-19 0 -35.5 -37
t-16.5 -97l-81 21q11 46 25 76t31 47.5t36.5 24.5t40.5 7zM304 160q0 38 -3 76q-8 1 -15 1.5t-14 0.5q-29 0 -54.5 -6t-45 -19t-31 -33.5t-11.5 -49.5q0 -32 6 -52.5t17 -32t26 -15.5t34 -4t35.5 4.5t29 19t19.5 40.5t7 70zM218 570q-17 0 -31.5 9t-25.5 24t-17.5 34
t-6.5 39q0 29 24 37t57 8t56 -8t23 -37q0 -20 -6 -39t-16.5 -34t-25 -24t-31.5 -9zM218 610q13 0 21.5 17t8.5 32q0 12 -8.5 17t-21.5 5q-14 0 -23 -5t-9 -17q0 -15 9 -32t23 -17z" />
    <glyph glyph-name="ae" unicode="&#xe6;" horiz-adv-x="700" 
d="M635 386q0 -30 -10.5 -59.5t-32 -53t-54.5 -38.5t-78 -15q-38 0 -78 10q5 -42 13.5 -79t19 -64.5t23.5 -43.5t27 -16q18 0 33.5 34.5t27.5 93.5l71 -13q-23 -72 -59.5 -114.5t-72.5 -42.5q-28 0 -53 19t-46 53q-11 -23 -26.5 -37t-35.5 -21.5t-43 -10.5t-48 -3
q-35 0 -65 5.5t-52 21.5t-34.5 44.5t-12.5 73.5q0 37 16 66.5t43 50.5t62.5 32t74.5 11q23 0 51 -5q-5 42 -13.5 79.5t-19.5 65t-23.5 43.5t-26.5 16q-19 0 -35.5 -37t-16.5 -97l-81 21q11 46 25 76t31 47.5t36.5 24.5t40.5 7q28 0 53 -19.5t45 -52.5q22 45 62.5 58.5
t91.5 13.5q35 0 66 -7t54 -24t36.5 -44.5t13.5 -69.5zM374 356q0 -43 3 -83q17 -3 32 -4t29 -1q35 0 58 9.5t36 25.5t18 37.5t5 45.5q0 57 -26 80.5t-64 23.5q-19 0 -35.5 -4.5t-29 -19t-19.5 -41t-7 -69.5zM304 160q0 20 -1 41t-3 41q-7 1 -14 1h-14q-29 0 -54.5 -6.5
t-45 -20.5t-31 -35.5t-11.5 -50.5q0 -32 6 -52.5t17 -32t26 -15.5t34 -4t35.5 4.5t29 19t19.5 40.5t7 70z" />
    <glyph glyph-name="ccedilla" unicode="&#xe7;" horiz-adv-x="425" 
d="M50 0zM303 356q0 43 -7 69.5t-18.5 41t-27 19t-33.5 4.5t-33.5 -4.5t-27 -19t-18.5 -41t-7 -69.5q0 -61 6.5 -120t18 -105.5t27 -75t33.5 -28.5q17 0 31.5 34.5t25.5 93.5l71 -13q-23 -72 -58.5 -114.5t-70.5 -42.5t-65 32.5t-52.5 85t-35 119t-12.5 134.5q0 57 13 91
t35.5 53t52.5 25t64 6t64.5 -6t54 -22.5t37 -47t13.5 -79.5zM199 23q43 -41 67.5 -80t24.5 -81q0 -45 -28.5 -71t-83.5 -26q-23 0 -44 4t-36.5 13t-24.5 24.5t-9 38.5q0 20 8 42l55 -8q-2 -10 -3 -18.5t-1 -15.5q0 -26 16 -35.5t39 -9.5q30 0 42 18t12 44q0 37 -19 73
t-51 70z" />
    <glyph glyph-name="egrave" unicode="&#xe8;" horiz-adv-x="472" 
d="M65 0zM407 386q0 -30 -10.5 -58.5t-32 -51.5t-54.5 -37t-78 -14q-18 0 -38 2.5t-41 7.5q5 -43 13.5 -81t19.5 -66t24 -44.5t27 -16.5q18 0 33.5 34.5t27.5 93.5l71 -13q-23 -72 -59.5 -114.5t-72.5 -42.5t-67.5 32.5t-55 85t-36.5 119t-13 134.5q0 57 13.5 91t37 53
t55 25t66.5 6t66 -7t54 -24t36.5 -44.5t13.5 -69.5zM146 356q0 -41 3 -78q17 -3 32 -4t29 -1q35 0 58 8.5t36 23.5t18 36t5 45q0 57 -26 80.5t-64 23.5q-19 0 -35.5 -4.5t-29 -19t-19.5 -41t-7 -69.5zM311 574q-11 0 -31.5 6t-42.5 14.5t-42 17.5t-30 15q-18 10 -18 24
t11 30t25 16q9 0 19 -6q12 -7 32.5 -22t40.5 -31.5t34.5 -32t14.5 -23.5q0 -5 -5 -6.5t-8 -1.5z" />
    <glyph glyph-name="eacute" unicode="&#xe9;" horiz-adv-x="472" 
d="M65 0zM407 386q0 -30 -10.5 -58.5t-32 -51.5t-54.5 -37t-78 -14q-18 0 -38 2.5t-41 7.5q5 -43 13.5 -81t19.5 -66t24 -44.5t27 -16.5q18 0 33.5 34.5t27.5 93.5l71 -13q-23 -72 -59.5 -114.5t-72.5 -42.5t-67.5 32.5t-55 85t-36.5 119t-13 134.5q0 57 13.5 91t37 53
t55 25t66.5 6t66 -7t54 -24t36.5 -44.5t13.5 -69.5zM146 356q0 -41 3 -78q17 -3 32 -4t29 -1q35 0 58 8.5t36 23.5t18 36t5 45q0 57 -26 80.5t-64 23.5q-19 0 -35.5 -4.5t-29 -19t-19.5 -41t-7 -69.5zM165 574q-3 0 -8 1.5t-5 6.5q0 8 14.5 23.5t34.5 32t40.5 31.5t32.5 22
q10 6 19 6q14 0 25 -16t11 -30t-18 -24q-10 -6 -30 -15t-42 -17.5t-42.5 -14.5t-31.5 -6z" />
    <glyph glyph-name="ecircumflex" unicode="&#xea;" horiz-adv-x="472" 
d="M65 0zM407 386q0 -30 -10.5 -58.5t-32 -51.5t-54.5 -37t-78 -14q-18 0 -38 2.5t-41 7.5q5 -43 13.5 -81t19.5 -66t24 -44.5t27 -16.5q18 0 33.5 34.5t27.5 93.5l71 -13q-23 -72 -59.5 -114.5t-72.5 -42.5t-67.5 32.5t-55 85t-36.5 119t-13 134.5q0 57 13.5 91t37 53
t55 25t66.5 6t66 -7t54 -24t36.5 -44.5t13.5 -69.5zM146 356q0 -41 3 -78q17 -3 32 -4t29 -1q35 0 58 8.5t36 23.5t18 36t5 45q0 57 -26 80.5t-64 23.5q-19 0 -35.5 -4.5t-29 -19t-19.5 -41t-7 -69.5zM340 574q-8 0 -21 5.5t-27.5 13.5t-29.5 17t-26 17q-11 -8 -26 -17
t-29.5 -17t-27.5 -13.5t-21 -5.5q-3 0 -8 1.5t-5 6.5q0 8 12.5 25t29 35.5t33.5 35t26 23.5q9 6 16 6q5 0 16 -6q9 -7 26 -23.5t33.5 -35t29 -35.5t12.5 -25q0 -5 -5 -6.5t-8 -1.5z" />
    <glyph glyph-name="edieresis" unicode="&#xeb;" horiz-adv-x="472" 
d="M65 0zM407 386q0 -30 -10.5 -58.5t-32 -51.5t-54.5 -37t-78 -14q-18 0 -38 2.5t-41 7.5q5 -43 13.5 -81t19.5 -66t24 -44.5t27 -16.5q18 0 33.5 34.5t27.5 93.5l71 -13q-23 -72 -59.5 -114.5t-72.5 -42.5t-67.5 32.5t-55 85t-36.5 119t-13 134.5q0 57 13.5 91t37 53
t55 25t66.5 6t66 -7t54 -24t36.5 -44.5t13.5 -69.5zM146 356q0 -41 3 -78q17 -3 32 -4t29 -1q35 0 58 8.5t36 23.5t18 36t5 45q0 57 -26 80.5t-64 23.5q-19 0 -35.5 -4.5t-29 -19t-19.5 -41t-7 -69.5zM160 588q-9 0 -17 7.5t-14 19.5t-9.5 27t-3.5 30q0 23 13 29t31 6
t30.5 -6t12.5 -29q0 -15 -3 -30t-9 -27t-14 -19.5t-17 -7.5zM312 588q-9 0 -17 7.5t-14 19.5t-9.5 27t-3.5 30q0 23 13 29t31 6t30.5 -6t12.5 -29q0 -15 -3 -30t-9 -27t-14 -19.5t-17 -7.5z" />
    <glyph glyph-name="igrave" unicode="&#xec;" horiz-adv-x="251" 
d="M38 0zM88 516h78l-11 -516h-56zM202 574q-11 0 -31.5 6t-42.5 14.5t-42 17.5t-30 15q-18 10 -18 24t11 30t25 16q9 0 19 -6q12 -7 32.5 -22t40.5 -31.5t34.5 -32t14.5 -23.5q0 -5 -5 -6.5t-8 -1.5z" />
    <glyph glyph-name="iacute" unicode="&#xed;" horiz-adv-x="251" 
d="M42 0zM88 516h78l-11 -516h-56zM55 574q-3 0 -8 1.5t-5 6.5q0 8 14.5 23.5t34.5 32t40.5 31.5t32.5 22q10 6 19 6q14 0 25 -16t11 -30t-18 -24q-10 -6 -30 -15t-42 -17.5t-42.5 -14.5t-31.5 -6z" />
    <glyph glyph-name="icircumflex" unicode="&#xee;" horiz-adv-x="251" 
d="M10 0zM88 516h78l-11 -516h-56zM231 574q-8 0 -21 5.5t-27.5 13.5t-29.5 17t-26 17q-11 -8 -26 -17t-29.5 -17t-27.5 -13.5t-21 -5.5q-3 0 -8 1.5t-5 6.5q0 8 12.5 25t29 35.5t33.5 35t26 23.5q9 6 16 6q5 0 16 -6q9 -7 26 -23.5t33.5 -35t29 -35.5t12.5 -25
q0 -5 -5 -6.5t-8 -1.5z" />
    <glyph glyph-name="idieresis" unicode="&#xef;" horiz-adv-x="251" 
d="M7 0zM88 516h78l-11 -516h-56zM51 588q-9 0 -17 7.5t-14 19.5t-9.5 27t-3.5 30q0 23 13 29t31 6t30.5 -6t12.5 -29q0 -15 -3 -30t-9 -27t-14 -19.5t-17 -7.5zM203 588q-9 0 -17 7.5t-14 19.5t-9.5 27t-3.5 30q0 23 13 29t31 6t30.5 -6t12.5 -29q0 -15 -3 -30t-9 -27
t-14 -19.5t-17 -7.5z" />
    <glyph glyph-name="eth" unicode="&#xf0;" horiz-adv-x="444" 
d="M154 670q-17 15 -34 30.5t-36 31.5l34 33q23 -17 45 -35t44 -37l108 46v-45l-75 -32q32 -31 60 -65.5t49 -73t33 -81t12 -89.5q0 -68 -13 -134t-36.5 -118t-55 -84t-67.5 -32t-67.5 32t-55 84t-36.5 118t-13 134q0 57 13.5 91t37 53t55 25t66.5 6q12 0 26 -2t27 -7l5 5
q-17 29 -40.5 57.5t-53.5 57.5l-107 -45v45zM222 26q19 0 36 28t29 74t19 105t7 120q0 43 -7 69.5t-19.5 41t-29 19t-35.5 4.5t-35.5 -4.5t-29 -19t-19.5 -41t-7 -69.5q0 -61 7 -120t19 -105t28.5 -74t36.5 -28z" />
    <glyph glyph-name="ntilde" unicode="&#xf1;" horiz-adv-x="464" 
d="M70 0zM259 486q-20 0 -38 -39.5t-32.5 -106.5t-24.5 -155t-13 -185h-81l10 516h36l19 -287q7 65 18 120t26.5 94.5t35.5 62t46 22.5q34 0 62 -37.5t48.5 -101.5t32 -150t11.5 -183v-28t-1 -28h-81q1 23 1 44.5v43.5q0 82 -5.5 154.5t-15 126.5t-23.5 85.5t-31 31.5z
M299 583q-16 0 -30.5 9t-27.5 20.5t-24.5 20.5t-21.5 9q-5 0 -10 -1.5t-9 -7.5t-6.5 -18t-2.5 -32l-58 16q3 32 10.5 53t17 33t22 17t26.5 5q18 0 32 -9t25.5 -20.5t22.5 -20.5t24 -9q5 0 10 1.5t9 7.5t6.5 18t2.5 32l58 -16q-3 -32 -10.5 -53t-17 -33t-22 -17t-26.5 -5z
" />
    <glyph glyph-name="ograve" unicode="&#xf2;" horiz-adv-x="444" 
d="M50 0zM222 26q19 0 36 28t29 74t19 105t7 120q0 43 -7 69.5t-19.5 41t-29 19t-35.5 4.5t-35.5 -4.5t-29 -19t-19.5 -41t-7 -69.5q0 -61 7 -120t19 -105t28.5 -74t36.5 -28zM222 -15q-36 0 -67.5 32t-55 84t-36.5 118t-13 134q0 57 13.5 91t37 53t55 25t66.5 6t66.5 -6
t55 -25t37 -53t13.5 -91q0 -68 -13 -134t-36.5 -118t-55 -84t-67.5 -32zM297 574q-11 0 -31.5 6t-42.5 14.5t-42 17.5t-30 15q-18 10 -18 24t11 30t25 16q9 0 19 -6q12 -7 32.5 -22t40.5 -31.5t34.5 -32t14.5 -23.5q0 -5 -5 -6.5t-8 -1.5z" />
    <glyph glyph-name="oacute" unicode="&#xf3;" horiz-adv-x="444" 
d="M50 0zM222 26q19 0 36 28t29 74t19 105t7 120q0 43 -7 69.5t-19.5 41t-29 19t-35.5 4.5t-35.5 -4.5t-29 -19t-19.5 -41t-7 -69.5q0 -61 7 -120t19 -105t28.5 -74t36.5 -28zM222 -15q-36 0 -67.5 32t-55 84t-36.5 118t-13 134q0 57 13.5 91t37 53t55 25t66.5 6t66.5 -6
t55 -25t37 -53t13.5 -91q0 -68 -13 -134t-36.5 -118t-55 -84t-67.5 -32zM151 574q-3 0 -8 1.5t-5 6.5q0 8 14.5 23.5t34.5 32t40.5 31.5t32.5 22q10 6 19 6q14 0 25 -16t11 -30t-18 -24q-10 -6 -30 -15t-42 -17.5t-42.5 -14.5t-31.5 -6z" />
    <glyph glyph-name="ocircumflex" unicode="&#xf4;" horiz-adv-x="444" 
d="M50 0zM222 26q19 0 36 28t29 74t19 105t7 120q0 43 -7 69.5t-19.5 41t-29 19t-35.5 4.5t-35.5 -4.5t-29 -19t-19.5 -41t-7 -69.5q0 -61 7 -120t19 -105t28.5 -74t36.5 -28zM222 -15q-36 0 -67.5 32t-55 84t-36.5 118t-13 134q0 57 13.5 91t37 53t55 25t66.5 6t66.5 -6
t55 -25t37 -53t13.5 -91q0 -68 -13 -134t-36.5 -118t-55 -84t-67.5 -32zM326 574q-8 0 -21 5.5t-27.5 13.5t-29.5 17t-26 17q-11 -8 -26 -17t-29.5 -17t-27.5 -13.5t-21 -5.5q-3 0 -8 1.5t-5 6.5q0 8 12.5 25t29 35.5t33.5 35t26 23.5q9 6 16 6q5 0 16 -6q9 -7 26 -23.5
t33.5 -35t29 -35.5t12.5 -25q0 -5 -5 -6.5t-8 -1.5z" />
    <glyph glyph-name="otilde" unicode="&#xf5;" horiz-adv-x="444" 
d="M50 0zM222 26q19 0 36 28t29 74t19 105t7 120q0 43 -7 69.5t-19.5 41t-29 19t-35.5 4.5t-35.5 -4.5t-29 -19t-19.5 -41t-7 -69.5q0 -61 7 -120t19 -105t28.5 -74t36.5 -28zM222 -15q-36 0 -67.5 32t-55 84t-36.5 118t-13 134q0 57 13.5 91t37 53t55 25t66.5 6t66.5 -6
t55 -25t37 -53t13.5 -91q0 -68 -13 -134t-36.5 -118t-55 -84t-67.5 -32zM279 583q-16 0 -30.5 9t-27.5 20.5t-24.5 20.5t-21.5 9q-5 0 -10 -1.5t-9 -7.5t-6.5 -18t-2.5 -32l-58 16q3 32 10.5 53t17 33t22 17t26.5 5q18 0 32 -9t25.5 -20.5t22.5 -20.5t24 -9q5 0 10 1.5
t9 7.5t6.5 18t2.5 32l58 -16q-3 -32 -10.5 -53t-17 -33t-22 -17t-26.5 -5z" />
    <glyph glyph-name="odieresis" unicode="&#xf6;" horiz-adv-x="444" 
d="M50 0zM222 26q19 0 36 28t29 74t19 105t7 120q0 43 -7 69.5t-19.5 41t-29 19t-35.5 4.5t-35.5 -4.5t-29 -19t-19.5 -41t-7 -69.5q0 -61 7 -120t19 -105t28.5 -74t36.5 -28zM222 -15q-36 0 -67.5 32t-55 84t-36.5 118t-13 134q0 57 13.5 91t37 53t55 25t66.5 6t66.5 -6
t55 -25t37 -53t13.5 -91q0 -68 -13 -134t-36.5 -118t-55 -84t-67.5 -32zM146 588q-9 0 -17 7.5t-14 19.5t-9.5 27t-3.5 30q0 23 13 29t31 6t30.5 -6t12.5 -29q0 -15 -3 -30t-9 -27t-14 -19.5t-17 -7.5zM298 588q-9 0 -17 7.5t-14 19.5t-9.5 27t-3.5 30q0 23 13 29t31 6
t30.5 -6t12.5 -29q0 -15 -3 -30t-9 -27t-14 -19.5t-17 -7.5z" />
    <glyph glyph-name="divide" unicode="&#xf7;" 
d="M209 479q0 22 15 37t37 15t37 -15t15 -37t-15 -37t-37 -15t-37 15t-15 37zM209 165q0 22 15 37t37 15t37 -15t15 -37t-15 -37t-37 -15t-37 15t-15 37zM70 297v50h380v-50h-380z" />
    <glyph glyph-name="oslash" unicode="&#xf8;" horiz-adv-x="444" 
d="M50 0zM222 26q19 0 36 28t29 74t19 105t7 120q0 43 -7 69.5t-19.5 41t-29 19t-35.5 4.5t-35.5 -4.5t-29 -19t-19.5 -41t-7 -69.5q0 -61 7 -120t19 -105t28.5 -74t36.5 -28zM222 -15q-36 0 -67.5 32t-55 84t-36.5 118t-13 134q0 57 13.5 91t37 53t55 25t66.5 6t66.5 -6
t55 -25t37 -53t13.5 -91q0 -68 -13 -134t-36.5 -118t-55 -84t-67.5 -32zM344 665l47 -17l-291 -799l-47 17z" />
    <glyph glyph-name="ugrave" unicode="&#xf9;" horiz-adv-x="492" 
d="M70 0zM246 -15q-50 0 -83.5 17.5t-54 46.5t-29.5 68t-9 82t5.5 87t13.5 85.5t17.5 78.5t17.5 66h81q-29 -83 -49 -170.5t-20 -184.5q0 -38 8.5 -63.5t23.5 -41.5t35 -23t43 -7t43 7t35 23t23.5 41.5t8.5 63.5q0 97 -20 184.5t-49 170.5h81q8 -29 17.5 -66t17.5 -78.5
t13.5 -85.5t5.5 -87t-9 -82t-29.5 -68t-54 -46.5t-83.5 -17.5zM312 574q-11 0 -31.5 6t-42.5 14.5t-42 17.5t-30 15q-18 10 -18 24t11 30t25 16q9 0 19 -6q12 -7 32.5 -22t40.5 -31.5t34.5 -32t14.5 -23.5q0 -5 -5 -6.5t-8 -1.5z" />
    <glyph glyph-name="uacute" unicode="&#xfa;" horiz-adv-x="492" 
d="M70 0zM246 -15q-50 0 -83.5 17.5t-54 46.5t-29.5 68t-9 82t5.5 87t13.5 85.5t17.5 78.5t17.5 66h81q-29 -83 -49 -170.5t-20 -184.5q0 -38 8.5 -63.5t23.5 -41.5t35 -23t43 -7t43 7t35 23t23.5 41.5t8.5 63.5q0 97 -20 184.5t-49 170.5h81q8 -29 17.5 -66t17.5 -78.5
t13.5 -85.5t5.5 -87t-9 -82t-29.5 -68t-54 -46.5t-83.5 -17.5zM191 574q-3 0 -8 1.5t-5 6.5q0 8 14.5 23.5t34.5 32t40.5 31.5t32.5 22q10 6 19 6q14 0 25 -16t11 -30t-18 -24q-10 -6 -30 -15t-42 -17.5t-42.5 -14.5t-31.5 -6z" />
    <glyph glyph-name="ucircumflex" unicode="&#xfb;" horiz-adv-x="492" 
d="M70 0zM246 -15q-50 0 -83.5 17.5t-54 46.5t-29.5 68t-9 82t5.5 87t13.5 85.5t17.5 78.5t17.5 66h81q-29 -83 -49 -170.5t-20 -184.5q0 -38 8.5 -63.5t23.5 -41.5t35 -23t43 -7t43 7t35 23t23.5 41.5t8.5 63.5q0 97 -20 184.5t-49 170.5h81q8 -29 17.5 -66t17.5 -78.5
t13.5 -85.5t5.5 -87t-9 -82t-29.5 -68t-54 -46.5t-83.5 -17.5zM350 574q-8 0 -21 5.5t-27.5 13.5t-29.5 17t-26 17q-11 -8 -26 -17t-29.5 -17t-27.5 -13.5t-21 -5.5q-3 0 -8 1.5t-5 6.5q0 8 12.5 25t29 35.5t33.5 35t26 23.5q9 6 16 6q5 0 16 -6q9 -7 26 -23.5t33.5 -35
t29 -35.5t12.5 -25q0 -5 -5 -6.5t-8 -1.5z" />
    <glyph glyph-name="udieresis" unicode="&#xfc;" horiz-adv-x="492" 
d="M70 0zM246 -15q-50 0 -83.5 17.5t-54 46.5t-29.5 68t-9 82t5.5 87t13.5 85.5t17.5 78.5t17.5 66h81q-29 -83 -49 -170.5t-20 -184.5q0 -38 8.5 -63.5t23.5 -41.5t35 -23t43 -7t43 7t35 23t23.5 41.5t8.5 63.5q0 97 -20 184.5t-49 170.5h81q8 -29 17.5 -66t17.5 -78.5
t13.5 -85.5t5.5 -87t-9 -82t-29.5 -68t-54 -46.5t-83.5 -17.5zM171 588q-9 0 -17 7.5t-14 19.5t-9.5 27t-3.5 30q0 23 13 29t31 6t30.5 -6t12.5 -29q0 -15 -3 -30t-9 -27t-14 -19.5t-17 -7.5zM323 588q-9 0 -17 7.5t-14 19.5t-9.5 27t-3.5 30q0 23 13 29t31 6t30.5 -6
t12.5 -29q0 -15 -3 -30t-9 -27t-14 -19.5t-17 -7.5z" />
    <glyph glyph-name="yacute" unicode="&#xfd;" horiz-adv-x="444" 
d="M50 0zM169 -204q33 58 60.5 117.5t48.5 118.5q-24 -32 -56 -32q-36 0 -67.5 41t-55 111t-36.5 164t-13 200h81q0 -97 7 -183t19 -150.5t28.5 -102.5t36.5 -38q26 0 44 28t29 77t15.5 116t4.5 145q0 26 -0.5 53t-1.5 55h81q0 -112 -13 -215t-35 -197.5t-51 -179
t-60 -158.5zM177 574q-3 0 -8 1.5t-5 6.5q0 8 14.5 23.5t34.5 32t40.5 31.5t32.5 22q10 6 19 6q14 0 25 -16t11 -30t-18 -24q-10 -6 -30 -15t-42 -17.5t-42.5 -14.5t-31.5 -6z" />
    <glyph glyph-name="thorn" unicode="&#xfe;" horiz-adv-x="464" 
d="M70 750h71l-3 -268q33 46 104 46q35 0 66.5 -6t55 -25t37 -53t13.5 -91q0 -68 -13 -134t-36.5 -118t-55 -84t-67.5 -32q-38 0 -64.5 34.5t-43.5 91.5l-3 -331h-51zM242 26q19 0 36 28t29 74t19 105t7 120q0 43 -7 69.5t-19.5 41t-29 19t-35.5 4.5t-36 -4.5t-30.5 -19
t-21.5 -41t-8 -69.5q0 -61 7.5 -120t21 -105t30.5 -74t37 -28z" />
    <glyph glyph-name="ydieresis" unicode="&#xff;" horiz-adv-x="444" 
d="M50 0zM169 -204q33 58 60.5 117.5t48.5 118.5q-24 -32 -56 -32q-36 0 -67.5 41t-55 111t-36.5 164t-13 200h81q0 -97 7 -183t19 -150.5t28.5 -102.5t36.5 -38q26 0 44 28t29 77t15.5 116t4.5 145q0 26 -0.5 53t-1.5 55h81q0 -112 -13 -215t-35 -197.5t-51 -179
t-60 -158.5zM146 588q-9 0 -17 7.5t-14 19.5t-9.5 27t-3.5 30q0 23 13 29t31 6t30.5 -6t12.5 -29q0 -15 -3 -30t-9 -27t-14 -19.5t-17 -7.5zM298 588q-9 0 -17 7.5t-14 19.5t-9.5 27t-3.5 30q0 23 13 29t31 6t30.5 -6t12.5 -29q0 -15 -3 -30t-9 -27t-14 -19.5t-17 -7.5z" />
    <glyph glyph-name="Amacron" unicode="&#x100;" horiz-adv-x="544" 
d="M60 0zM397 0q0 42 -1 81.5t-3 78.5h-241q-2 -39 -3 -78.5t-1 -81.5h-88q1 138 17.5 262.5t45 218.5t67 149t82.5 55q45 0 83 -55t66.5 -149t45 -218.5t17.5 -262.5h-87zM272 645q-21 0 -40 -33.5t-34 -92.5t-26 -139.5t-17 -174.5h235q-6 94 -17.5 174.5t-27 139.5
t-34 92.5t-39.5 33.5zM379 821q5 0 8.5 -9.5t3.5 -21.5t-3.5 -21.5t-8.5 -9.5h-214q-5 0 -8.5 9.5t-3.5 21.5t3.5 21.5t8.5 9.5h214z" />
    <glyph glyph-name="amacron" unicode="&#x101;" horiz-adv-x="435" 
d="M49 0zM213 531q36 0 67.5 -32.5t55 -85t36.5 -119t13 -134.5q0 -57 -13.5 -91t-37 -53t-55 -25t-66.5 -6t-65 5.5t-52 21.5t-34.5 44.5t-12.5 73.5q0 37 16 66t43 48.5t62.5 30t74.5 10.5q24 0 52 -5q-5 43 -13.5 81t-19.5 66.5t-24 45t-27 16.5q-19 0 -35.5 -37
t-16.5 -97l-81 21q11 46 25 76t31 47.5t36.5 24.5t40.5 7zM304 160q0 38 -3 76q-8 1 -15 1.5t-14 0.5q-29 0 -54.5 -6t-45 -19t-31 -33.5t-11.5 -49.5q0 -32 6 -52.5t17 -32t26 -15.5t34 -4t35.5 4.5t29 19t19.5 40.5t7 70zM324 671q5 0 8.5 -9.5t3.5 -21.5t-3.5 -21.5
t-8.5 -9.5h-214q-5 0 -8.5 9.5t-3.5 21.5t3.5 21.5t8.5 9.5h214z" />
    <glyph glyph-name="Abreve" unicode="&#x102;" horiz-adv-x="544" 
d="M60 0zM397 0q0 42 -1 81.5t-3 78.5h-241q-2 -39 -3 -78.5t-1 -81.5h-88q1 138 17.5 262.5t45 218.5t67 149t82.5 55q45 0 83 -55t66.5 -149t45 -218.5t17.5 -262.5h-87zM272 645q-21 0 -40 -33.5t-34 -92.5t-26 -139.5t-17 -174.5h235q-6 94 -17.5 174.5t-27 139.5
t-34 92.5t-39.5 33.5zM198 857q4 -11 9.5 -24t14 -24t20.5 -18t30 -7t30 7t20.5 18t14 24t9.5 24q1 0 8 -0.5t15 -1t14 -2t6 -4.5q0 -8 -5 -28.5t-18 -42t-36 -38t-58 -16.5q-38 0 -61 17t-35.5 38.5t-16.5 42t-4 27.5q0 3 6 4.5t14 2t14.5 1t8.5 0.5z" />
    <glyph glyph-name="abreve" unicode="&#x103;" horiz-adv-x="435" 
d="M49 0zM213 531q36 0 67.5 -32.5t55 -85t36.5 -119t13 -134.5q0 -57 -13.5 -91t-37 -53t-55 -25t-66.5 -6t-65 5.5t-52 21.5t-34.5 44.5t-12.5 73.5q0 37 16 66t43 48.5t62.5 30t74.5 10.5q24 0 52 -5q-5 43 -13.5 81t-19.5 66.5t-24 45t-27 16.5q-19 0 -35.5 -37
t-16.5 -97l-81 21q11 46 25 76t31 47.5t36.5 24.5t40.5 7zM304 160q0 38 -3 76q-8 1 -15 1.5t-14 0.5q-29 0 -54.5 -6t-45 -19t-31 -33.5t-11.5 -49.5q0 -32 6 -52.5t17 -32t26 -15.5t34 -4t35.5 4.5t29 19t19.5 40.5t7 70zM143 707q4 -11 9.5 -24t14 -24t20.5 -18t30 -7
t30 7t20.5 18t14 24t9.5 24q1 0 8 -0.5t15 -1t14 -2t6 -4.5q0 -8 -5 -28.5t-18 -42t-36 -38t-58 -16.5q-38 0 -61 17t-35.5 38.5t-16.5 42t-4 27.5q0 3 6 4.5t14 2t14.5 1t8.5 0.5z" />
    <glyph glyph-name="Aogonek" unicode="&#x104;" horiz-adv-x="544" 
d="M60 0zM397 0q0 42 -1 81.5t-3 78.5h-241q-2 -39 -3 -78.5t-1 -81.5h-88q1 138 17.5 262.5t45 218.5t67 149t82.5 55q45 0 83 -55t66.5 -149t45 -218.5t17.5 -262.5h-87zM272 645q-21 0 -40 -33.5t-34 -92.5t-26 -139.5t-17 -174.5h235q-6 94 -17.5 174.5t-27 139.5
t-34 92.5t-39.5 33.5zM461 10q-32 -29 -51 -61.5t-19 -70.5q0 -29 17 -45.5t40 -16.5q26 0 52.5 22.5t38.5 73.5l38 -15q-9 -36 -24.5 -61.5t-35 -41t-41 -22.5t-41.5 -7q-45 0 -76 26.5t-31 80.5q0 45 32 88t80 73z" />
    <glyph glyph-name="aogonek" unicode="&#x105;" horiz-adv-x="435" 
d="M49 0zM213 531q36 0 67.5 -32.5t55 -85t36.5 -119t13 -134.5q0 -57 -13.5 -91t-37 -53t-55 -25t-66.5 -6t-65 5.5t-52 21.5t-34.5 44.5t-12.5 73.5q0 37 16 66t43 48.5t62.5 30t74.5 10.5q24 0 52 -5q-5 43 -13.5 81t-19.5 66.5t-24 45t-27 16.5q-19 0 -35.5 -37
t-16.5 -97l-81 21q11 46 25 76t31 47.5t36.5 24.5t40.5 7zM304 160q0 38 -3 76q-8 1 -15 1.5t-14 0.5q-29 0 -54.5 -6t-45 -19t-31 -33.5t-11.5 -49.5q0 -32 6 -52.5t17 -32t26 -15.5t34 -4t35.5 4.5t29 19t19.5 40.5t7 70zM326 10q-32 -29 -51 -61.5t-19 -70.5
q0 -29 17 -45.5t40 -16.5q26 0 52.5 22.5t38.5 73.5l38 -15q-9 -36 -24.5 -61.5t-35 -41t-41 -22.5t-41.5 -7q-45 0 -76 26.5t-31 80.5q0 45 32 88t80 73z" />
    <glyph glyph-name="Cacute" unicode="&#x106;" horiz-adv-x="503" 
d="M60 0zM420 174q-14 -42 -31 -76.5t-37.5 -59.5t-43 -39t-46.5 -14q-42 0 -79 41t-64 108t-43 152.5t-16 175.5q0 73 16 117t43.5 67.5t64.5 31t78 7.5q39 0 73.5 -6.5t61.5 -26t44 -55.5t22 -96l-86 -24q-1 55 -10.5 88.5t-25 51t-36 23t-43.5 5.5t-44 -6t-36.5 -25
t-24.5 -55t-9 -97q0 -83 8.5 -161.5t24 -140t36.5 -98.5t45 -37q28 0 50.5 45.5t38.5 117.5zM177 724q-3 0 -8 1.5t-5 6.5q0 8 14.5 23.5t34.5 32t40.5 31.5t32.5 22q10 6 19 6q14 0 25 -16t11 -30t-18 -24q-10 -6 -30 -15t-42 -17.5t-42.5 -14.5t-31.5 -6z" />
    <glyph glyph-name="cacute" unicode="&#x107;" horiz-adv-x="425" 
d="M50 0zM303 356q0 43 -7 69.5t-18.5 41t-27 19t-33.5 4.5t-33.5 -4.5t-27 -19t-18.5 -41t-7 -69.5q0 -61 6.5 -120t18 -105.5t27 -75t33.5 -28.5q17 0 31.5 34.5t25.5 93.5l71 -13q-23 -72 -58.5 -114.5t-70.5 -42.5t-65 32.5t-52.5 85t-35 119t-12.5 134.5q0 57 13 91
t35.5 53t52.5 25t64 6t64.5 -6t54 -22.5t37 -47t13.5 -79.5zM138 574q-3 0 -8 1.5t-5 6.5q0 8 14.5 23.5t34.5 32t40.5 31.5t32.5 22q10 6 19 6q14 0 25 -16t11 -30t-18 -24q-10 -6 -30 -15t-42 -17.5t-42.5 -14.5t-31.5 -6z" />
    <glyph glyph-name="Ccircumflex" unicode="&#x108;" horiz-adv-x="503" 
d="M60 0zM420 174q-14 -42 -31 -76.5t-37.5 -59.5t-43 -39t-46.5 -14q-42 0 -79 41t-64 108t-43 152.5t-16 175.5q0 73 16 117t43.5 67.5t64.5 31t78 7.5q39 0 73.5 -6.5t61.5 -26t44 -55.5t22 -96l-86 -24q-1 55 -10.5 88.5t-25 51t-36 23t-43.5 5.5t-44 -6t-36.5 -25
t-24.5 -55t-9 -97q0 -83 8.5 -161.5t24 -140t36.5 -98.5t45 -37q28 0 50.5 45.5t38.5 117.5zM355 724q-8 0 -21 5.5t-27.5 13.5t-29.5 17t-26 17q-11 -8 -26 -17t-29.5 -17t-27.5 -13.5t-21 -5.5q-3 0 -8 1.5t-5 6.5q0 8 12.5 25t29 35.5t33.5 35t26 23.5q9 6 16 6
q5 0 16 -6q9 -7 26 -23.5t33.5 -35t29 -35.5t12.5 -25q0 -5 -5 -6.5t-8 -1.5z" />
    <glyph glyph-name="ccircumflex" unicode="&#x109;" horiz-adv-x="425" 
d="M50 0zM303 356q0 43 -7 69.5t-18.5 41t-27 19t-33.5 4.5t-33.5 -4.5t-27 -19t-18.5 -41t-7 -69.5q0 -61 6.5 -120t18 -105.5t27 -75t33.5 -28.5q17 0 31.5 34.5t25.5 93.5l71 -13q-23 -72 -58.5 -114.5t-70.5 -42.5t-65 32.5t-52.5 85t-35 119t-12.5 134.5q0 57 13 91
t35.5 53t52.5 25t64 6t64.5 -6t54 -22.5t37 -47t13.5 -79.5zM316 574q-8 0 -21 5.5t-27.5 13.5t-29.5 17t-26 17q-11 -8 -26 -17t-29.5 -17t-27.5 -13.5t-21 -5.5q-3 0 -8 1.5t-5 6.5q0 8 12.5 25t29 35.5t33.5 35t26 23.5q9 6 16 6q5 0 16 -6q9 -7 26 -23.5t33.5 -35
t29 -35.5t12.5 -25q0 -5 -5 -6.5t-8 -1.5z" />
    <glyph glyph-name="Cdotaccent" unicode="&#x10a;" horiz-adv-x="503" 
d="M60 0zM420 174q-14 -42 -31 -76.5t-37.5 -59.5t-43 -39t-46.5 -14q-42 0 -79 41t-64 108t-43 152.5t-16 175.5q0 73 16 117t43.5 67.5t64.5 31t78 7.5q39 0 73.5 -6.5t61.5 -26t44 -55.5t22 -96l-86 -24q-1 55 -10.5 88.5t-25 51t-36 23t-43.5 5.5t-44 -6t-36.5 -25
t-24.5 -55t-9 -97q0 -83 8.5 -161.5t24 -140t36.5 -98.5t45 -37q28 0 50.5 45.5t38.5 117.5zM252 735q-10 0 -18.5 7.5t-14.5 20t-9.5 28.5t-3.5 32q0 24 13.5 30.5t32.5 6.5t32 -6.5t13 -30.5q0 -16 -3.5 -32t-9.5 -28.5t-14 -20t-18 -7.5z" />
    <glyph glyph-name="cdotaccent" unicode="&#x10b;" horiz-adv-x="425" 
d="M50 0zM303 356q0 43 -7 69.5t-18.5 41t-27 19t-33.5 4.5t-33.5 -4.5t-27 -19t-18.5 -41t-7 -69.5q0 -61 6.5 -120t18 -105.5t27 -75t33.5 -28.5q17 0 31.5 34.5t25.5 93.5l71 -13q-23 -72 -58.5 -114.5t-70.5 -42.5t-65 32.5t-52.5 85t-35 119t-12.5 134.5q0 57 13 91
t35.5 53t52.5 25t64 6t64.5 -6t54 -22.5t37 -47t13.5 -79.5zM213 585q-10 0 -18.5 7.5t-14.5 20t-9.5 28.5t-3.5 32q0 24 13.5 30.5t32.5 6.5t32 -6.5t13 -30.5q0 -16 -3.5 -32t-9.5 -28.5t-14 -20t-18 -7.5z" />
    <glyph glyph-name="Ccaron" unicode="&#x10c;" horiz-adv-x="503" 
d="M60 0zM420 174q-14 -42 -31 -76.5t-37.5 -59.5t-43 -39t-46.5 -14q-42 0 -79 41t-64 108t-43 152.5t-16 175.5q0 73 16 117t43.5 67.5t64.5 31t78 7.5q39 0 73.5 -6.5t61.5 -26t44 -55.5t22 -96l-86 -24q-1 55 -10.5 88.5t-25 51t-36 23t-43.5 5.5t-44 -6t-36.5 -25
t-24.5 -55t-9 -97q0 -83 8.5 -161.5t24 -140t36.5 -98.5t45 -37q28 0 50.5 45.5t38.5 117.5zM147 857q8 0 21 -5.5t27.5 -13.5t29.5 -17.5t26 -16.5q11 7 26 16.5t29.5 17.5t27.5 13.5t21 5.5q3 0 8 -1.5t5 -6.5q0 -8 -12.5 -25t-29 -35.5t-33.5 -35t-26 -23.5q-9 -6 -16 -6
q-6 0 -16 6q-9 7 -26 23.5t-33.5 35t-29 35.5t-12.5 25q0 5 5 6.5t8 1.5z" />
    <glyph glyph-name="ccaron" unicode="&#x10d;" horiz-adv-x="425" 
d="M50 0zM303 356q0 43 -7 69.5t-18.5 41t-27 19t-33.5 4.5t-33.5 -4.5t-27 -19t-18.5 -41t-7 -69.5q0 -61 6.5 -120t18 -105.5t27 -75t33.5 -28.5q17 0 31.5 34.5t25.5 93.5l71 -13q-23 -72 -58.5 -114.5t-70.5 -42.5t-65 32.5t-52.5 85t-35 119t-12.5 134.5q0 57 13 91
t35.5 53t52.5 25t64 6t64.5 -6t54 -22.5t37 -47t13.5 -79.5zM108 707q8 0 21 -5.5t27.5 -13.5t29.5 -17.5t26 -16.5q11 7 26 16.5t29.5 17.5t27.5 13.5t21 5.5q3 0 8 -1.5t5 -6.5q0 -8 -12.5 -25t-29 -35.5t-33.5 -35t-26 -23.5q-9 -6 -16 -6q-6 0 -16 6q-9 7 -26 23.5
t-33.5 35t-29 35.5t-12.5 25q0 5 5 6.5t8 1.5z" />
    <glyph glyph-name="Dcaron" unicode="&#x10e;" horiz-adv-x="517" 
d="M80 0zM467 488q0 -56 -17.5 -121.5t-55.5 -131t-97.5 -127t-143.5 -108.5h-56l-17 670q76 15 140 15q121 0 184 -50.5t63 -146.5zM219 642q-12 0 -25 -1t-27 -3l-13 -587q60 38 102.5 90.5t69.5 111.5t40 119.5t13 114.5q0 75 -38.5 115t-121.5 40zM154 857q8 0 21 -5.5
t27.5 -13.5t29.5 -17.5t26 -16.5q11 7 26 16.5t29.5 17.5t27.5 13.5t21 5.5q3 0 8 -1.5t5 -6.5q0 -8 -12.5 -25t-29 -35.5t-33.5 -35t-26 -23.5q-9 -6 -16 -6q-6 0 -16 6q-9 7 -26 23.5t-33.5 35t-29 35.5t-12.5 25q0 5 5 6.5t8 1.5z" />
    <glyph glyph-name="dcaron" unicode="&#x10f;" horiz-adv-x="494" 
d="M50 0zM384 750q2 -148 4 -250t3 -168t1.5 -102t1 -53t0.5 -20.5v-4.5q0 -54 -14 -87t-37.5 -50.5t-55 -23.5t-65.5 -6q-35 0 -66.5 6t-55 25t-37 53t-13.5 91q0 68 13 134t36.5 118t55 84t67.5 32q37 0 62.5 -32.5t42.5 -85.5l6 340h51zM222 487q-20 0 -36.5 -28
t-28.5 -74t-19 -105t-7 -120q0 -44 7 -70t19.5 -40.5t29 -19t35.5 -4.5t36 4.5t30.5 19t21.5 40.5t8 70q0 61 -7.5 120t-21 105t-31 74t-36.5 28zM413 511q20 17 35 43t15 52q-14 10 -23 30.5t-9 49.5q0 28 15.5 35t37.5 7t37 -7t15 -35q0 -41 -10 -74t-25 -58t-32.5 -42.5
t-32.5 -27.5l-23 27v0z" />
    <glyph glyph-name="Dcroat" unicode="&#x110;" horiz-adv-x="517" 
d="M27 0zM467 488q0 -56 -17.5 -121.5t-55.5 -131t-97.5 -127t-143.5 -108.5h-56l-17 670q76 15 140 15q121 0 184 -50.5t63 -146.5zM219 642q-12 0 -25 -1t-27 -3l-13 -587q60 38 102.5 90.5t69.5 111.5t40 119.5t13 114.5q0 75 -38.5 115t-121.5 40zM295.796 367v-45
h-268.796v45h268.796z" />
    <glyph glyph-name="dcroat" unicode="&#x111;" horiz-adv-x="464" 
d="M50 0zM384 750q2 -148 4 -250t3 -168t1.5 -102t1 -53t0.5 -20.5v-4.5q0 -54 -14 -87t-37.5 -50.5t-55 -23.5t-65.5 -6q-35 0 -66.5 6t-55 25t-37 53t-13.5 91q0 68 13 134t36.5 118t55 84t67.5 32q37 0 62.5 -32.5t42.5 -85.5l6 340h51zM222 487q-20 0 -36.5 -28
t-28.5 -74t-19 -105t-7 -120q0 -44 7 -70t19.5 -40.5t29 -19t35.5 -4.5t36 4.5t30.5 19t21.5 40.5t8 70q0 61 -7.5 120t-21 105t-31 74t-36.5 28zM492.796 670v-45h-268.796v45h268.796z" />
    <glyph glyph-name="Emacron" unicode="&#x112;" horiz-adv-x="503" 
d="M60 0zM420 174q-14 -42 -31 -76.5t-37.5 -59.5t-43 -39t-46.5 -14q-42 0 -79 41t-64 108t-43 152.5t-16 175.5q0 73 16 117t43.5 67.5t64.5 31t78 7.5q39 0 73.5 -6.5t61.5 -26t44 -55.5t22 -96l-86 -24q-1 55 -10.5 88.5t-25 51t-36 23t-43.5 5.5t-44 -6t-36.5 -25
t-24.5 -55t-9 -97q0 -41 1.5 -80t6.5 -77h195v-45h-189q7 -50 17 -93t23 -74.5t28 -49.5t32 -18q28 0 50.5 45.5t38.5 117.5zM358 821q5 0 8.5 -9.5t3.5 -21.5t-3.5 -21.5t-8.5 -9.5h-214q-5 0 -8.5 9.5t-3.5 21.5t3.5 21.5t8.5 9.5h214z" />
    <glyph glyph-name="emacron" unicode="&#x113;" horiz-adv-x="472" 
d="M65 0zM407 386q0 -30 -10.5 -58.5t-32 -51.5t-54.5 -37t-78 -14q-18 0 -38 2.5t-41 7.5q5 -43 13.5 -81t19.5 -66t24 -44.5t27 -16.5q18 0 33.5 34.5t27.5 93.5l71 -13q-23 -72 -59.5 -114.5t-72.5 -42.5t-67.5 32.5t-55 85t-36.5 119t-13 134.5q0 57 13.5 91t37 53
t55 25t66.5 6t66 -7t54 -24t36.5 -44.5t13.5 -69.5zM146 356q0 -41 3 -78q17 -3 32 -4t29 -1q35 0 58 8.5t36 23.5t18 36t5 45q0 57 -26 80.5t-64 23.5q-19 0 -35.5 -4.5t-29 -19t-19.5 -41t-7 -69.5zM343 671q5 0 8.5 -9.5t3.5 -21.5t-3.5 -21.5t-8.5 -9.5h-214
q-5 0 -8.5 9.5t-3.5 21.5t3.5 21.5t8.5 9.5h214z" />
    <glyph glyph-name="Ebreve" unicode="&#x114;" horiz-adv-x="503" 
d="M60 0zM420 174q-14 -42 -31 -76.5t-37.5 -59.5t-43 -39t-46.5 -14q-42 0 -79 41t-64 108t-43 152.5t-16 175.5q0 73 16 117t43.5 67.5t64.5 31t78 7.5q39 0 73.5 -6.5t61.5 -26t44 -55.5t22 -96l-86 -24q-1 55 -10.5 88.5t-25 51t-36 23t-43.5 5.5t-44 -6t-36.5 -25
t-24.5 -55t-9 -97q0 -41 1.5 -80t6.5 -77h195v-45h-189q7 -50 17 -93t23 -74.5t28 -49.5t32 -18q28 0 50.5 45.5t38.5 117.5zM177 857q4 -11 9.5 -24t14 -24t20.5 -18t30 -7t30 7t20.5 18t14 24t9.5 24q1 0 8 -0.5t15 -1t14 -2t6 -4.5q0 -8 -5 -28.5t-18 -42t-36 -38
t-58 -16.5q-38 0 -61 17t-35.5 38.5t-16.5 42t-4 27.5q0 3 6 4.5t14 2t14.5 1t8.5 0.5z" />
    <glyph glyph-name="ebreve" unicode="&#x115;" horiz-adv-x="472" 
d="M65 0zM407 386q0 -30 -10.5 -58.5t-32 -51.5t-54.5 -37t-78 -14q-18 0 -38 2.5t-41 7.5q5 -43 13.5 -81t19.5 -66t24 -44.5t27 -16.5q18 0 33.5 34.5t27.5 93.5l71 -13q-23 -72 -59.5 -114.5t-72.5 -42.5t-67.5 32.5t-55 85t-36.5 119t-13 134.5q0 57 13.5 91t37 53
t55 25t66.5 6t66 -7t54 -24t36.5 -44.5t13.5 -69.5zM146 356q0 -41 3 -78q17 -3 32 -4t29 -1q35 0 58 8.5t36 23.5t18 36t5 45q0 57 -26 80.5t-64 23.5q-19 0 -35.5 -4.5t-29 -19t-19.5 -41t-7 -69.5zM162 707q4 -11 9.5 -24t14 -24t20.5 -18t30 -7t30 7t20.5 18t14 24
t9.5 24q1 0 8 -0.5t15 -1t14 -2t6 -4.5q0 -8 -5 -28.5t-18 -42t-36 -38t-58 -16.5q-38 0 -61 17t-35.5 38.5t-16.5 42t-4 27.5q0 3 6 4.5t14 2t14.5 1t8.5 0.5z" />
    <glyph glyph-name="Edotaccent" unicode="&#x116;" horiz-adv-x="503" 
d="M60 0zM420 174q-14 -42 -31 -76.5t-37.5 -59.5t-43 -39t-46.5 -14q-42 0 -79 41t-64 108t-43 152.5t-16 175.5q0 73 16 117t43.5 67.5t64.5 31t78 7.5q39 0 73.5 -6.5t61.5 -26t44 -55.5t22 -96l-86 -24q-1 55 -10.5 88.5t-25 51t-36 23t-43.5 5.5t-44 -6t-36.5 -25
t-24.5 -55t-9 -97q0 -41 1.5 -80t6.5 -77h195v-45h-189q7 -50 17 -93t23 -74.5t28 -49.5t32 -18q28 0 50.5 45.5t38.5 117.5zM252 735q-10 0 -18.5 7.5t-14.5 20t-9.5 28.5t-3.5 32q0 24 13.5 30.5t32.5 6.5t32 -6.5t13 -30.5q0 -16 -3.5 -32t-9.5 -28.5t-14 -20t-18 -7.5z
" />
    <glyph glyph-name="edotaccent" unicode="&#x117;" horiz-adv-x="472" 
d="M65 0zM407 386q0 -30 -10.5 -58.5t-32 -51.5t-54.5 -37t-78 -14q-18 0 -38 2.5t-41 7.5q5 -43 13.5 -81t19.5 -66t24 -44.5t27 -16.5q18 0 33.5 34.5t27.5 93.5l71 -13q-23 -72 -59.5 -114.5t-72.5 -42.5t-67.5 32.5t-55 85t-36.5 119t-13 134.5q0 57 13.5 91t37 53
t55 25t66.5 6t66 -7t54 -24t36.5 -44.5t13.5 -69.5zM146 356q0 -41 3 -78q17 -3 32 -4t29 -1q35 0 58 8.5t36 23.5t18 36t5 45q0 57 -26 80.5t-64 23.5q-19 0 -35.5 -4.5t-29 -19t-19.5 -41t-7 -69.5zM236 585q-10 0 -18.5 7.5t-14.5 20t-9.5 28.5t-3.5 32q0 24 13.5 30.5
t32.5 6.5t32 -6.5t13 -30.5q0 -16 -3.5 -32t-9.5 -28.5t-14 -20t-18 -7.5z" />
    <glyph glyph-name="Eogonek" unicode="&#x118;" horiz-adv-x="503" 
d="M60 0zM420 174q-14 -42 -31 -76.5t-37.5 -59.5t-43 -39t-46.5 -14q-42 0 -79 41t-64 108t-43 152.5t-16 175.5q0 73 16 117t43.5 67.5t64.5 31t78 7.5q39 0 73.5 -6.5t61.5 -26t44 -55.5t22 -96l-86 -24q-1 55 -10.5 88.5t-25 51t-36 23t-43.5 5.5t-44 -6t-36.5 -25
t-24.5 -55t-9 -97q0 -41 1.5 -80t6.5 -77h195v-45h-189q7 -50 17 -93t23 -74.5t28 -49.5t32 -18q28 0 50.5 45.5t38.5 117.5zM324 10q-32 -29 -51 -61.5t-19 -70.5q0 -29 17 -45.5t40 -16.5q26 0 52.5 22.5t38.5 73.5l38 -15q-9 -36 -24.5 -61.5t-35 -41t-41 -22.5t-41.5 -7
q-45 0 -76 26.5t-31 80.5q0 45 32 88t80 73z" />
    <glyph glyph-name="eogonek" unicode="&#x119;" horiz-adv-x="472" 
d="M65 0zM407 386q0 -30 -10.5 -58.5t-32 -51.5t-54.5 -37t-78 -14q-18 0 -38 2.5t-41 7.5q5 -43 13.5 -81t19.5 -66t24 -44.5t27 -16.5q18 0 33.5 34.5t27.5 93.5l71 -13q-23 -72 -59.5 -114.5t-72.5 -42.5t-67.5 32.5t-55 85t-36.5 119t-13 134.5q0 57 13.5 91t37 53
t55 25t66.5 6t66 -7t54 -24t36.5 -44.5t13.5 -69.5zM146 356q0 -41 3 -78q17 -3 32 -4t29 -1q35 0 58 8.5t36 23.5t18 36t5 45q0 57 -26 80.5t-64 23.5q-19 0 -35.5 -4.5t-29 -19t-19.5 -41t-7 -69.5zM292 10q-32 -29 -51 -61.5t-19 -70.5q0 -29 17 -45.5t40 -16.5
q26 0 52.5 22.5t38.5 73.5l38 -15q-9 -36 -24.5 -61.5t-35 -41t-41 -22.5t-41.5 -7q-45 0 -76 26.5t-31 80.5q0 45 32 88t80 73z" />
    <glyph glyph-name="Ecaron" unicode="&#x11a;" horiz-adv-x="503" 
d="M60 0zM420 174q-14 -42 -31 -76.5t-37.5 -59.5t-43 -39t-46.5 -14q-42 0 -79 41t-64 108t-43 152.5t-16 175.5q0 73 16 117t43.5 67.5t64.5 31t78 7.5q39 0 73.5 -6.5t61.5 -26t44 -55.5t22 -96l-86 -24q-1 55 -10.5 88.5t-25 51t-36 23t-43.5 5.5t-44 -6t-36.5 -25
t-24.5 -55t-9 -97q0 -41 1.5 -80t6.5 -77h195v-45h-189q7 -50 17 -93t23 -74.5t28 -49.5t32 -18q28 0 50.5 45.5t38.5 117.5zM147 857q8 0 21 -5.5t27.5 -13.5t29.5 -17.5t26 -16.5q11 7 26 16.5t29.5 17.5t27.5 13.5t21 5.5q3 0 8 -1.5t5 -6.5q0 -8 -12.5 -25t-29 -35.5
t-33.5 -35t-26 -23.5q-9 -6 -16 -6q-6 0 -16 6q-9 7 -26 23.5t-33.5 35t-29 35.5t-12.5 25q0 5 5 6.5t8 1.5z" />
    <glyph glyph-name="ecaron" unicode="&#x11b;" horiz-adv-x="472" 
d="M65 0zM407 386q0 -30 -10.5 -58.5t-32 -51.5t-54.5 -37t-78 -14q-18 0 -38 2.5t-41 7.5q5 -43 13.5 -81t19.5 -66t24 -44.5t27 -16.5q18 0 33.5 34.5t27.5 93.5l71 -13q-23 -72 -59.5 -114.5t-72.5 -42.5t-67.5 32.5t-55 85t-36.5 119t-13 134.5q0 57 13.5 91t37 53
t55 25t66.5 6t66 -7t54 -24t36.5 -44.5t13.5 -69.5zM146 356q0 -41 3 -78q17 -3 32 -4t29 -1q35 0 58 8.5t36 23.5t18 36t5 45q0 57 -26 80.5t-64 23.5q-19 0 -35.5 -4.5t-29 -19t-19.5 -41t-7 -69.5zM132 707q8 0 21 -5.5t27.5 -13.5t29.5 -17.5t26 -16.5q11 7 26 16.5
t29.5 17.5t27.5 13.5t21 5.5q3 0 8 -1.5t5 -6.5q0 -8 -12.5 -25t-29 -35.5t-33.5 -35t-26 -23.5q-9 -6 -16 -6q-6 0 -16 6q-9 7 -26 23.5t-33.5 35t-29 35.5t-12.5 25q0 5 5 6.5t8 1.5z" />
    <glyph glyph-name="Gcircumflex" unicode="&#x11c;" 
d="M60 0zM463 263q-13 -59 -32 -109.5t-44 -88t-54 -59t-61 -21.5q-44 0 -83 41t-67.5 108t-45 152.5t-16.5 175.5q0 73 17 117t46 67.5t67.5 31t81.5 7.5q41 0 78.5 -7t66 -27.5t45.5 -57.5t18 -97l-87 -23q-1 32 -4.5 63t-16 55t-36 39t-64.5 15q-25 0 -47.5 -6t-39.5 -25
t-27 -55t-10 -97q0 -83 9.5 -161.5t26 -140t39 -98.5t49.5 -37q16 0 31 14.5t28 40t24 61t19 77.5h-107v45h196zM364 724q-8 0 -21 5.5t-27.5 13.5t-29.5 17t-26 17q-11 -8 -26 -17t-29.5 -17t-27.5 -13.5t-21 -5.5q-3 0 -8 1.5t-5 6.5q0 8 12.5 25t29 35.5t33.5 35t26 23.5
q9 6 16 6q5 0 16 -6q9 -7 26 -23.5t33.5 -35t29 -35.5t12.5 -25q0 -5 -5 -6.5t-8 -1.5z" />
    <glyph glyph-name="gcircumflex" unicode="&#x11d;" horiz-adv-x="462" 
d="M232 135q-35 0 -64 20q-5 -16 -7 -28.5t-2 -25.5q0 -21 18.5 -34t46.5 -23t60.5 -19.5t60.5 -25.5t46.5 -40t18.5 -62q0 -65 -47.5 -98.5t-132.5 -33.5q-37 0 -70.5 5.5t-59.5 23t-42 49t-18 83.5l81 6q1 -41 10 -65.5t24 -38t34.5 -18t41.5 -4.5q50 0 75.5 25t25.5 66
q0 27 -16.5 43t-42 27t-54.5 19.5t-54.5 20.5t-42 29.5t-16.5 47.5q0 22 5.5 46.5t23.5 53.5q-35 38 -55 96.5t-20 120.5q0 41 13.5 66.5t37 39.5t55 19t66.5 5q67 0 119 8t105 22q0 -10 -2 -22.5t-6.5 -23.5t-14 -18.5t-24.5 -7.5h-17.5t-17.5 1q30 -30 30 -89
q0 -49 -13 -97t-36.5 -85.5t-55 -60.5t-67.5 -23zM232 176q19 0 36 19t29 50t19 71t7 81q0 29 -7 47.5t-19.5 28.5t-29 13.5t-35.5 3.5t-35.5 -3.5t-29 -13.5t-19.5 -28.5t-7 -47.5q0 -41 7 -81t19 -71t28.5 -50t36.5 -19zM335 574q-8 0 -21 5.5t-27.5 13.5t-29.5 17t-26 17
q-11 -8 -26 -17t-29.5 -17t-27.5 -13.5t-21 -5.5q-3 0 -8 1.5t-5 6.5q0 8 12.5 25t29 35.5t33.5 35t26 23.5q9 6 16 6q5 0 16 -6q9 -7 26 -23.5t33.5 -35t29 -35.5t12.5 -25q0 -5 -5 -6.5t-8 -1.5z" />
    <glyph glyph-name="Gbreve" unicode="&#x11e;" 
d="M60 0zM463 263q-13 -59 -32 -109.5t-44 -88t-54 -59t-61 -21.5q-44 0 -83 41t-67.5 108t-45 152.5t-16.5 175.5q0 73 17 117t46 67.5t67.5 31t81.5 7.5q41 0 78.5 -7t66 -27.5t45.5 -57.5t18 -97l-87 -23q-1 32 -4.5 63t-16 55t-36 39t-64.5 15q-25 0 -47.5 -6t-39.5 -25
t-27 -55t-10 -97q0 -83 9.5 -161.5t26 -140t39 -98.5t49.5 -37q16 0 31 14.5t28 40t24 61t19 77.5h-107v45h196zM186 857q4 -11 9.5 -24t14 -24t20.5 -18t30 -7t30 7t20.5 18t14 24t9.5 24q1 0 8 -0.5t15 -1t14 -2t6 -4.5q0 -8 -5 -28.5t-18 -42t-36 -38t-58 -16.5
q-38 0 -61 17t-35.5 38.5t-16.5 42t-4 27.5q0 3 6 4.5t14 2t14.5 1t8.5 0.5z" />
    <glyph glyph-name="gbreve" unicode="&#x11f;" horiz-adv-x="462" 
d="M232 135q-35 0 -64 20q-5 -16 -7 -28.5t-2 -25.5q0 -21 18.5 -34t46.5 -23t60.5 -19.5t60.5 -25.5t46.5 -40t18.5 -62q0 -65 -47.5 -98.5t-132.5 -33.5q-37 0 -70.5 5.5t-59.5 23t-42 49t-18 83.5l81 6q1 -41 10 -65.5t24 -38t34.5 -18t41.5 -4.5q50 0 75.5 25t25.5 66
q0 27 -16.5 43t-42 27t-54.5 19.5t-54.5 20.5t-42 29.5t-16.5 47.5q0 22 5.5 46.5t23.5 53.5q-35 38 -55 96.5t-20 120.5q0 41 13.5 66.5t37 39.5t55 19t66.5 5q67 0 119 8t105 22q0 -10 -2 -22.5t-6.5 -23.5t-14 -18.5t-24.5 -7.5h-17.5t-17.5 1q30 -30 30 -89
q0 -49 -13 -97t-36.5 -85.5t-55 -60.5t-67.5 -23zM232 176q19 0 36 19t29 50t19 71t7 81q0 29 -7 47.5t-19.5 28.5t-29 13.5t-35.5 3.5t-35.5 -3.5t-29 -13.5t-19.5 -28.5t-7 -47.5q0 -41 7 -81t19 -71t28.5 -50t36.5 -19zM157 707q4 -11 9.5 -24t14 -24t20.5 -18t30 -7
t30 7t20.5 18t14 24t9.5 24q1 0 8 -0.5t15 -1t14 -2t6 -4.5q0 -8 -5 -28.5t-18 -42t-36 -38t-58 -16.5q-38 0 -61 17t-35.5 38.5t-16.5 42t-4 27.5q0 3 6 4.5t14 2t14.5 1t8.5 0.5z" />
    <glyph glyph-name="Gdotaccent" unicode="&#x120;" 
d="M60 0zM463 263q-13 -59 -32 -109.5t-44 -88t-54 -59t-61 -21.5q-44 0 -83 41t-67.5 108t-45 152.5t-16.5 175.5q0 73 17 117t46 67.5t67.5 31t81.5 7.5q41 0 78.5 -7t66 -27.5t45.5 -57.5t18 -97l-87 -23q-1 32 -4.5 63t-16 55t-36 39t-64.5 15q-25 0 -47.5 -6t-39.5 -25
t-27 -55t-10 -97q0 -83 9.5 -161.5t26 -140t39 -98.5t49.5 -37q16 0 31 14.5t28 40t24 61t19 77.5h-107v45h196zM260 735q-10 0 -18.5 7.5t-14.5 20t-9.5 28.5t-3.5 32q0 24 13.5 30.5t32.5 6.5t32 -6.5t13 -30.5q0 -16 -3.5 -32t-9.5 -28.5t-14 -20t-18 -7.5z" />
    <glyph glyph-name="gdotaccent" unicode="&#x121;" horiz-adv-x="462" 
d="M232 135q36 0 67.5 23t55 60.5t36.5 85.5t13 97q0 59 -30 89q9 -1 17.5 -1h17.5q15 0 24.5 7.5t14 18.5t6.5 23.5t2 22.5q-53 -14 -105 -22t-119 -8q-35 0 -66.5 -5t-55 -19t-37 -39.5t-13.5 -66.5q0 -62 20 -120.5t55 -96.5q-18 -29 -23.5 -53.5t-5.5 -46.5
q0 -30 16.5 -47.5t42 -29.5t54.5 -20.5t54.5 -19.5t42 -27t16.5 -43q0 -41 -25.5 -66t-75.5 -25q-22 0 -41.5 4.5t-34.5 18t-24 38t-10 65.5l-81 -6q2 -52 18 -83.5t42 -49t59.5 -23t70.5 -5.5q85 0 132.5 33.5t47.5 98.5q0 38 -18.5 62t-46.5 40t-60.5 25.5t-60.5 19.5
t-46.5 23t-18.5 34q0 13 2 25.5t7 28.5q29 -20 64 -20zM232 176q-20 0 -36.5 19t-28.5 50t-19 71t-7 81q0 29 7 47.5t19.5 28.5t29 13.5t35.5 3.5t35.5 -3.5t29 -13.5t19.5 -28.5t7 -47.5q0 -41 -7 -81t-19 -71t-29 -50t-36 -19zM231 585q-10 0 -18.5 7.5t-14.5 20
t-9.5 28.5t-3.5 32q0 24 13.5 30.5t32.5 6.5t32 -6.5t13 -30.5q0 -16 -3.5 -32t-9.5 -28.5t-14 -20t-18 -7.5z" />
    <glyph glyph-name="uni0122" unicode="&#x122;" 
d="M60 0zM463 263q-13 -59 -32 -109.5t-44 -88t-54 -59t-61 -21.5q-44 0 -83 41t-67.5 108t-45 152.5t-16.5 175.5q0 73 17 117t46 67.5t67.5 31t81.5 7.5q41 0 78.5 -7t66 -27.5t45.5 -57.5t18 -97l-87 -23q-1 32 -4.5 63t-16 55t-36 39t-64.5 15q-25 0 -47.5 -6t-39.5 -25
t-27 -55t-10 -97q0 -83 9.5 -161.5t26 -140t39 -98.5t49.5 -37q16 0 31 14.5t28 40t24 61t19 77.5h-107v45h196zM199 -242q20 17 35 43t15 52q-14 8 -23 25.5t-9 41.5q0 23 15.5 29t37.5 6t37 -6t15 -29q0 -36 -10 -66t-25 -54t-32.5 -41.5t-32.5 -27.5l-23 27v0z" />
    <glyph glyph-name="uni0123" unicode="&#x123;" horiz-adv-x="462" 
d="M232 135q-35 0 -64 20q-5 -16 -7 -28.5t-2 -25.5q0 -21 18.5 -34t46.5 -23t60.5 -19.5t60.5 -25.5t46.5 -40t18.5 -62q0 -65 -47.5 -98.5t-132.5 -33.5q-37 0 -70.5 5.5t-59.5 23t-42 49t-18 83.5l81 6q1 -41 10 -65.5t24 -38t34.5 -18t41.5 -4.5q50 0 75.5 25t25.5 66
q0 27 -16.5 43t-42 27t-54.5 19.5t-54.5 20.5t-42 29.5t-16.5 47.5q0 22 5.5 46.5t23.5 53.5q-35 38 -55 96.5t-20 120.5q0 41 13.5 66.5t37 39.5t55 19t66.5 5q67 0 119 8t105 22q0 -10 -2 -22.5t-6.5 -23.5t-14 -18.5t-24.5 -7.5h-17.5t-17.5 1q30 -30 30 -89
q0 -49 -13 -97t-36.5 -85.5t-55 -60.5t-67.5 -23zM232 176q19 0 36 19t29 50t19 71t7 81q0 29 -7 47.5t-19.5 28.5t-29 13.5t-35.5 3.5t-35.5 -3.5t-29 -13.5t-19.5 -28.5t-7 -47.5q0 -41 7 -81t19 -71t28.5 -50t36.5 -19zM292 756q-20 -17 -35 -43t-15 -52q14 -8 23 -25.5
t9 -41.5q0 -23 -15.5 -29t-37.5 -6t-37 6t-15 29q0 36 10 66t25 54t32.5 41.5t32.5 27.5z" />
    <glyph glyph-name="Hcircumflex" unicode="&#x124;" horiz-adv-x="569" 
d="M80 0zM400 260h-232v-260h-88l33 670h55v-365h232v365h55l34 -670h-88zM388 724q-8 0 -21 5.5t-27.5 13.5t-29.5 17t-26 17q-11 -8 -26 -17t-29.5 -17t-27.5 -13.5t-21 -5.5q-3 0 -8 1.5t-5 6.5q0 8 12.5 25t29 35.5t33.5 35t26 23.5q9 6 16 6q5 0 16 -6q9 -7 26 -23.5
t33.5 -35t29 -35.5t12.5 -25q0 -5 -5 -6.5t-8 -1.5z" />
    <glyph glyph-name="hcircumflex" unicode="&#x125;" horiz-adv-x="464" 
d="M0 0zM259 486q-20 0 -38 -39.5t-32.5 -106.5t-24.5 -155t-13 -185h-81l10 750h51l4 -521q7 65 18 120t26.5 94.5t35.5 62t46 22.5q34 0 62 -37.5t48.5 -101.5t32 -150t11.5 -183v-28t-1 -28h-81q1 23 1 44.5v43.5q0 82 -5.5 154.5t-15 126.5t-23.5 85.5t-31 31.5z
M211 774q-8 0 -21 5.5t-27.5 13.5t-29.5 17t-26 17q-11 -8 -26 -17t-29.5 -17t-27.5 -13.5t-21 -5.5q-3 0 -8 1.5t-5 6.5q0 8 12.5 25t29 35.5t33.5 35t26 23.5q9 6 16 6q5 0 16 -6q9 -7 26 -23.5t33.5 -35t29 -35.5t12.5 -25q0 -5 -5 -6.5t-8 -1.5z" />
    <glyph glyph-name="Hbar" unicode="&#x126;" horiz-adv-x="569" 
d="M32 0zM400 260h-232v-260h-88l33 670h55v-365h232v365h55l34 -670h-88zM536 516v-45h-504v45h504z" />
    <glyph glyph-name="hbar" unicode="&#x127;" horiz-adv-x="464" 
d="M0 0zM259 486q-20 0 -38 -39.5t-32.5 -106.5t-24.5 -155t-13 -185h-81l10 750h51l4 -521q7 65 18 120t26.5 94.5t35.5 62t46 22.5q34 0 62 -37.5t48.5 -101.5t32 -150t11.5 -183v-28t-1 -28h-81q1 23 1 44.5v43.5q0 82 -5.5 154.5t-15 126.5t-23.5 85.5t-31 31.5z
M242.796 671v-45h-268.796v45h268.796z" />
    <glyph glyph-name="Itilde" unicode="&#x128;" horiz-adv-x="248" 
d="M0 0zM97 670h56l15 -670h-88zM182 733q-16 0 -30.5 9t-27.5 20.5t-24.5 20.5t-21.5 9q-5 0 -10 -1.5t-9 -7.5t-6.5 -18t-2.5 -32l-58 16q3 32 10.5 53t17 33t22 17t26.5 5q18 0 32 -9t25.5 -20.5t22.5 -20.5t24 -9q5 0 10 1.5t9 7.5t6.5 18t2.5 32l58 -16
q-3 -32 -10.5 -53t-17 -33t-22 -17t-26.5 -5z" />
    <glyph glyph-name="itilde" unicode="&#x129;" horiz-adv-x="251" 
d="M0 0zM88 516h78l-11 -516h-56zM184 583q-16 0 -30.5 9t-27.5 20.5t-24.5 20.5t-21.5 9q-5 0 -10 -1.5t-9 -7.5t-6.5 -18t-2.5 -32l-58 16q3 32 10.5 53t17 33t22 17t26.5 5q18 0 32 -9t25.5 -20.5t22.5 -20.5t24 -9q5 0 10 1.5t9 7.5t6.5 18t2.5 32l58 -16
q-3 -32 -10.5 -53t-17 -33t-22 -17t-26.5 -5z" />
    <glyph glyph-name="Imacron" unicode="&#x12a;" horiz-adv-x="248" 
d="M6 0zM97 670h56l15 -670h-88zM232 821q5 0 8.5 -9.5t3.5 -21.5t-3.5 -21.5t-8.5 -9.5h-214q-5 0 -8.5 9.5t-3.5 21.5t3.5 21.5t8.5 9.5h214z" />
    <glyph glyph-name="imacron" unicode="&#x12b;" horiz-adv-x="251" 
d="M8 0zM88 516h78l-11 -516h-56zM234 671q5 0 8.5 -9.5t3.5 -21.5t-3.5 -21.5t-8.5 -9.5h-214q-5 0 -8.5 9.5t-3.5 21.5t3.5 21.5t8.5 9.5h214z" />
    <glyph glyph-name="Iogonek" unicode="&#x12e;" horiz-adv-x="248" 
d="M12 0zM97 670h56l15 -670h-88zM145 10q-32 -29 -51 -61.5t-19 -70.5q0 -29 17 -45.5t40 -16.5q26 0 52.5 22.5t38.5 73.5l38 -15q-9 -36 -24.5 -61.5t-35 -41t-41 -22.5t-41.5 -7q-45 0 -76 26.5t-31 80.5q0 45 32 88t80 73z" />
    <glyph glyph-name="iogonek" unicode="&#x12f;" horiz-adv-x="251" 
d="M22 0zM88 516h78l-11 -516h-56zM126 585q-10 0 -18.5 7.5t-14.5 20t-9.5 28.5t-3.5 32q0 24 13.5 30.5t32.5 6.5t32 -6.5t13 -30.5q0 -16 -3.5 -32t-9.5 -28.5t-14 -20t-18 -7.5zM155 10q-32 -29 -51 -61.5t-19 -70.5q0 -29 17 -45.5t40 -16.5q26 0 52.5 22.5t38.5 73.5
l38 -15q-9 -36 -24.5 -61.5t-35 -41t-41 -22.5t-41.5 -7q-45 0 -76 26.5t-31 80.5q0 45 32 88t80 73z" />
    <glyph glyph-name="Idotaccent" unicode="&#x130;" horiz-adv-x="248" 
d="M80 0zM97 670h56l15 -670h-88zM126 735q-10 0 -18.5 7.5t-14.5 20t-9.5 28.5t-3.5 32q0 24 13.5 30.5t32.5 6.5t32 -6.5t13 -30.5q0 -16 -3.5 -32t-9.5 -28.5t-14 -20t-18 -7.5z" />
    <glyph glyph-name="dotlessi" unicode="&#x131;" horiz-adv-x="251" 
d="M88 516h78l-11 -516h-56z" />
    <glyph glyph-name="IJ" unicode="&#x132;" horiz-adv-x="634" 
d="M80 0zM97 670h56l15 -670h-88zM319 207q-4 -14 -6 -33t-2 -36q0 -22 4.5 -42.5t15 -36t27 -25t40.5 -9.5q22 0 38.5 8.5t27.5 29.5t16 57t5 90v460h55q6 -122 10 -206.5t6.5 -139.5t4 -85.5t2 -45.5t0.5 -19v-5q0 -53 -13.5 -88.5t-36 -56.5t-52.5 -30t-63 -9
q-35 0 -66.5 7.5t-54.5 27t-36.5 53.5t-13.5 87q0 17 1.5 35t5.5 35z" />
    <glyph glyph-name="ij" unicode="&#x133;" horiz-adv-x="502" 
d="M80 0zM88 516h78l-11 -516h-56zM126 585q-10 0 -18.5 7.5t-14.5 20t-9.5 28.5t-3.5 32q0 24 13.5 30.5t32.5 6.5t32 -6.5t13 -30.5q0 -16 -3.5 -32t-9.5 -28.5t-14 -20t-18 -7.5zM377 585q-10 0 -18.5 7.5t-14.5 20t-9.5 28.5t-3.5 32q0 24 13.5 30.5t32.5 6.5t32 -6.5
t13 -30.5q0 -16 -3.5 -32t-9.5 -28.5t-14 -20t-18 -7.5zM262 -96q4 -45 15 -66t27 -21q13 0 21 18t12.5 50t6.5 76t2 95v16v26.5t-0.5 47.5t-1.5 78.5t-2 119.5t-3 172h78l-6 -371q-1 -80 -7.5 -149.5t-20.5 -120.5t-37.5 -80.5t-59.5 -29.5q-14 0 -30 5.5t-31 18.5
t-26.5 35t-15.5 56z" />
    <glyph glyph-name="Jcircumflex" unicode="&#x134;" horiz-adv-x="417" 
d="M10 0zM102 207q-4 -14 -6 -33t-2 -36q0 -22 4.5 -42.5t15 -36t27 -25t40.5 -9.5q22 0 38.5 8.5t27.5 29.5t16 57t5 90v460h55q6 -122 10 -206.5t6.5 -139.5t4 -85.5t2 -45.5t0.5 -19v-5q0 -53 -13.5 -88.5t-36 -56.5t-52.5 -30t-63 -9q-35 0 -66.5 7.5t-54.5 27
t-36.5 53.5t-13.5 87q0 17 1.5 35t5.5 35zM398 724q-8 0 -21 5.5t-27.5 13.5t-29.5 17t-26 17q-11 -8 -26 -17t-29.5 -17t-27.5 -13.5t-21 -5.5q-3 0 -8 1.5t-5 6.5q0 8 12.5 25t29 35.5t33.5 35t26 23.5q9 6 16 6q5 0 16 -6q9 -7 26 -23.5t33.5 -35t29 -35.5t12.5 -25
q0 -5 -5 -6.5t-8 -1.5z" />
    <glyph glyph-name="jcircumflex" unicode="&#x135;" horiz-adv-x="251" 
d="M0 0zM11 -96q4 -45 15 -66t27 -21q13 0 21 19t12.5 52.5t6 79t1.5 98.5v15v25t-0.5 45.5t-1 76.5t-2 118t-2.5 170h78l-6 -371q-2 -80 -8 -149.5t-20.5 -120.5t-37.5 -80.5t-59 -29.5q-14 0 -30 5.5t-31 18.5t-26.5 35t-15.5 56zM231 574q-8 0 -21 5.5t-27.5 13.5
t-29.5 17t-26 17q-11 -8 -26 -17t-29.5 -17t-27.5 -13.5t-21 -5.5q-3 0 -8 1.5t-5 6.5q0 8 12.5 25t29 35.5t33.5 35t26 23.5q9 6 16 6q5 0 16 -6q9 -7 26 -23.5t33.5 -35t29 -35.5t12.5 -25q0 -5 -5 -6.5t-8 -1.5z" />
    <glyph glyph-name="uni0136" unicode="&#x136;" horiz-adv-x="482" 
d="M80 0zM97 670h56l10 -469q85 109 131 222t58 247h89q-13 -127 -60 -229t-110 -182q28 -8 52.5 -30.5t42.5 -56t28 -77.5t10 -95h-81q0 53 -3.5 91.5t-12.5 65.5t-24.5 43.5t-38.5 24.5q-20 -23 -39.5 -44t-39.5 -39l3 -142h-88zM180 -242q20 17 35 43t15 52
q-14 8 -23 25.5t-9 41.5q0 23 15.5 29t37.5 6t37 -6t15 -29q0 -36 -10 -66t-25 -54t-32.5 -41.5t-32.5 -27.5l-23 27v0z" />
    <glyph glyph-name="uni0137" unicode="&#x137;" horiz-adv-x="464" 
d="M79 0zM92 750h49l9 -449q37 7 64.5 29t45.5 53t27 66t9 67h78q0 -33 -8.5 -67.5t-26.5 -65.5t-46.5 -57t-67.5 -41q48 -14 81.5 -40t55.5 -62.5t32 -82.5t10 -100h-81q0 55 -12.5 101t-35 80.5t-54 55.5t-70.5 27l6 -264h-78zM171 -242q20 17 35 43t15 52q-14 8 -23 25.5
t-9 41.5q0 23 15.5 29t37.5 6t37 -6t15 -29q0 -36 -10 -66t-25 -54t-32.5 -41.5t-32.5 -27.5l-23 27v0z" />
    <glyph glyph-name="kgreenlandic" unicode="&#x138;" horiz-adv-x="464" 
d="M92 516h49l6 -215q37 6 65 28t47 53t28 66t9 68h78q0 -33 -8.5 -67.5t-26.5 -65.5t-46.5 -57t-67.5 -41q48 -14 81.5 -40t55.5 -62.5t32 -82.5t10 -100h-81q0 56 -12.5 102.5t-35.5 80.5t-55 55t-72 26l9 -264h-78z" />
    <glyph glyph-name="Lacute" unicode="&#x139;" horiz-adv-x="393" 
d="M49 0zM97 670h56l14 -619l206 20v-71h-293zM62 724q-3 0 -8 1.5t-5 6.5q0 8 14.5 23.5t34.5 32t40.5 31.5t32.5 22q10 6 19 6q14 0 25 -16t11 -30t-18 -24q-10 -6 -30 -15t-42 -17.5t-42.5 -14.5t-31.5 -6z" />
    <glyph glyph-name="lacute" unicode="&#x13a;" horiz-adv-x="236" 
d="M31 0zM79 750h78l-11 -750h-56zM44 774q-3 0 -8 1.5t-5 6.5q0 8 14.5 23.5t34.5 32t40.5 31.5t32.5 22q10 6 19 6q14 0 25 -16t11 -30t-18 -24q-10 -6 -30 -15t-42 -17.5t-42.5 -14.5t-31.5 -6z" />
    <glyph glyph-name="uni013B" unicode="&#x13b;" horiz-adv-x="393" 
d="M80 0zM97 670h56l14 -619l206 20v-71h-293zM155 -242q20 17 35 43t15 52q-14 8 -23 25.5t-9 41.5q0 23 15.5 29t37.5 6t37 -6t15 -29q0 -36 -10 -66t-25 -54t-32.5 -41.5t-32.5 -27.5l-23 27v0z" />
    <glyph glyph-name="uni013C" unicode="&#x13c;" horiz-adv-x="236" 
d="M49 0zM79 750h78l-11 -750h-56zM49 -242q20 17 35 43t15 52q-14 8 -23 25.5t-9 41.5q0 23 15.5 29t37.5 6t37 -6t15 -29q0 -36 -10 -66t-25 -54t-32.5 -41.5t-32.5 -27.5l-23 27v0z" />
    <glyph glyph-name="Lcaron" unicode="&#x13d;" horiz-adv-x="393" 
d="M80 0zM97 670h56l14 -619l206 20v-71h-293zM210 511q20 17 35 43t15 52q-14 10 -23 30.5t-9 49.5q0 28 15.5 35t37.5 7t37 -7t15 -35q0 -41 -10 -74t-25 -58t-32.5 -42.5t-32.5 -27.5l-23 27v0z" />
    <glyph glyph-name="lcaron" unicode="&#x13e;" horiz-adv-x="266" 
d="M79 0zM79 750h78l-11 -750h-56zM185 511q20 17 35 43t15 52q-14 10 -23 30.5t-9 49.5q0 28 15.5 35t37.5 7t37 -7t15 -35q0 -41 -10 -74t-25 -58t-32.5 -42.5t-32.5 -27.5l-23 27v0z" />
    <glyph glyph-name="Ldot" unicode="&#x13f;" horiz-adv-x="393" 
d="M80 0zM97 670h56l14 -619l206 20v-71h-293zM301 235q-11 0 -21 8.5t-17 23t-11 32.5t-4 37q0 28 15.5 35t37.5 7t37 -7t15 -35q0 -19 -4 -37t-11 -32.5t-16.5 -23t-20.5 -8.5z" />
    <glyph glyph-name="ldot" unicode="&#x140;" horiz-adv-x="236" 
d="M79 0zM79 750h78l-11 -750h-56zM237 235q-11 0 -21 8.5t-17 23t-11 32.5t-4 37q0 28 15.5 35t37.5 7t37 -7t15 -35q0 -19 -4 -37t-11 -32.5t-16.5 -23t-20.5 -8.5z" />
    <glyph glyph-name="Lslash" unicode="&#x141;" horiz-adv-x="393" 
d="M7 0zM97 670h56l14 -619l206 20v-71h-293zM243 432v-45l-236 -100v45z" />
    <glyph glyph-name="lslash" unicode="&#x142;" horiz-adv-x="236" 
d="M0 0zM79 750h78l-11 -750h-56zM236 531v-45l-236 -100v45z" />
    <glyph glyph-name="Nacute" unicode="&#x143;" horiz-adv-x="576" 
d="M80 0zM97 670h56l7 -325q20 75 40.5 137.5t43.5 107.5t49 70t58 25q37 0 66.5 -39t50.5 -107t32 -161t11 -201q0 -43 -1.5 -87t-5.5 -90h-87q6 69 8.5 134.5t2.5 125.5q0 83 -5 153.5t-15.5 122t-25.5 80.5t-34 29q-23 0 -48.5 -39t-50.5 -107t-47 -159.5t-37 -196.5
l3 -143h-88zM217 724q-3 0 -8 1.5t-5 6.5q0 8 14.5 23.5t34.5 32t40.5 31.5t32.5 22q10 6 19 6q14 0 25 -16t11 -30t-18 -24q-10 -6 -30 -15t-42 -17.5t-42.5 -14.5t-31.5 -6z" />
    <glyph glyph-name="nacute" unicode="&#x144;" horiz-adv-x="464" 
d="M70 0zM259 486q-20 0 -38 -39.5t-32.5 -106.5t-24.5 -155t-13 -185h-81l10 516h36l19 -287q7 65 18 120t26.5 94.5t35.5 62t46 22.5q34 0 62 -37.5t48.5 -101.5t32 -150t11.5 -183v-28t-1 -28h-81q1 23 1 44.5v43.5q0 82 -5.5 154.5t-15 126.5t-23.5 85.5t-31 31.5z
M168 574q-3 0 -8 1.5t-5 6.5q0 8 14.5 23.5t34.5 32t40.5 31.5t32.5 22q10 6 19 6q14 0 25 -16t11 -30t-18 -24q-10 -6 -30 -15t-42 -17.5t-42.5 -14.5t-31.5 -6z" />
    <glyph glyph-name="uni0145" unicode="&#x145;" horiz-adv-x="576" 
d="M80 0zM97 670h56l7 -325q20 75 40.5 137.5t43.5 107.5t49 70t58 25q37 0 66.5 -39t50.5 -107t32 -161t11 -201q0 -43 -1.5 -87t-5.5 -90h-87q6 69 8.5 134.5t2.5 125.5q0 83 -5 153.5t-15.5 122t-25.5 80.5t-34 29q-23 0 -48.5 -39t-50.5 -107t-47 -159.5t-37 -196.5
l3 -143h-88zM231 -242q20 17 35 43t15 52q-14 8 -23 25.5t-9 41.5q0 23 15.5 29t37.5 6t37 -6t15 -29q0 -36 -10 -66t-25 -54t-32.5 -41.5t-32.5 -27.5l-23 27v0z" />
    <glyph glyph-name="uni0146" unicode="&#x146;" horiz-adv-x="464" 
d="M70 0zM259 486q-20 0 -38 -39.5t-32.5 -106.5t-24.5 -155t-13 -185h-81l10 516h36l19 -287q7 65 18 120t26.5 94.5t35.5 62t46 22.5q34 0 62 -37.5t48.5 -101.5t32 -150t11.5 -183v-28t-1 -28h-81q1 23 1 44.5v43.5q0 82 -5.5 154.5t-15 126.5t-23.5 85.5t-31 31.5z
M181 -242q20 17 35 43t15 52q-14 8 -23 25.5t-9 41.5q0 23 15.5 29t37.5 6t37 -6t15 -29q0 -36 -10 -66t-25 -54t-32.5 -41.5t-32.5 -27.5l-23 27v0z" />
    <glyph glyph-name="Ncaron" unicode="&#x147;" horiz-adv-x="576" 
d="M80 0zM97 670h56l7 -325q20 75 40.5 137.5t43.5 107.5t49 70t58 25q37 0 66.5 -39t50.5 -107t32 -161t11 -201q0 -43 -1.5 -87t-5.5 -90h-87q6 69 8.5 134.5t2.5 125.5q0 83 -5 153.5t-15.5 122t-25.5 80.5t-34 29q-23 0 -48.5 -39t-50.5 -107t-47 -159.5t-37 -196.5
l3 -143h-88zM188 857q8 0 21 -5.5t27.5 -13.5t29.5 -17.5t26 -16.5q11 7 26 16.5t29.5 17.5t27.5 13.5t21 5.5q3 0 8 -1.5t5 -6.5q0 -8 -12.5 -25t-29 -35.5t-33.5 -35t-26 -23.5q-9 -6 -16 -6q-6 0 -16 6q-9 7 -26 23.5t-33.5 35t-29 35.5t-12.5 25q0 5 5 6.5t8 1.5z" />
    <glyph glyph-name="ncaron" unicode="&#x148;" horiz-adv-x="464" 
d="M70 0zM259 486q-20 0 -38 -39.5t-32.5 -106.5t-24.5 -155t-13 -185h-81l10 516h36l19 -287q7 65 18 120t26.5 94.5t35.5 62t46 22.5q34 0 62 -37.5t48.5 -101.5t32 -150t11.5 -183v-28t-1 -28h-81q1 23 1 44.5v43.5q0 82 -5.5 154.5t-15 126.5t-23.5 85.5t-31 31.5z
M138 707q8 0 21 -5.5t27.5 -13.5t29.5 -17.5t26 -16.5q11 7 26 16.5t29.5 17.5t27.5 13.5t21 5.5q3 0 8 -1.5t5 -6.5q0 -8 -12.5 -25t-29 -35.5t-33.5 -35t-26 -23.5q-9 -6 -16 -6q-6 0 -16 6q-9 7 -26 23.5t-33.5 35t-29 35.5t-12.5 25q0 5 5 6.5t8 1.5z" />
    <glyph glyph-name="napostrophe" unicode="&#x149;" horiz-adv-x="464" 
d="M0 0zM259 486q-20 0 -38 -39.5t-32.5 -106.5t-24.5 -155t-13 -185h-81l10 516h36l19 -287q7 65 18 120t26.5 94.5t35.5 62t46 22.5q34 0 62 -37.5t48.5 -101.5t32 -150t11.5 -183v-28t-1 -28h-81q1 23 1 44.5v43.5q0 82 -5.5 154.5t-15 126.5t-23.5 85.5t-31 31.5z
M-41 488q20 17 35 43t15 52q-14 8 -23 25.5t-9 41.5q0 23 15.5 29t37.5 6t37 -6t15 -29q0 -36 -10 -66t-25 -54t-32.5 -41.5t-32.5 -27.5l-23 27v0z" />
    <glyph glyph-name="Omacron" unicode="&#x14c;" horiz-adv-x="544" 
d="M60 0zM272 25q27 0 50 37t39.5 98.5t26 140t9.5 161.5q0 61 -10 97t-27 55t-39.5 25t-48.5 6q-25 0 -47.5 -6t-39.5 -25t-27 -55t-10 -97q0 -83 9.5 -161.5t26 -140t39 -98.5t49.5 -37zM272 -15q-44 0 -83 41t-67.5 108t-45 152.5t-16.5 175.5q0 73 17 117t46 67.5
t67.5 31t81.5 7.5q44 0 82.5 -7.5t67.5 -31t45.5 -67.5t16.5 -117q0 -90 -16.5 -175.5t-45 -152.5t-67 -108t-83.5 -41zM379 821q5 0 8.5 -9.5t3.5 -21.5t-3.5 -21.5t-8.5 -9.5h-214q-5 0 -8.5 9.5t-3.5 21.5t3.5 21.5t8.5 9.5h214z" />
    <glyph glyph-name="omacron" unicode="&#x14d;" horiz-adv-x="444" 
d="M50 0zM222 26q19 0 36 28t29 74t19 105t7 120q0 43 -7 69.5t-19.5 41t-29 19t-35.5 4.5t-35.5 -4.5t-29 -19t-19.5 -41t-7 -69.5q0 -61 7 -120t19 -105t28.5 -74t36.5 -28zM222 -15q-36 0 -67.5 32t-55 84t-36.5 118t-13 134q0 57 13.5 91t37 53t55 25t66.5 6t66.5 -6
t55 -25t37 -53t13.5 -91q0 -68 -13 -134t-36.5 -118t-55 -84t-67.5 -32zM329 671q5 0 8.5 -9.5t3.5 -21.5t-3.5 -21.5t-8.5 -9.5h-214q-5 0 -8.5 9.5t-3.5 21.5t3.5 21.5t8.5 9.5h214z" />
    <glyph glyph-name="Obreve" unicode="&#x14e;" horiz-adv-x="544" 
d="M60 0zM272 25q27 0 50 37t39.5 98.5t26 140t9.5 161.5q0 61 -10 97t-27 55t-39.5 25t-48.5 6q-25 0 -47.5 -6t-39.5 -25t-27 -55t-10 -97q0 -83 9.5 -161.5t26 -140t39 -98.5t49.5 -37zM272 -15q-44 0 -83 41t-67.5 108t-45 152.5t-16.5 175.5q0 73 17 117t46 67.5
t67.5 31t81.5 7.5q44 0 82.5 -7.5t67.5 -31t45.5 -67.5t16.5 -117q0 -90 -16.5 -175.5t-45 -152.5t-67 -108t-83.5 -41zM198 857q4 -11 9.5 -24t14 -24t20.5 -18t30 -7t30 7t20.5 18t14 24t9.5 24q1 0 8 -0.5t15 -1t14 -2t6 -4.5q0 -8 -5 -28.5t-18 -42t-36 -38t-58 -16.5
q-38 0 -61 17t-35.5 38.5t-16.5 42t-4 27.5q0 3 6 4.5t14 2t14.5 1t8.5 0.5z" />
    <glyph glyph-name="obreve" unicode="&#x14f;" horiz-adv-x="444" 
d="M50 0zM222 26q19 0 36 28t29 74t19 105t7 120q0 43 -7 69.5t-19.5 41t-29 19t-35.5 4.5t-35.5 -4.5t-29 -19t-19.5 -41t-7 -69.5q0 -61 7 -120t19 -105t28.5 -74t36.5 -28zM222 -15q-36 0 -67.5 32t-55 84t-36.5 118t-13 134q0 57 13.5 91t37 53t55 25t66.5 6t66.5 -6
t55 -25t37 -53t13.5 -91q0 -68 -13 -134t-36.5 -118t-55 -84t-67.5 -32zM148 707q4 -11 9.5 -24t14 -24t20.5 -18t30 -7t30 7t20.5 18t14 24t9.5 24q1 0 8 -0.5t15 -1t14 -2t6 -4.5q0 -8 -5 -28.5t-18 -42t-36 -38t-58 -16.5q-38 0 -61 17t-35.5 38.5t-16.5 42t-4 27.5
q0 3 6 4.5t14 2t14.5 1t8.5 0.5z" />
    <glyph glyph-name="Ohungarumlaut" unicode="&#x150;" horiz-adv-x="544" 
d="M60 0zM272 25q27 0 50 37t39.5 98.5t26 140t9.5 161.5q0 61 -10 97t-27 55t-39.5 25t-48.5 6q-25 0 -47.5 -6t-39.5 -25t-27 -55t-10 -97q0 -83 9.5 -161.5t26 -140t39 -98.5t49.5 -37zM272 -15q-44 0 -83 41t-67.5 108t-45 152.5t-16.5 175.5q0 73 17 117t46 67.5
t67.5 31t81.5 7.5q44 0 82.5 -7.5t67.5 -31t45.5 -67.5t16.5 -117q0 -90 -16.5 -175.5t-45 -152.5t-67 -108t-83.5 -41zM184 724q-2 0 -6.5 1.5t-4.5 6.5q0 8 9 25t21.5 35.5t25 35t19.5 23.5q6 6 12 6q7 0 14.5 -4.5t13 -11.5t9 -15t3.5 -15q0 -6 -2.5 -12.5t-10.5 -11.5
q-7 -6 -21 -16.5t-29.5 -21t-30 -18t-22.5 -7.5zM314 724q-2 0 -6.5 1.5t-4.5 6.5q0 8 9 25t21.5 35.5t25 35t19.5 23.5q6 6 12 6q7 0 14.5 -4.5t13 -11.5t9 -15t3.5 -15q0 -6 -2.5 -12.5t-10.5 -11.5q-7 -6 -21 -16.5t-29.5 -21t-30 -18t-22.5 -7.5z" />
    <glyph glyph-name="ohungarumlaut" unicode="&#x151;" horiz-adv-x="444" 
d="M50 0zM222 26q19 0 36 28t29 74t19 105t7 120q0 43 -7 69.5t-19.5 41t-29 19t-35.5 4.5t-35.5 -4.5t-29 -19t-19.5 -41t-7 -69.5q0 -61 7 -120t19 -105t28.5 -74t36.5 -28zM222 -15q-36 0 -67.5 32t-55 84t-36.5 118t-13 134q0 57 13.5 91t37 53t55 25t66.5 6t66.5 -6
t55 -25t37 -53t13.5 -91q0 -68 -13 -134t-36.5 -118t-55 -84t-67.5 -32zM124 574q-2 0 -6.5 1.5t-4.5 6.5q0 8 9 25t21.5 35.5t25 35t19.5 23.5q6 6 12 6q7 0 14.5 -4.5t13 -11.5t9 -15t3.5 -15q0 -6 -2.5 -12.5t-10.5 -11.5q-7 -6 -21 -16.5t-29.5 -21t-30 -18t-22.5 -7.5z
M254 574q-2 0 -6.5 1.5t-4.5 6.5q0 8 9 25t21.5 35.5t25 35t19.5 23.5q6 6 12 6q7 0 14.5 -4.5t13 -11.5t9 -15t3.5 -15q0 -6 -2.5 -12.5t-10.5 -11.5q-7 -6 -21 -16.5t-29.5 -21t-30 -18t-22.5 -7.5z" />
    <glyph glyph-name="OE" unicode="&#x152;" horiz-adv-x="830" 
d="M747 174q-14 -42 -31 -76.5t-37.5 -59.5t-43 -39t-46.5 -14q-25 0 -47.5 17.5t-42 47.5t-35.5 69t-29 83q-14 -44 -31 -83t-37.5 -69t-44.5 -47.5t-50 -17.5q-44 0 -83 41t-67.5 108t-45 152.5t-16.5 175.5q0 73 17 117t46 67.5t67.5 31t81.5 7.5q52 0 93.5 -11t68.5 -47
q26 36 66 47t89 11q39 0 73.5 -6.5t61.5 -26t44 -55.5t22 -96l-86 -24q-1 55 -10.5 88.5t-25 51t-36 23t-43.5 5.5t-44 -6t-36.5 -25t-24.5 -55t-9 -97q0 -41 1.5 -80t6.5 -77h195v-45h-189q7 -50 17 -93t23 -74.5t28 -49.5t32 -18q28 0 50.5 45.5t38.5 117.5zM272 25
q26 0 49 35.5t40 96t26.5 139.5t9.5 166q0 61 -10 97t-27 55t-39.5 25t-48.5 6q-25 0 -47.5 -6t-39.5 -25t-27 -55t-10 -97q0 -83 9.5 -161.5t26 -140t39 -98.5t49.5 -37z" />
    <glyph glyph-name="oe" unicode="&#x153;" horiz-adv-x="720" 
d="M655 386q0 -30 -10.5 -58.5t-32 -51.5t-54.5 -37t-78 -14q-18 0 -38 2.5t-41 7.5q5 -43 13.5 -81t19.5 -66t24 -44.5t27 -16.5q18 0 33.5 34.5t27.5 93.5l71 -13q-23 -72 -59.5 -114.5t-72.5 -42.5q-20 0 -40 13.5t-37.5 36.5t-31.5 53.5t-22 64.5q-8 -35 -22 -65.5
t-32 -53t-38 -36t-40 -13.5q-36 0 -67.5 32t-55 84t-36.5 118t-13 134q0 57 13.5 91t37 53t55 25t66.5 6q38 0 72 -7.5t58 -31.5q23 26 58 34t75 8q35 0 66 -7t54 -24t36.5 -44.5t13.5 -69.5zM222 26q19 0 36 28t29 74t19 105t7 120q0 43 -7 69.5t-19.5 41t-29 19t-35.5 4.5
t-35.5 -4.5t-29 -19t-19.5 -41t-7 -69.5q0 -61 7 -120t19 -105t28.5 -74t36.5 -28zM394 356q0 -26 0.5 -44t2.5 -34q17 -3 32 -4t29 -1q35 0 58 8.5t36 23.5t18 36t5 45q0 57 -26 80.5t-64 23.5q-19 0 -35.5 -4.5t-29 -19t-19.5 -41t-7 -69.5z" />
    <glyph glyph-name="Racute" unicode="&#x154;" horiz-adv-x="492" 
d="M80 0zM80 670q66 15 121 15q116 0 178.5 -50.5t62.5 -146.5q0 -71 -43 -133t-112 -111q51 -21 84 -84.5t33 -159.5h-81q0 53 -3.5 90.5t-12.5 62.5t-24.5 39.5t-39.5 22.5q-20 -12 -41.5 -23.5t-44.5 -21.5l-4 -170h-56zM200 642q-8 0 -16 -0.5t-17 -1.5l-9 -424
q39 22 74.5 51t62.5 64t43 74.5t16 81.5q0 75 -37 115t-117 40zM172 724q-3 0 -8 1.5t-5 6.5q0 8 14.5 23.5t34.5 32t40.5 31.5t32.5 22q10 6 19 6q14 0 25 -16t11 -30t-18 -24q-10 -6 -30 -15t-42 -17.5t-42.5 -14.5t-31.5 -6z" />
    <glyph glyph-name="racute" unicode="&#x155;" horiz-adv-x="366" 
d="M70 0zM130 263q6 59 16 108.5t25 85t36 55t49 19.5q17 0 36.5 -7t36 -24.5t27 -47.5t10.5 -76l-81 -21q0 60 -12 97t-31 37q-20 0 -36.5 -40t-28.5 -107.5t-19 -156t-7 -185.5h-81l10 516h36zM109 574q-3 0 -8 1.5t-5 6.5q0 8 14.5 23.5t34.5 32t40.5 31.5t32.5 22
q10 6 19 6q14 0 25 -16t11 -30t-18 -24q-10 -6 -30 -15t-42 -17.5t-42.5 -14.5t-31.5 -6z" />
    <glyph glyph-name="uni0156" unicode="&#x156;" horiz-adv-x="492" 
d="M80 0zM80 670q66 15 121 15q116 0 178.5 -50.5t62.5 -146.5q0 -71 -43 -133t-112 -111q51 -21 84 -84.5t33 -159.5h-81q0 53 -3.5 90.5t-12.5 62.5t-24.5 39.5t-39.5 22.5q-20 -12 -41.5 -23.5t-44.5 -21.5l-4 -170h-56zM200 642q-8 0 -16 -0.5t-17 -1.5l-9 -424
q39 22 74.5 51t62.5 64t43 74.5t16 81.5q0 75 -37 115t-117 40zM185 -242q20 17 35 43t15 52q-14 8 -23 25.5t-9 41.5q0 23 15.5 29t37.5 6t37 -6t15 -29q0 -36 -10 -66t-25 -54t-32.5 -41.5t-32.5 -27.5l-23 27v0z" />
    <glyph glyph-name="uni0157" unicode="&#x157;" horiz-adv-x="366" 
d="M40 0zM130 263q6 59 16 108.5t25 85t36 55t49 19.5q17 0 36.5 -7t36 -24.5t27 -47.5t10.5 -76l-81 -21q0 60 -12 97t-31 37q-20 0 -36.5 -40t-28.5 -107.5t-19 -156t-7 -185.5h-81l10 516h36zM40 -242q20 17 35 43t15 52q-14 8 -23 25.5t-9 41.5q0 23 15.5 29t37.5 6
t37 -6t15 -29q0 -36 -10 -66t-25 -54t-32.5 -41.5t-32.5 -27.5l-23 27v0z" />
    <glyph glyph-name="Rcaron" unicode="&#x158;" horiz-adv-x="492" 
d="M80 0zM80 670q66 15 121 15q116 0 178.5 -50.5t62.5 -146.5q0 -71 -43 -133t-112 -111q51 -21 84 -84.5t33 -159.5h-81q0 53 -3.5 90.5t-12.5 62.5t-24.5 39.5t-39.5 22.5q-20 -12 -41.5 -23.5t-44.5 -21.5l-4 -170h-56zM200 642q-8 0 -16 -0.5t-17 -1.5l-9 -424
q39 22 74.5 51t62.5 64t43 74.5t16 81.5q0 75 -37 115t-117 40zM142 857q8 0 21 -5.5t27.5 -13.5t29.5 -17.5t26 -16.5q11 7 26 16.5t29.5 17.5t27.5 13.5t21 5.5q3 0 8 -1.5t5 -6.5q0 -8 -12.5 -25t-29 -35.5t-33.5 -35t-26 -23.5q-9 -6 -16 -6q-6 0 -16 6q-9 7 -26 23.5
t-33.5 35t-29 35.5t-12.5 25q0 5 5 6.5t8 1.5z" />
    <glyph glyph-name="rcaron" unicode="&#x159;" horiz-adv-x="366" 
d="M66 0zM130 263q6 59 16 108.5t25 85t36 55t49 19.5q17 0 36.5 -7t36 -24.5t27 -47.5t10.5 -76l-81 -21q0 60 -12 97t-31 37q-20 0 -36.5 -40t-28.5 -107.5t-19 -156t-7 -185.5h-81l10 516h36zM79 707q8 0 21 -5.5t27.5 -13.5t29.5 -17.5t26 -16.5q11 7 26 16.5t29.5 17.5
t27.5 13.5t21 5.5q3 0 8 -1.5t5 -6.5q0 -8 -12.5 -25t-29 -35.5t-33.5 -35t-26 -23.5q-9 -6 -16 -6q-6 0 -16 6q-9 7 -26 23.5t-33.5 35t-29 35.5t-12.5 25q0 5 5 6.5t8 1.5z" />
    <glyph glyph-name="Sacute" unicode="&#x15a;" horiz-adv-x="502" 
d="M44 0zM156 476q0 -34 22.5 -57t56 -43t72.5 -39t72.5 -44t56 -58.5t22.5 -82.5q0 -83 -48.5 -125t-150.5 -42q-41 0 -79 6.5t-67 27.5t-47.5 60t-21.5 103q22 2 45 4t43 4q2 -56 13 -89t28 -50t39.5 -21.5t46.5 -4.5q62 0 89 34.5t27 86.5q0 38 -22 64.5t-55 48t-71 40.5
t-71 42t-55 53t-22 73q0 37 14 75.5t38 70t55 52t65 20.5q24 0 47.5 -13.5t44.5 -37.5t38.5 -57.5t29.5 -73.5l-85 -25q-1 40 -8 71t-17.5 52.5t-23.5 32.5t-26 11q-20 0 -37 -16t-30 -41t-20.5 -55t-7.5 -57zM177 724q-3 0 -8 1.5t-5 6.5q0 8 14.5 23.5t34.5 32t40.5 31.5
t32.5 22q10 6 19 6q14 0 25 -16t11 -30t-18 -24q-10 -6 -30 -15t-42 -17.5t-42.5 -14.5t-31.5 -6z" />
    <glyph glyph-name="sacute" unicode="&#x15b;" horiz-adv-x="423" 
d="M48 0zM149 361q0 -30 17.5 -48t44 -31t57 -25t57 -29t44 -43t17.5 -68q0 -65 -44 -98.5t-122 -33.5q-34 0 -64.5 5.5t-54 23t-37.5 49t-16 83.5l81 6q1 -41 8.5 -65.5t19.5 -38t28.5 -18t34.5 -4.5q43 0 65 25t22 66q0 31 -17 50t-43 32t-55.5 24.5t-55.5 27t-43 39.5
t-17 64q0 28 11.5 59t31 56.5t45 42t53.5 16.5q42 0 78.5 -41.5t54.5 -110.5l-81 -21q0 60 -16.5 97t-35.5 37q-14 0 -26.5 -12.5t-21.5 -32t-14.5 -42t-5.5 -41.5zM137 574q-3 0 -8 1.5t-5 6.5q0 8 14.5 23.5t34.5 32t40.5 31.5t32.5 22q10 6 19 6q14 0 25 -16t11 -30
t-18 -24q-10 -6 -30 -15t-42 -17.5t-42.5 -14.5t-31.5 -6z" />
    <glyph glyph-name="Scircumflex" unicode="&#x15c;" horiz-adv-x="502" 
d="M44 0zM156 476q0 -34 22.5 -57t56 -43t72.5 -39t72.5 -44t56 -58.5t22.5 -82.5q0 -83 -48.5 -125t-150.5 -42q-41 0 -79 6.5t-67 27.5t-47.5 60t-21.5 103q22 2 45 4t43 4q2 -56 13 -89t28 -50t39.5 -21.5t46.5 -4.5q62 0 89 34.5t27 86.5q0 38 -22 64.5t-55 48t-71 40.5
t-71 42t-55 53t-22 73q0 37 14 75.5t38 70t55 52t65 20.5q24 0 47.5 -13.5t44.5 -37.5t38.5 -57.5t29.5 -73.5l-85 -25q-1 40 -8 71t-17.5 52.5t-23.5 32.5t-26 11q-20 0 -37 -16t-30 -41t-20.5 -55t-7.5 -57zM355 724q-8 0 -21 5.5t-27.5 13.5t-29.5 17t-26 17
q-11 -8 -26 -17t-29.5 -17t-27.5 -13.5t-21 -5.5q-3 0 -8 1.5t-5 6.5q0 8 12.5 25t29 35.5t33.5 35t26 23.5q9 6 16 6q5 0 16 -6q9 -7 26 -23.5t33.5 -35t29 -35.5t12.5 -25q0 -5 -5 -6.5t-8 -1.5z" />
    <glyph glyph-name="scircumflex" unicode="&#x15d;" horiz-adv-x="423" 
d="M48 0zM149 361q0 -30 17.5 -48t44 -31t57 -25t57 -29t44 -43t17.5 -68q0 -65 -44 -98.5t-122 -33.5q-34 0 -64.5 5.5t-54 23t-37.5 49t-16 83.5l81 6q1 -41 8.5 -65.5t19.5 -38t28.5 -18t34.5 -4.5q43 0 65 25t22 66q0 31 -17 50t-43 32t-55.5 24.5t-55.5 27t-43 39.5
t-17 64q0 28 11.5 59t31 56.5t45 42t53.5 16.5q42 0 78.5 -41.5t54.5 -110.5l-81 -21q0 60 -16.5 97t-35.5 37q-14 0 -26.5 -12.5t-21.5 -32t-14.5 -42t-5.5 -41.5zM315 574q-8 0 -21 5.5t-27.5 13.5t-29.5 17t-26 17q-11 -8 -26 -17t-29.5 -17t-27.5 -13.5t-21 -5.5
q-3 0 -8 1.5t-5 6.5q0 8 12.5 25t29 35.5t33.5 35t26 23.5q9 6 16 6q5 0 16 -6q9 -7 26 -23.5t33.5 -35t29 -35.5t12.5 -25q0 -5 -5 -6.5t-8 -1.5z" />
    <glyph glyph-name="Scedilla" unicode="&#x15e;" horiz-adv-x="502" 
d="M44 0zM156 476q0 -34 22.5 -57t56 -43t72.5 -39t72.5 -44t56 -58.5t22.5 -82.5q0 -83 -48.5 -125t-150.5 -42q-41 0 -79 6.5t-67 27.5t-47.5 60t-21.5 103q22 2 45 4t43 4q2 -56 13 -89t28 -50t39.5 -21.5t46.5 -4.5q62 0 89 34.5t27 86.5q0 38 -22 64.5t-55 48t-71 40.5
t-71 42t-55 53t-22 73q0 37 14 75.5t38 70t55 52t65 20.5q24 0 47.5 -13.5t44.5 -37.5t38.5 -57.5t29.5 -73.5l-85 -25q-1 40 -8 71t-17.5 52.5t-23.5 32.5t-26 11q-20 0 -37 -16t-30 -41t-20.5 -55t-7.5 -57zM272 23q43 -41 67.5 -80t24.5 -81q0 -45 -28.5 -71t-83.5 -26
q-23 0 -44 4t-36.5 13t-24.5 24.5t-9 38.5q0 20 8 42l55 -8q-2 -10 -3 -18.5t-1 -15.5q0 -26 16 -35.5t39 -9.5q30 0 42 18t12 44q0 37 -19 73t-51 70z" />
    <glyph glyph-name="scedilla" unicode="&#x15f;" horiz-adv-x="423" 
d="M48 0zM149 361q0 -30 17.5 -48t44 -31t57 -25t57 -29t44 -43t17.5 -68q0 -65 -44 -98.5t-122 -33.5q-34 0 -64.5 5.5t-54 23t-37.5 49t-16 83.5l81 6q1 -41 8.5 -65.5t19.5 -38t28.5 -18t34.5 -4.5q43 0 65 25t22 66q0 31 -17 50t-43 32t-55.5 24.5t-55.5 27t-43 39.5
t-17 64q0 28 11.5 59t31 56.5t45 42t53.5 16.5q42 0 78.5 -41.5t54.5 -110.5l-81 -21q0 60 -16.5 97t-35.5 37q-14 0 -26.5 -12.5t-21.5 -32t-14.5 -42t-5.5 -41.5zM232 23q43 -41 67.5 -80t24.5 -81q0 -45 -28.5 -71t-83.5 -26q-23 0 -44 4t-36.5 13t-24.5 24.5t-9 38.5
q0 20 8 42l55 -8q-2 -10 -3 -18.5t-1 -15.5q0 -26 16 -35.5t39 -9.5q30 0 42 18t12 44q0 37 -19 73t-51 70z" />
    <glyph glyph-name="Scaron" unicode="&#x160;" horiz-adv-x="502" 
d="M44 0zM156 476q0 -34 22.5 -57t56 -43t72.5 -39t72.5 -44t56 -58.5t22.5 -82.5q0 -83 -48.5 -125t-150.5 -42q-41 0 -79 6.5t-67 27.5t-47.5 60t-21.5 103q22 2 45 4t43 4q2 -56 13 -89t28 -50t39.5 -21.5t46.5 -4.5q62 0 89 34.5t27 86.5q0 38 -22 64.5t-55 48t-71 40.5
t-71 42t-55 53t-22 73q0 37 14 75.5t38 70t55 52t65 20.5q24 0 47.5 -13.5t44.5 -37.5t38.5 -57.5t29.5 -73.5l-85 -25q-1 40 -8 71t-17.5 52.5t-23.5 32.5t-26 11q-20 0 -37 -16t-30 -41t-20.5 -55t-7.5 -57zM147 857q8 0 21 -5.5t27.5 -13.5t29.5 -17.5t26 -16.5
q11 7 26 16.5t29.5 17.5t27.5 13.5t21 5.5q3 0 8 -1.5t5 -6.5q0 -8 -12.5 -25t-29 -35.5t-33.5 -35t-26 -23.5q-9 -6 -16 -6q-6 0 -16 6q-9 7 -26 23.5t-33.5 35t-29 35.5t-12.5 25q0 5 5 6.5t8 1.5z" />
    <glyph glyph-name="scaron" unicode="&#x161;" horiz-adv-x="423" 
d="M48 0zM149 361q0 -30 17.5 -48t44 -31t57 -25t57 -29t44 -43t17.5 -68q0 -65 -44 -98.5t-122 -33.5q-34 0 -64.5 5.5t-54 23t-37.5 49t-16 83.5l81 6q1 -41 8.5 -65.5t19.5 -38t28.5 -18t34.5 -4.5q43 0 65 25t22 66q0 31 -17 50t-43 32t-55.5 24.5t-55.5 27t-43 39.5
t-17 64q0 28 11.5 59t31 56.5t45 42t53.5 16.5q42 0 78.5 -41.5t54.5 -110.5l-81 -21q0 60 -16.5 97t-35.5 37q-14 0 -26.5 -12.5t-21.5 -32t-14.5 -42t-5.5 -41.5zM107 707q8 0 21 -5.5t27.5 -13.5t29.5 -17.5t26 -16.5q11 7 26 16.5t29.5 17.5t27.5 13.5t21 5.5
q3 0 8 -1.5t5 -6.5q0 -8 -12.5 -25t-29 -35.5t-33.5 -35t-26 -23.5q-9 -6 -16 -6q-6 0 -16 6q-9 7 -26 23.5t-33.5 35t-29 35.5t-12.5 25q0 5 5 6.5t8 1.5z" />
    <glyph glyph-name="uni0162" unicode="&#x162;" horiz-adv-x="433" 
d="M10 0zM187 616l-177 6v48h413v-61l-177 5l14 -614h-88zM237 23q43 -41 67.5 -80t24.5 -81q0 -45 -28.5 -71t-83.5 -26q-23 0 -44 4t-36.5 13t-24.5 24.5t-9 38.5q0 20 8 42l55 -8q-2 -10 -3 -18.5t-1 -15.5q0 -26 16 -35.5t39 -9.5q30 0 42 18t12 44q0 37 -19 73t-51 70z
" />
    <glyph glyph-name="uni0163" unicode="&#x163;" horiz-adv-x="353" 
d="M30 0zM220 -15q-31 0 -51 11.5t-31.5 37.5t-16 68t-4.5 103v36v41.5t0.5 42.5t1.5 40l4 99l-93 4v48h94l4 134h55l2 -134h111v-58l-110 4q1 -120 3 -202t6.5 -132.5t13 -73t23.5 -22.5q14 0 22.5 32t10.5 91l73 -13q-10 -72 -41.5 -114.5t-76.5 -42.5zM194 23
q43 -41 67.5 -80t24.5 -81q0 -45 -28.5 -71t-83.5 -26q-23 0 -44 4t-36.5 13t-24.5 24.5t-9 38.5q0 20 8 42l55 -8q-2 -10 -3 -18.5t-1 -15.5q0 -26 16 -35.5t39 -9.5q30 0 42 18t12 44q0 37 -19 73t-51 70z" />
    <glyph glyph-name="Tcaron" unicode="&#x164;" horiz-adv-x="433" 
d="M10 0zM187 616l-177 6v48h413v-61l-177 5l14 -614h-88zM112 857q8 0 21 -5.5t27.5 -13.5t29.5 -17.5t26 -16.5q11 7 26 16.5t29.5 17.5t27.5 13.5t21 5.5q3 0 8 -1.5t5 -6.5q0 -8 -12.5 -25t-29 -35.5t-33.5 -35t-26 -23.5q-9 -6 -16 -6q-6 0 -16 6q-9 7 -26 23.5
t-33.5 35t-29 35.5t-12.5 25q0 5 5 6.5t8 1.5z" />
    <glyph glyph-name="tcaron" unicode="&#x165;" horiz-adv-x="353" 
d="M30 0zM220 -15q-31 0 -51 11.5t-31.5 37.5t-16 68t-4.5 103v36v41.5t0.5 42.5t1.5 40l4 99l-93 4v48h94l4 134h55l2 -134h111v-58l-110 4q1 -120 3 -202t6.5 -132.5t13 -73t23.5 -22.5q14 0 22.5 32t10.5 91l73 -13q-10 -72 -41.5 -114.5t-76.5 -42.5zM317 511
q20 17 35 43t15 52q-14 10 -23 30.5t-9 49.5q0 28 15.5 35t37.5 7t37 -7t15 -35q0 -41 -10 -74t-25 -58t-32.5 -42.5t-32.5 -27.5l-23 27v0z" />
    <glyph glyph-name="Tbar" unicode="&#x166;" horiz-adv-x="433" 
d="M10 0zM187 616l-177 6v48h413v-61l-177 5l14 -614h-88zM385 431v-45h-336v45h336z" />
    <glyph glyph-name="tbar" unicode="&#x167;" horiz-adv-x="353" 
d="M0 0zM220 -15q-31 0 -51 11.5t-31.5 37.5t-16 68t-4.5 103v36v41.5t0.5 42.5t1.5 40l4 99l-93 4v48h94l4 134h55l2 -134h111v-58l-110 4q1 -120 3 -202t6.5 -132.5t13 -73t23.5 -22.5q14 0 22.5 32t10.5 91l73 -13q-10 -72 -41.5 -114.5t-76.5 -42.5zM327 332v-45h-336
v45h336z" />
    <glyph glyph-name="Utilde" unicode="&#x168;" horiz-adv-x="548" 
d="M60 0zM274 -15q-60 0 -101 22t-66 60t-36 88t-11 106q0 55 6.5 112t18 110t26 101t29.5 86h92q-24 -53 -42.5 -111.5t-31 -117t-19.5 -114t-7 -103.5q0 -97 38.5 -148t103.5 -51q64 0 103 51t39 148q0 48 -7 103.5t-19.5 114t-31 117t-42.5 111.5h92q15 -38 29.5 -86
t26 -101t18 -110t6.5 -112q0 -56 -11 -106t-36 -88t-66 -60t-101 -22zM331 733q-16 0 -30.5 9t-27.5 20.5t-24.5 20.5t-21.5 9q-5 0 -10 -1.5t-9 -7.5t-6.5 -18t-2.5 -32l-58 16q3 32 10.5 53t17 33t22 17t26.5 5q18 0 32 -9t25.5 -20.5t22.5 -20.5t24 -9q5 0 10 1.5t9 7.5
t6.5 18t2.5 32l58 -16q-3 -32 -10.5 -53t-17 -33t-22 -17t-26.5 -5z" />
    <glyph glyph-name="utilde" unicode="&#x169;" horiz-adv-x="492" 
d="M70 0zM246 -15q-50 0 -83.5 17.5t-54 46.5t-29.5 68t-9 82t5.5 87t13.5 85.5t17.5 78.5t17.5 66h81q-29 -83 -49 -170.5t-20 -184.5q0 -38 8.5 -63.5t23.5 -41.5t35 -23t43 -7t43 7t35 23t23.5 41.5t8.5 63.5q0 97 -20 184.5t-49 170.5h81q8 -29 17.5 -66t17.5 -78.5
t13.5 -85.5t5.5 -87t-9 -82t-29.5 -68t-54 -46.5t-83.5 -17.5zM303 583q-16 0 -30.5 9t-27.5 20.5t-24.5 20.5t-21.5 9q-5 0 -10 -1.5t-9 -7.5t-6.5 -18t-2.5 -32l-58 16q3 32 10.5 53t17 33t22 17t26.5 5q18 0 32 -9t25.5 -20.5t22.5 -20.5t24 -9q5 0 10 1.5t9 7.5t6.5 18
t2.5 32l58 -16q-3 -32 -10.5 -53t-17 -33t-22 -17t-26.5 -5z" />
    <glyph glyph-name="Umacron" unicode="&#x16a;" horiz-adv-x="548" 
d="M60 0zM274 -15q-60 0 -101 22t-66 60t-36 88t-11 106q0 55 6.5 112t18 110t26 101t29.5 86h92q-24 -53 -42.5 -111.5t-31 -117t-19.5 -114t-7 -103.5q0 -97 38.5 -148t103.5 -51q64 0 103 51t39 148q0 48 -7 103.5t-19.5 114t-31 117t-42.5 111.5h92q15 -38 29.5 -86
t26 -101t18 -110t6.5 -112q0 -56 -11 -106t-36 -88t-66 -60t-101 -22zM381 821q5 0 8.5 -9.5t3.5 -21.5t-3.5 -21.5t-8.5 -9.5h-214q-5 0 -8.5 9.5t-3.5 21.5t3.5 21.5t8.5 9.5h214z" />
    <glyph glyph-name="umacron" unicode="&#x16b;" horiz-adv-x="492" 
d="M70 0zM246 -15q-50 0 -83.5 17.5t-54 46.5t-29.5 68t-9 82t5.5 87t13.5 85.5t17.5 78.5t17.5 66h81q-29 -83 -49 -170.5t-20 -184.5q0 -38 8.5 -63.5t23.5 -41.5t35 -23t43 -7t43 7t35 23t23.5 41.5t8.5 63.5q0 97 -20 184.5t-49 170.5h81q8 -29 17.5 -66t17.5 -78.5
t13.5 -85.5t5.5 -87t-9 -82t-29.5 -68t-54 -46.5t-83.5 -17.5zM353 671q5 0 8.5 -9.5t3.5 -21.5t-3.5 -21.5t-8.5 -9.5h-214q-5 0 -8.5 9.5t-3.5 21.5t3.5 21.5t8.5 9.5h214z" />
    <glyph glyph-name="Ubreve" unicode="&#x16c;" horiz-adv-x="548" 
d="M60 0zM274 -15q-60 0 -101 22t-66 60t-36 88t-11 106q0 55 6.5 112t18 110t26 101t29.5 86h92q-24 -53 -42.5 -111.5t-31 -117t-19.5 -114t-7 -103.5q0 -97 38.5 -148t103.5 -51q64 0 103 51t39 148q0 48 -7 103.5t-19.5 114t-31 117t-42.5 111.5h92q15 -38 29.5 -86
t26 -101t18 -110t6.5 -112q0 -56 -11 -106t-36 -88t-66 -60t-101 -22zM200 857q4 -11 9.5 -24t14 -24t20.5 -18t30 -7t30 7t20.5 18t14 24t9.5 24q1 0 8 -0.5t15 -1t14 -2t6 -4.5q0 -8 -5 -28.5t-18 -42t-36 -38t-58 -16.5q-38 0 -61 17t-35.5 38.5t-16.5 42t-4 27.5
q0 3 6 4.5t14 2t14.5 1t8.5 0.5z" />
    <glyph glyph-name="ubreve" unicode="&#x16d;" horiz-adv-x="492" 
d="M70 0zM246 -15q-50 0 -83.5 17.5t-54 46.5t-29.5 68t-9 82t5.5 87t13.5 85.5t17.5 78.5t17.5 66h81q-29 -83 -49 -170.5t-20 -184.5q0 -38 8.5 -63.5t23.5 -41.5t35 -23t43 -7t43 7t35 23t23.5 41.5t8.5 63.5q0 97 -20 184.5t-49 170.5h81q8 -29 17.5 -66t17.5 -78.5
t13.5 -85.5t5.5 -87t-9 -82t-29.5 -68t-54 -46.5t-83.5 -17.5zM172 707q4 -11 9.5 -24t14 -24t20.5 -18t30 -7t30 7t20.5 18t14 24t9.5 24q1 0 8 -0.5t15 -1t14 -2t6 -4.5q0 -8 -5 -28.5t-18 -42t-36 -38t-58 -16.5q-38 0 -61 17t-35.5 38.5t-16.5 42t-4 27.5q0 3 6 4.5
t14 2t14.5 1t8.5 0.5z" />
    <glyph glyph-name="Uring" unicode="&#x16e;" horiz-adv-x="548" 
d="M60 0zM274 -15q-60 0 -101 22t-66 60t-36 88t-11 106q0 55 6.5 112t18 110t26 101t29.5 86h92q-24 -53 -42.5 -111.5t-31 -117t-19.5 -114t-7 -103.5q0 -97 38.5 -148t103.5 -51q64 0 103 51t39 148q0 48 -7 103.5t-19.5 114t-31 117t-42.5 111.5h92q15 -38 29.5 -86
t26 -101t18 -110t6.5 -112q0 -56 -11 -106t-36 -88t-66 -60t-101 -22zM275 720q-17 0 -31.5 9t-25.5 24t-17.5 34t-6.5 39q0 29 24 37t57 8t56 -8t23 -37q0 -20 -6 -39t-16.5 -34t-25 -24t-31.5 -9zM275 760q13 0 21.5 17t8.5 32q0 12 -8.5 17t-21.5 5q-14 0 -23 -5t-9 -17
q0 -15 9 -32t23 -17z" />
    <glyph glyph-name="uring" unicode="&#x16f;" horiz-adv-x="492" 
d="M70 0zM246 -15q-50 0 -83.5 17.5t-54 46.5t-29.5 68t-9 82t5.5 87t13.5 85.5t17.5 78.5t17.5 66h81q-29 -83 -49 -170.5t-20 -184.5q0 -38 8.5 -63.5t23.5 -41.5t35 -23t43 -7t43 7t35 23t23.5 41.5t8.5 63.5q0 97 -20 184.5t-49 170.5h81q8 -29 17.5 -66t17.5 -78.5
t13.5 -85.5t5.5 -87t-9 -82t-29.5 -68t-54 -46.5t-83.5 -17.5zM247 570q-17 0 -31.5 9t-25.5 24t-17.5 34t-6.5 39q0 29 24 37t57 8t56 -8t23 -37q0 -20 -6 -39t-16.5 -34t-25 -24t-31.5 -9zM247 610q13 0 21.5 17t8.5 32q0 12 -8.5 17t-21.5 5q-14 0 -23 -5t-9 -17
q0 -15 9 -32t23 -17z" />
    <glyph glyph-name="Uhungarumlaut" unicode="&#x170;" horiz-adv-x="548" 
d="M60 0zM274 -15q-60 0 -101 22t-66 60t-36 88t-11 106q0 55 6.5 112t18 110t26 101t29.5 86h92q-24 -53 -42.5 -111.5t-31 -117t-19.5 -114t-7 -103.5q0 -97 38.5 -148t103.5 -51q64 0 103 51t39 148q0 48 -7 103.5t-19.5 114t-31 117t-42.5 111.5h92q15 -38 29.5 -86
t26 -101t18 -110t6.5 -112q0 -56 -11 -106t-36 -88t-66 -60t-101 -22zM186 724q-2 0 -6.5 1.5t-4.5 6.5q0 8 9 25t21.5 35.5t25 35t19.5 23.5q6 6 12 6q7 0 14.5 -4.5t13 -11.5t9 -15t3.5 -15q0 -6 -2.5 -12.5t-10.5 -11.5q-7 -6 -21 -16.5t-29.5 -21t-30 -18t-22.5 -7.5z
M316 724q-2 0 -6.5 1.5t-4.5 6.5q0 8 9 25t21.5 35.5t25 35t19.5 23.5q6 6 12 6q7 0 14.5 -4.5t13 -11.5t9 -15t3.5 -15q0 -6 -2.5 -12.5t-10.5 -11.5q-7 -6 -21 -16.5t-29.5 -21t-30 -18t-22.5 -7.5z" />
    <glyph glyph-name="uhungarumlaut" unicode="&#x171;" horiz-adv-x="492" 
d="M70 0zM246 -15q-50 0 -83.5 17.5t-54 46.5t-29.5 68t-9 82t5.5 87t13.5 85.5t17.5 78.5t17.5 66h81q-29 -83 -49 -170.5t-20 -184.5q0 -38 8.5 -63.5t23.5 -41.5t35 -23t43 -7t43 7t35 23t23.5 41.5t8.5 63.5q0 97 -20 184.5t-49 170.5h81q8 -29 17.5 -66t17.5 -78.5
t13.5 -85.5t5.5 -87t-9 -82t-29.5 -68t-54 -46.5t-83.5 -17.5zM148 574q-2 0 -6.5 1.5t-4.5 6.5q0 8 9 25t21.5 35.5t25 35t19.5 23.5q6 6 12 6q7 0 14.5 -4.5t13 -11.5t9 -15t3.5 -15q0 -6 -2.5 -12.5t-10.5 -11.5q-7 -6 -21 -16.5t-29.5 -21t-30 -18t-22.5 -7.5zM278 574
q-2 0 -6.5 1.5t-4.5 6.5q0 8 9 25t21.5 35.5t25 35t19.5 23.5q6 6 12 6q7 0 14.5 -4.5t13 -11.5t9 -15t3.5 -15q0 -6 -2.5 -12.5t-10.5 -11.5q-7 -6 -21 -16.5t-29.5 -21t-30 -18t-22.5 -7.5z" />
    <glyph glyph-name="Uogonek" unicode="&#x172;" horiz-adv-x="548" 
d="M60 0zM274 -15q-60 0 -101 22t-66 60t-36 88t-11 106q0 55 6.5 112t18 110t26 101t29.5 86h92q-24 -53 -42.5 -111.5t-31 -117t-19.5 -114t-7 -103.5q0 -97 38.5 -148t103.5 -51q64 0 103 51t39 148q0 48 -7 103.5t-19.5 114t-31 117t-42.5 111.5h92q15 -38 29.5 -86
t26 -101t18 -110t6.5 -112q0 -56 -11 -106t-36 -88t-66 -60t-101 -22zM380 10q-32 -29 -51 -61.5t-19 -70.5q0 -29 17 -45.5t40 -16.5q26 0 52.5 22.5t38.5 73.5l38 -15q-9 -36 -24.5 -61.5t-35 -41t-41 -22.5t-41.5 -7q-45 0 -76 26.5t-31 80.5q0 45 32 88t80 73z" />
    <glyph glyph-name="uogonek" unicode="&#x173;" horiz-adv-x="492" 
d="M70 0zM246 -15q-50 0 -83.5 17.5t-54 46.5t-29.5 68t-9 82t5.5 87t13.5 85.5t17.5 78.5t17.5 66h81q-29 -83 -49 -170.5t-20 -184.5q0 -38 8.5 -63.5t23.5 -41.5t35 -23t43 -7t43 7t35 23t23.5 41.5t8.5 63.5q0 97 -20 184.5t-49 170.5h81q8 -29 17.5 -66t17.5 -78.5
t13.5 -85.5t5.5 -87t-9 -82t-29.5 -68t-54 -46.5t-83.5 -17.5zM343 10q-32 -29 -51 -61.5t-19 -70.5q0 -29 17 -45.5t40 -16.5q26 0 52.5 22.5t38.5 73.5l38 -15q-9 -36 -24.5 -61.5t-35 -41t-41 -22.5t-41.5 -7q-45 0 -76 26.5t-31 80.5q0 45 32 88t80 73z" />
    <glyph glyph-name="Wcircumflex" unicode="&#x174;" horiz-adv-x="821" 
d="M67 0zM279 25q27 0 44.5 52.5t28.5 141t15.5 205.5t4.5 246h87q0 -129 4.5 -246t15.5 -205.5t28.5 -141t44.5 -52.5t49.5 52.5t39 141t26 205.5t9.5 246h88q-1 -138 -17.5 -262.5t-45 -218.5t-67 -149t-82.5 -55q-28 0 -50 23.5t-39 66t-29 101.5t-19 131
q-8 -72 -19.5 -131t-28 -101.5t-38.5 -66t-50 -23.5q-44 0 -82.5 55t-67 149t-45 218.5t-17.5 262.5h88q0 -129 9.5 -246t26 -205.5t39 -141t49.5 -52.5zM514 724q-8 0 -21 5.5t-27.5 13.5t-29.5 17t-26 17q-11 -8 -26 -17t-29.5 -17t-27.5 -13.5t-21 -5.5q-3 0 -8 1.5
t-5 6.5q0 8 12.5 25t29 35.5t33.5 35t26 23.5q9 6 16 6q5 0 16 -6q9 -7 26 -23.5t33.5 -35t29 -35.5t12.5 -25q0 -5 -5 -6.5t-8 -1.5z" />
    <glyph glyph-name="wcircumflex" unicode="&#x175;" horiz-adv-x="657" 
d="M50 0zM222 27q19 0 33 40t22 107.5t12 156t4 185.5h71q0 -97 4 -185.5t12 -156t21.5 -107.5t33.5 -40q19 0 36 40t29 107.5t19 156t7 185.5h81q0 -106 -13 -202.5t-36.5 -169.5t-55 -116t-67.5 -43q-23 0 -41 18t-30.5 51t-21.5 79t-14 102q-5 -56 -13.5 -102t-21.5 -79
t-30.5 -51t-40.5 -18q-36 0 -67.5 43t-55 116t-36.5 169.5t-13 202.5h81q0 -97 7 -185.5t19 -156t28.5 -107.5t36.5 -40zM432 574q-8 0 -21 5.5t-27.5 13.5t-29.5 17t-26 17q-11 -8 -26 -17t-29.5 -17t-27.5 -13.5t-21 -5.5q-3 0 -8 1.5t-5 6.5q0 8 12.5 25t29 35.5t33.5 35
t26 23.5q9 6 16 6q5 0 16 -6q9 -7 26 -23.5t33.5 -35t29 -35.5t12.5 -25q0 -5 -5 -6.5t-8 -1.5z" />
    <glyph glyph-name="Ycircumflex" unicode="&#x176;" horiz-adv-x="492" 
d="M50 0zM218 168q-36 12 -66.5 52t-53 104.5t-35.5 152t-13 193.5h85q0 -94 5.5 -179t18 -149t34 -102t54.5 -38t54 38t33.5 102t18 149t5.5 179h84q0 -106 -13 -193t-35.5 -152t-53 -105t-65.5 -52l15 -168h-88zM350 724q-8 0 -21 5.5t-27.5 13.5t-29.5 17t-26 17
q-11 -8 -26 -17t-29.5 -17t-27.5 -13.5t-21 -5.5q-3 0 -8 1.5t-5 6.5q0 8 12.5 25t29 35.5t33.5 35t26 23.5q9 6 16 6q5 0 16 -6q9 -7 26 -23.5t33.5 -35t29 -35.5t12.5 -25q0 -5 -5 -6.5t-8 -1.5z" />
    <glyph glyph-name="ycircumflex" unicode="&#x177;" horiz-adv-x="444" 
d="M50 0zM169 -204q33 58 60.5 117.5t48.5 118.5q-24 -32 -56 -32q-36 0 -67.5 41t-55 111t-36.5 164t-13 200h81q0 -97 7 -183t19 -150.5t28.5 -102.5t36.5 -38q26 0 44 28t29 77t15.5 116t4.5 145q0 26 -0.5 53t-1.5 55h81q0 -112 -13 -215t-35 -197.5t-51 -179
t-60 -158.5zM326 574q-8 0 -21 5.5t-27.5 13.5t-29.5 17t-26 17q-11 -8 -26 -17t-29.5 -17t-27.5 -13.5t-21 -5.5q-3 0 -8 1.5t-5 6.5q0 8 12.5 25t29 35.5t33.5 35t26 23.5q9 6 16 6q5 0 16 -6q9 -7 26 -23.5t33.5 -35t29 -35.5t12.5 -25q0 -5 -5 -6.5t-8 -1.5z" />
    <glyph glyph-name="Ydieresis" unicode="&#x178;" horiz-adv-x="492" 
d="M50 0zM218 168q-36 12 -66.5 52t-53 104.5t-35.5 152t-13 193.5h85q0 -94 5.5 -179t18 -149t34 -102t54.5 -38t54 38t33.5 102t18 149t5.5 179h84q0 -106 -13 -193t-35.5 -152t-53 -105t-65.5 -52l15 -168h-88zM170 738q-9 0 -17 7.5t-14 19.5t-9.5 27t-3.5 30
q0 23 13 29t31 6t30.5 -6t12.5 -29q0 -15 -3 -30t-9 -27t-14 -19.5t-17 -7.5zM322 738q-9 0 -17 7.5t-14 19.5t-9.5 27t-3.5 30q0 23 13 29t31 6t30.5 -6t12.5 -29q0 -15 -3 -30t-9 -27t-14 -19.5t-17 -7.5z" />
    <glyph glyph-name="Zacute" unicode="&#x179;" horiz-adv-x="448" 
d="M25 0zM423 670q-3 -93 -34.5 -183.5t-79 -170.5t-103.5 -146.5t-108 -111.5l312 -8v-50h-385v47q67 55 118.5 123.5t88 143.5t59 151.5t31.5 146.5l-285 8v50h386zM150 724q-3 0 -8 1.5t-5 6.5q0 8 14.5 23.5t34.5 32t40.5 31.5t32.5 22q10 6 19 6q14 0 25 -16t11 -30
t-18 -24q-10 -6 -30 -15t-42 -17.5t-42.5 -14.5t-31.5 -6z" />
    <glyph glyph-name="zacute" unicode="&#x17a;" horiz-adv-x="418" 
d="M25 0zM383 516q-6 -76 -33 -142.5t-66 -124t-87 -105.5t-96 -86l279 -8v-50h-355v47q65 57 111 108t76.5 100t48.5 98.5t28 104.5l-242 8v50h336zM135 574q-3 0 -8 1.5t-5 6.5q0 8 14.5 23.5t34.5 32t40.5 31.5t32.5 22q10 6 19 6q14 0 25 -16t11 -30t-18 -24
q-10 -6 -30 -15t-42 -17.5t-42.5 -14.5t-31.5 -6z" />
    <glyph glyph-name="Zdotaccent" unicode="&#x17b;" horiz-adv-x="448" 
d="M25 0zM423 670q-3 -93 -34.5 -183.5t-79 -170.5t-103.5 -146.5t-108 -111.5l312 -8v-50h-385v47q67 55 118.5 123.5t88 143.5t59 151.5t31.5 146.5l-285 8v50h386zM224 735q-10 0 -18.5 7.5t-14.5 20t-9.5 28.5t-3.5 32q0 24 13.5 30.5t32.5 6.5t32 -6.5t13 -30.5
q0 -16 -3.5 -32t-9.5 -28.5t-14 -20t-18 -7.5z" />
    <glyph glyph-name="zdotaccent" unicode="&#x17c;" horiz-adv-x="418" 
d="M25 0zM383 516q-6 -76 -33 -142.5t-66 -124t-87 -105.5t-96 -86l279 -8v-50h-355v47q65 57 111 108t76.5 100t48.5 98.5t28 104.5l-242 8v50h336zM209 585q-10 0 -18.5 7.5t-14.5 20t-9.5 28.5t-3.5 32q0 24 13.5 30.5t32.5 6.5t32 -6.5t13 -30.5q0 -16 -3.5 -32
t-9.5 -28.5t-14 -20t-18 -7.5z" />
    <glyph glyph-name="Zcaron" unicode="&#x17d;" horiz-adv-x="448" 
d="M25 0zM423 670q-3 -93 -34.5 -183.5t-79 -170.5t-103.5 -146.5t-108 -111.5l312 -8v-50h-385v47q67 55 118.5 123.5t88 143.5t59 151.5t31.5 146.5l-285 8v50h386zM120 857q8 0 21 -5.5t27.5 -13.5t29.5 -17.5t26 -16.5q11 7 26 16.5t29.5 17.5t27.5 13.5t21 5.5
q3 0 8 -1.5t5 -6.5q0 -8 -12.5 -25t-29 -35.5t-33.5 -35t-26 -23.5q-9 -6 -16 -6q-6 0 -16 6q-9 7 -26 23.5t-33.5 35t-29 35.5t-12.5 25q0 5 5 6.5t8 1.5z" />
    <glyph glyph-name="zcaron" unicode="&#x17e;" horiz-adv-x="418" 
d="M25 0zM383 516q-6 -76 -33 -142.5t-66 -124t-87 -105.5t-96 -86l279 -8v-50h-355v47q65 57 111 108t76.5 100t48.5 98.5t28 104.5l-242 8v50h336zM105 707q8 0 21 -5.5t27.5 -13.5t29.5 -17.5t26 -16.5q11 7 26 16.5t29.5 17.5t27.5 13.5t21 5.5q3 0 8 -1.5t5 -6.5
q0 -8 -12.5 -25t-29 -35.5t-33.5 -35t-26 -23.5q-9 -6 -16 -6q-6 0 -16 6q-9 7 -26 23.5t-33.5 35t-29 35.5t-12.5 25q0 5 5 6.5t8 1.5z" />
    <glyph glyph-name="florin" unicode="&#x192;" horiz-adv-x="430" 
d="M181 339q3 66 11 122t23 97t37.5 64t54.5 23q14 0 30 -5.5t31 -18.5t26 -35t16 -56l-79 -24q-4 45 -15 66t-27 21q-13 0 -21 -19.5t-12.5 -53.5t-6 -80.5t-1.5 -100.5h121v-43h-121v-131q0 -80 -6 -149.5t-20.5 -120.5t-38.5 -80.5t-60 -29.5q-14 0 -30 5.5t-31 18.5
t-26.5 35t-15.5 56l77 24q4 -45 15 -66t27 -21q15 0 23.5 26t12.5 71t4.5 104.5t0.5 126.5v131h-100v43h101z" />
    <glyph glyph-name="uni0218" unicode="&#x218;" horiz-adv-x="502" 
d="M44 0zM156 476q0 -34 22.5 -57t56 -43t72.5 -39t72.5 -44t56 -58.5t22.5 -82.5q0 -83 -48.5 -125t-150.5 -42q-41 0 -79 6.5t-67 27.5t-47.5 60t-21.5 103q22 2 45 4t43 4q2 -56 13 -89t28 -50t39.5 -21.5t46.5 -4.5q62 0 89 34.5t27 86.5q0 38 -22 64.5t-55 48t-71 40.5
t-71 42t-55 53t-22 73q0 37 14 75.5t38 70t55 52t65 20.5q24 0 47.5 -13.5t44.5 -37.5t38.5 -57.5t29.5 -73.5l-85 -25q-1 40 -8 71t-17.5 52.5t-23.5 32.5t-26 11q-20 0 -37 -16t-30 -41t-20.5 -55t-7.5 -57zM190 -242q20 17 35 43t15 52q-14 8 -23 25.5t-9 41.5
q0 23 15.5 29t37.5 6t37 -6t15 -29q0 -36 -10 -66t-25 -54t-32.5 -41.5t-32.5 -27.5l-23 27v0z" />
    <glyph glyph-name="uni0219" unicode="&#x219;" horiz-adv-x="423" 
d="M48 0zM149 361q0 -30 17.5 -48t44 -31t57 -25t57 -29t44 -43t17.5 -68q0 -65 -44 -98.5t-122 -33.5q-34 0 -64.5 5.5t-54 23t-37.5 49t-16 83.5l81 6q1 -41 8.5 -65.5t19.5 -38t28.5 -18t34.5 -4.5q43 0 65 25t22 66q0 31 -17 50t-43 32t-55.5 24.5t-55.5 27t-43 39.5
t-17 64q0 28 11.5 59t31 56.5t45 42t53.5 16.5q42 0 78.5 -41.5t54.5 -110.5l-81 -21q0 60 -16.5 97t-35.5 37q-14 0 -26.5 -12.5t-21.5 -32t-14.5 -42t-5.5 -41.5zM150 -242q20 17 35 43t15 52q-14 8 -23 25.5t-9 41.5q0 23 15.5 29t37.5 6t37 -6t15 -29q0 -36 -10 -66
t-25 -54t-32.5 -41.5t-32.5 -27.5l-23 27v0z" />
    <glyph glyph-name="uni021A" unicode="&#x21a;" horiz-adv-x="433" 
d="M10 0zM187 616l-177 6v48h413v-61l-177 5l14 -614h-88zM145 -242q20 17 35 43t15 52q-14 8 -23 25.5t-9 41.5q0 23 15.5 29t37.5 6t37 -6t15 -29q0 -36 -10 -66t-25 -54t-32.5 -41.5t-32.5 -27.5l-23 27v0z" />
    <glyph glyph-name="uni021B" unicode="&#x21b;" horiz-adv-x="353" 
d="M30 0zM220 -15q-31 0 -51 11.5t-31.5 37.5t-16 68t-4.5 103v36v41.5t0.5 42.5t1.5 40l4 99l-93 4v48h94l4 134h55l2 -134h111v-58l-110 4q1 -120 3 -202t6.5 -132.5t13 -73t23.5 -22.5q14 0 22.5 32t10.5 91l73 -13q-10 -72 -41.5 -114.5t-76.5 -42.5zM127 -242
q20 17 35 43t15 52q-14 8 -23 25.5t-9 41.5q0 23 15.5 29t37.5 6t37 -6t15 -29q0 -36 -10 -66t-25 -54t-32.5 -41.5t-32.5 -27.5l-23 27v0z" />
    <glyph glyph-name="uni0237" unicode="&#x237;" horiz-adv-x="251" 
d="M11 -96q4 -45 15 -66t27 -21q13 0 21 19t12.5 52.5t6 79t1.5 98.5v15v25t-0.5 45.5t-1 76.5t-2 118t-2.5 170h78l-6 -371q-2 -80 -8 -149.5t-20.5 -120.5t-37.5 -80.5t-59 -29.5q-14 0 -30 5.5t-31 18.5t-26.5 35t-15.5 56z" />
    <glyph glyph-name="circumflex" unicode="&#x2c6;" horiz-adv-x="334" 
d="M271 574q-8 0 -21 5.5t-27.5 13.5t-29.5 17t-26 17q-11 -8 -26 -17t-29.5 -17t-27.5 -13.5t-21 -5.5q-3 0 -8 1.5t-5 6.5q0 8 12.5 25t29 35.5t33.5 35t26 23.5q9 6 16 6q5 0 16 -6q9 -7 26 -23.5t33.5 -35t29 -35.5t12.5 -25q0 -5 -5 -6.5t-8 -1.5z" />
    <glyph glyph-name="caron" unicode="&#x2c7;" horiz-adv-x="334" 
d="M63 707q8 0 21 -5.5t27.5 -13.5t29.5 -17.5t26 -16.5q11 7 26 16.5t29.5 17.5t27.5 13.5t21 5.5q3 0 8 -1.5t5 -6.5q0 -8 -12.5 -25t-29 -35.5t-33.5 -35t-26 -23.5q-9 -6 -16 -6q-6 0 -16 6q-9 7 -26 23.5t-33.5 35t-29 35.5t-12.5 25q0 5 5 6.5t8 1.5z" />
    <glyph glyph-name="uni02C9" unicode="&#x2c9;" horiz-adv-x="334" 
d="M274 671q5 0 8.5 -9.5t3.5 -21.5t-3.5 -21.5t-8.5 -9.5h-214q-5 0 -8.5 9.5t-3.5 21.5t3.5 21.5t8.5 9.5h214z" />
    <glyph glyph-name="breve" unicode="&#x2d8;" horiz-adv-x="334" 
d="M93 707q4 -11 9.5 -24t14 -24t20.5 -18t30 -7t30 7t20.5 18t14 24t9.5 24q1 0 8 -0.5t15 -1t14 -2t6 -4.5q0 -8 -5 -28.5t-18 -42t-36 -38t-58 -16.5q-38 0 -61 17t-35.5 38.5t-16.5 42t-4 27.5q0 3 6 4.5t14 2t14.5 1t8.5 0.5z" />
    <glyph glyph-name="dotaccent" unicode="&#x2d9;" horiz-adv-x="251" 
d="M126 585q-10 0 -18.5 7.5t-14.5 20t-9.5 28.5t-3.5 32q0 24 13.5 30.5t32.5 6.5t32 -6.5t13 -30.5q0 -16 -3.5 -32t-9.5 -28.5t-14 -20t-18 -7.5z" />
    <glyph glyph-name="ring" unicode="&#x2da;" horiz-adv-x="205" 
d="M103 570q-17 0 -31.5 9t-25.5 24t-17.5 34t-6.5 39q0 29 24 37t57 8t56 -8t23 -37q0 -20 -6 -39t-16.5 -34t-25 -24t-31.5 -9zM103 610q13 0 21.5 17t8.5 32q0 12 -8.5 17t-21.5 5q-14 0 -23 -5t-9 -17q0 -15 9 -32t23 -17z" />
    <glyph glyph-name="ogonek" unicode="&#x2db;" horiz-adv-x="326" 
d="M183 10q-32 -29 -51 -61.5t-19 -70.5q0 -29 17 -45.5t40 -16.5q26 0 52.5 22.5t38.5 73.5l38 -15q-9 -36 -24.5 -61.5t-35 -41t-41 -22.5t-41.5 -7q-45 0 -76 26.5t-31 80.5q0 45 32 88t80 73z" />
    <glyph glyph-name="tilde" unicode="&#x2dc;" horiz-adv-x="366" 
d="M240 583q-16 0 -30.5 9t-27.5 20.5t-24.5 20.5t-21.5 9q-5 0 -10 -1.5t-9 -7.5t-6.5 -18t-2.5 -32l-58 16q3 32 10.5 53t17 33t22 17t26.5 5q18 0 32 -9t25.5 -20.5t22.5 -20.5t24 -9q5 0 10 1.5t9 7.5t6.5 18t2.5 32l58 -16q-3 -32 -10.5 -53t-17 -33t-22 -17t-26.5 -5z
" />
    <glyph glyph-name="hungarumlaut" unicode="&#x2dd;" horiz-adv-x="357" 
d="M61 574q-2 0 -6.5 1.5t-4.5 6.5q0 8 9 25t21.5 35.5t25 35t19.5 23.5q6 6 12 6q7 0 14.5 -4.5t13 -11.5t9 -15t3.5 -15q0 -6 -2.5 -12.5t-10.5 -11.5q-7 -6 -21 -16.5t-29.5 -21t-30 -18t-22.5 -7.5zM191 574q-2 0 -6.5 1.5t-4.5 6.5q0 8 9 25t21.5 35.5t25 35t19.5 23.5
q6 6 12 6q7 0 14.5 -4.5t13 -11.5t9 -15t3.5 -15q0 -6 -2.5 -12.5t-10.5 -11.5q-7 -6 -21 -16.5t-29.5 -21t-30 -18t-22.5 -7.5z" />
    <glyph glyph-name="uni0394" unicode="&#x394;" horiz-adv-x="567" 
d="M30 50l220 580h56l231 -580v-50h-507v50zM287 520l-201 -470h358z" />
    <glyph glyph-name="uni03A9" unicode="&#x3a9;" horiz-adv-x="544" 
d="M504 0h-181v96q18 24 33 62t26.5 81.5t18 87.5t6.5 79q0 93 -34 146t-101 53q-66 0 -100 -53t-34 -146q0 -35 6.5 -78.5t17.5 -86.5t26 -80.5t33 -61.5v-99h-181v50h134v53q-28 28 -50.5 64.5t-39 77.5t-25.5 86t-9 89q0 57 18.5 99.5t49.5 70t71 41.5t83 14q44 0 84 -14
t71 -41.5t49 -70t18 -99.5q0 -45 -9 -90t-25.5 -86.5t-39.5 -78t-50 -63.5v-52h134v-50z" />
    <glyph glyph-name="uni03BC" unicode="&#x3bc;" horiz-adv-x="444" 
d="M336 185h-4q-8 -45 -18.5 -81t-24 -62t-30 -40t-37.5 -14t-39 15t-33 43t-26.5 66.5t-20.5 86.5h-5l18 -419h-76l10 736h81q0 -97 7 -185t19 -155t28.5 -106.5t36.5 -39.5q19 0 36 39.5t29 106.5t19 155t7 185h80l-10 -516h-36z" />
    <glyph glyph-name="pi" unicode="&#x3c0;" horiz-adv-x="548" 
d="M361 466h-174l-10 -466h-56l-10 466h-71v50h468v-50h-71l-10 -466h-56z" />
    <glyph glyph-name="Wgrave" unicode="&#x1e80;" horiz-adv-x="821" 
d="M67 0zM279 25q27 0 44.5 52.5t28.5 141t15.5 205.5t4.5 246h87q0 -129 4.5 -246t15.5 -205.5t28.5 -141t44.5 -52.5t49.5 52.5t39 141t26 205.5t9.5 246h88q-1 -138 -17.5 -262.5t-45 -218.5t-67 -149t-82.5 -55q-28 0 -50 23.5t-39 66t-29 101.5t-19 131
q-8 -72 -19.5 -131t-28 -101.5t-38.5 -66t-50 -23.5q-44 0 -82.5 55t-67 149t-45 218.5t-17.5 262.5h88q0 -129 9.5 -246t26 -205.5t39 -141t49.5 -52.5zM486 724q-11 0 -31.5 6t-42.5 14.5t-42 17.5t-30 15q-18 10 -18 24t11 30t25 16q9 0 19 -6q12 -7 32.5 -22t40.5 -31.5
t34.5 -32t14.5 -23.5q0 -5 -5 -6.5t-8 -1.5z" />
    <glyph glyph-name="wgrave" unicode="&#x1e81;" horiz-adv-x="657" 
d="M50 0zM222 27q19 0 33 40t22 107.5t12 156t4 185.5h71q0 -97 4 -185.5t12 -156t21.5 -107.5t33.5 -40q19 0 36 40t29 107.5t19 156t7 185.5h81q0 -106 -13 -202.5t-36.5 -169.5t-55 -116t-67.5 -43q-23 0 -41 18t-30.5 51t-21.5 79t-14 102q-5 -56 -13.5 -102t-21.5 -79
t-30.5 -51t-40.5 -18q-36 0 -67.5 43t-55 116t-36.5 169.5t-13 202.5h81q0 -97 7 -185.5t19 -156t28.5 -107.5t36.5 -40zM404 574q-11 0 -31.5 6t-42.5 14.5t-42 17.5t-30 15q-18 10 -18 24t11 30t25 16q9 0 19 -6q12 -7 32.5 -22t40.5 -31.5t34.5 -32t14.5 -23.5
q0 -5 -5 -6.5t-8 -1.5z" />
    <glyph glyph-name="Wacute" unicode="&#x1e82;" horiz-adv-x="821" 
d="M67 0zM279 25q27 0 44.5 52.5t28.5 141t15.5 205.5t4.5 246h87q0 -129 4.5 -246t15.5 -205.5t28.5 -141t44.5 -52.5t49.5 52.5t39 141t26 205.5t9.5 246h88q-1 -138 -17.5 -262.5t-45 -218.5t-67 -149t-82.5 -55q-28 0 -50 23.5t-39 66t-29 101.5t-19 131
q-8 -72 -19.5 -131t-28 -101.5t-38.5 -66t-50 -23.5q-44 0 -82.5 55t-67 149t-45 218.5t-17.5 262.5h88q0 -129 9.5 -246t26 -205.5t39 -141t49.5 -52.5zM335 724q-3 0 -8 1.5t-5 6.5q0 8 14.5 23.5t34.5 32t40.5 31.5t32.5 22q10 6 19 6q14 0 25 -16t11 -30t-18 -24
q-10 -6 -30 -15t-42 -17.5t-42.5 -14.5t-31.5 -6z" />
    <glyph glyph-name="wacute" unicode="&#x1e83;" horiz-adv-x="657" 
d="M50 0zM222 27q19 0 33 40t22 107.5t12 156t4 185.5h71q0 -97 4 -185.5t12 -156t21.5 -107.5t33.5 -40q19 0 36 40t29 107.5t19 156t7 185.5h81q0 -106 -13 -202.5t-36.5 -169.5t-55 -116t-67.5 -43q-23 0 -41 18t-30.5 51t-21.5 79t-14 102q-5 -56 -13.5 -102t-21.5 -79
t-30.5 -51t-40.5 -18q-36 0 -67.5 43t-55 116t-36.5 169.5t-13 202.5h81q0 -97 7 -185.5t19 -156t28.5 -107.5t36.5 -40zM253 574q-3 0 -8 1.5t-5 6.5q0 8 14.5 23.5t34.5 32t40.5 31.5t32.5 22q10 6 19 6q14 0 25 -16t11 -30t-18 -24q-10 -6 -30 -15t-42 -17.5t-42.5 -14.5
t-31.5 -6z" />
    <glyph glyph-name="Wdieresis" unicode="&#x1e84;" horiz-adv-x="821" 
d="M67 0zM279 25q27 0 44.5 52.5t28.5 141t15.5 205.5t4.5 246h87q0 -129 4.5 -246t15.5 -205.5t28.5 -141t44.5 -52.5t49.5 52.5t39 141t26 205.5t9.5 246h88q-1 -138 -17.5 -262.5t-45 -218.5t-67 -149t-82.5 -55q-28 0 -50 23.5t-39 66t-29 101.5t-19 131
q-8 -72 -19.5 -131t-28 -101.5t-38.5 -66t-50 -23.5q-44 0 -82.5 55t-67 149t-45 218.5t-17.5 262.5h88q0 -129 9.5 -246t26 -205.5t39 -141t49.5 -52.5zM335 738q-9 0 -17 7.5t-14 19.5t-9.5 27t-3.5 30q0 23 13 29t31 6t30.5 -6t12.5 -29q0 -15 -3 -30t-9 -27t-14 -19.5
t-17 -7.5zM487 738q-9 0 -17 7.5t-14 19.5t-9.5 27t-3.5 30q0 23 13 29t31 6t30.5 -6t12.5 -29q0 -15 -3 -30t-9 -27t-14 -19.5t-17 -7.5z" />
    <glyph glyph-name="wdieresis" unicode="&#x1e85;" horiz-adv-x="657" 
d="M50 0zM222 27q19 0 33 40t22 107.5t12 156t4 185.5h71q0 -97 4 -185.5t12 -156t21.5 -107.5t33.5 -40q19 0 36 40t29 107.5t19 156t7 185.5h81q0 -106 -13 -202.5t-36.5 -169.5t-55 -116t-67.5 -43q-23 0 -41 18t-30.5 51t-21.5 79t-14 102q-5 -56 -13.5 -102t-21.5 -79
t-30.5 -51t-40.5 -18q-36 0 -67.5 43t-55 116t-36.5 169.5t-13 202.5h81q0 -97 7 -185.5t19 -156t28.5 -107.5t36.5 -40zM253 588q-9 0 -17 7.5t-14 19.5t-9.5 27t-3.5 30q0 23 13 29t31 6t30.5 -6t12.5 -29q0 -15 -3 -30t-9 -27t-14 -19.5t-17 -7.5zM405 588q-9 0 -17 7.5
t-14 19.5t-9.5 27t-3.5 30q0 23 13 29t31 6t30.5 -6t12.5 -29q0 -15 -3 -30t-9 -27t-14 -19.5t-17 -7.5z" />
    <glyph glyph-name="endash" unicode="&#x2013;" horiz-adv-x="544" 
d="M0 340h544v-50h-544v50z" />
    <glyph glyph-name="emdash" unicode="&#x2014;" horiz-adv-x="817" 
d="M0 340h817v-50h-817v50z" />
    <glyph glyph-name="quoteleft" unicode="&#x2018;" horiz-adv-x="223" 
d="M173 701q-20 -17 -35 -43t-15 -52q14 -10 23 -30.5t9 -49.5q0 -28 -15.5 -35t-37.5 -7t-37 7t-15 35q0 41 10 74t25 58t32.5 42.5t32.5 27.5l23 -27v0z" />
    <glyph glyph-name="quoteright" unicode="&#x2019;" horiz-adv-x="223" 
d="M50 511q20 17 35 43t15 52q-14 10 -23 30.5t-9 49.5q0 28 15.5 35t37.5 7t37 -7t15 -35q0 -41 -10 -74t-25 -58t-32.5 -42.5t-32.5 -27.5l-23 27v0z" />
    <glyph glyph-name="quotesinglbase" unicode="&#x201a;" horiz-adv-x="205" 
d="M32 0zM32 -89q20 17 35 43t15 52q-14 10 -23 30.5t-9 49.5q0 28 15.5 35t37.5 7t37 -7t15 -35q0 -41 -10 -74t-25 -58t-32.5 -42.5t-32.5 -27.5l-23 27v0z" />
    <glyph glyph-name="quotedblleft" unicode="&#x201c;" horiz-adv-x="383" 
d="M333 701q-20 -17 -35 -43t-15 -52q14 -10 23 -30.5t9 -49.5q0 -28 -15.5 -35t-37.5 -7t-37 7t-15 35q0 41 10 74t25 58t32.5 42.5t32.5 27.5zM173 701q-20 -17 -35 -43t-15 -52q14 -10 23 -30.5t9 -49.5q0 -28 -15.5 -35t-37.5 -7t-37 7t-15 35q0 41 10 74t25 58
t32.5 42.5t32.5 27.5z" />
    <glyph glyph-name="quotedblright" unicode="&#x201d;" horiz-adv-x="383" 
d="M50 511q20 17 35 43t15 52q-14 10 -23 30.5t-9 49.5q0 28 15.5 35t37.5 7t37 -7t15 -35q0 -41 -10 -74t-25 -58t-32.5 -42.5t-32.5 -27.5zM210 511q20 17 35 43t15 52q-14 10 -23 30.5t-9 49.5q0 28 15.5 35t37.5 7t37 -7t15 -35q0 -41 -10 -74t-25 -58t-32.5 -42.5
t-32.5 -27.5z" />
    <glyph glyph-name="quotedblbase" unicode="&#x201e;" horiz-adv-x="383" 
d="M50 0zM50 -88q20 17 35 43t15 52q-14 10 -23 30.5t-9 49.5q0 28 15.5 35t37.5 7t37 -7t15 -35q0 -41 -10 -74t-25 -58t-32.5 -42.5t-32.5 -27.5zM210 -88q20 17 35 43t15 52q-14 10 -23 30.5t-9 49.5q0 28 15.5 35t37.5 7t37 -7t15 -35q0 -41 -10 -74t-25 -58
t-32.5 -42.5t-32.5 -27.5z" />
    <glyph glyph-name="dagger" unicode="&#x2020;" horiz-adv-x="438" 
d="M50 516h132l-2 154h78l-3 -154h133v-50h-133l-8 -566h-56l-9 566h-132v50z" />
    <glyph glyph-name="daggerdbl" unicode="&#x2021;" horiz-adv-x="438" 
d="M50 516h134l-4 154h78l-5 -154h135v-50h-136l-5 -181l5 -181h136v-50h-135l5 -154h-78l4 154h-134v50h136l5 181l-5 181h-136v50z" />
    <glyph glyph-name="bullet" unicode="&#x2022;" horiz-adv-x="245" 
d="M123 215q-16 0 -29.5 10.5t-23 27.5t-15 38.5t-5.5 44.5q0 21 6 33t16 18.5t23 8.5t28 2t28.5 -2t23 -8.5t15 -18.5t5.5 -33q0 -23 -5.5 -44.5t-15 -38.5t-22.5 -27.5t-29 -10.5z" />
    <glyph glyph-name="ellipsis" unicode="&#x2026;" horiz-adv-x="615" 
d="M103 -15q-11 0 -21 8.5t-17 23t-11 32.5t-4 37q0 28 15.5 35t37.5 7t37 -7t15 -35q0 -19 -4 -37t-11 -32.5t-16.5 -23t-20.5 -8.5zM308 -15q-11 0 -21 8.5t-17 23t-11 32.5t-4 37q0 28 15.5 35t37.5 7t37 -7t15 -35q0 -19 -4 -37t-11 -32.5t-16.5 -23t-20.5 -8.5z
M513 -15q-11 0 -21 8.5t-17 23t-11 32.5t-4 37q0 28 15.5 35t37.5 7t37 -7t15 -35q0 -19 -4 -37t-11 -32.5t-16.5 -23t-20.5 -8.5z" />
    <glyph glyph-name="perthousand" unicode="&#x2030;" horiz-adv-x="1142" 
d="M70 0zM504 677l46 -13l-212 -711l-46 13zM191 610q-14 0 -25.5 -20.5t-20 -53.5t-13.5 -75t-5 -85q0 -30 5 -48t14 -27.5t20.5 -12.5t24.5 -3t24.5 3t20.5 12.5t14 27.5t5 48q0 43 -5 85t-13.5 75t-20.5 53.5t-25 20.5zM191 645q26 0 48 -23.5t38.5 -61.5t25.5 -86.5
t9 -97.5q0 -42 -9.5 -68t-26 -40t-38.5 -18.5t-47 -4.5t-47 4.5t-38.5 18.5t-26 40t-9.5 68q0 49 9 97.5t25.5 86.5t38.5 61.5t48 23.5zM651 350q-14 0 -25.5 -20.5t-20 -53.5t-13.5 -75t-5 -85q0 -30 5 -48t14 -27.5t20.5 -12.5t24.5 -3t24.5 3t20.5 12.5t14 27.5t5 48
q0 43 -5 85t-13.5 75t-20.5 53.5t-25 20.5zM651 385q26 0 48 -23.5t38.5 -61.5t25.5 -86.5t9 -97.5q0 -42 -9.5 -68t-26 -40t-38.5 -18.5t-47 -4.5t-47 4.5t-38.5 18.5t-26 40t-9.5 68q0 49 9 97.5t25.5 86.5t38.5 61.5t48 23.5zM951 350q-14 0 -25.5 -20.5t-20 -53.5
t-13.5 -75t-5 -85q0 -30 5 -48t14 -27.5t20.5 -12.5t24.5 -3t24.5 3t20.5 12.5t14 27.5t5 48q0 43 -5 85t-13.5 75t-20.5 53.5t-25 20.5zM951 385q26 0 48 -23.5t38.5 -61.5t25.5 -86.5t9 -97.5q0 -42 -9.5 -68t-26 -40t-38.5 -18.5t-47 -4.5t-47 4.5t-38.5 18.5t-26 40
t-9.5 68q0 49 9 97.5t25.5 86.5t38.5 61.5t48 23.5z" />
    <glyph glyph-name="guilsinglleft" unicode="&#x2039;" horiz-adv-x="320" 
d="M158 309q0 -20 19 -64t63 -98l-10 -27q-39 17 -67 42.5t-46.5 52t-27.5 52t-9 42.5t9 42.5t27.5 52t46.5 52t67 42.5l10 -27q-44 -54 -63 -98.5t-19 -63.5z" />
    <glyph glyph-name="guilsinglright" unicode="&#x203a;" horiz-adv-x="320" 
d="M162 309q0 19 -19 63.5t-63 98.5l10 27q39 -17 67 -42.5t46.5 -52t27.5 -52t9 -42.5t-9 -42.5t-27.5 -52t-46.5 -52t-67 -42.5l-10 27q44 54 63 98t19 64z" />
    <glyph glyph-name="fraction" unicode="&#x2044;" horiz-adv-x="258" 
d="M212 677l46 -13l-212 -711l-46 13z" />
    <glyph glyph-name="zeroinferior" unicode="&#x2080;" horiz-adv-x="372" 
d="M185 156q-14 0 -25.5 -20.5t-20 -53.5t-13.5 -75t-5 -85q0 -30 5 -48t14 -27.5t20.5 -12.5t24.5 -3t24.5 3t20.5 12.5t14 27.5t5 48q0 43 -5 85t-13.5 75t-20.5 53.5t-25 20.5zM185 191q26 0 48 -23.5t38.5 -61.5t25.5 -86.5t9 -97.5q0 -42 -9.5 -68t-26 -40t-38.5 -18.5
t-47 -4.5t-47 4.5t-38.5 18.5t-26 40t-9.5 68q0 49 9 97.5t25.5 86.5t38.5 61.5t48 23.5z" />
    <glyph glyph-name="oneinferior" unicode="&#x2081;" horiz-adv-x="372" 
d="M179 185h40v-342l79 3v-46h-219v38l79 3q4 77 8.5 149.5t8.5 149.5q-25 -14 -51 -28.5t-50 -28.5l-19 41z" />
    <glyph glyph-name="twoinferior" unicode="&#x2082;" horiz-adv-x="372" 
d="M298 94q0 -28 -12 -60t-33.5 -65t-52 -65t-66.5 -60q39 -1 79 -2.5t79 -2.5v-39h-230v36q36 23 68 54.5t56.5 66t39 70t14.5 67.5q0 26 -12 44t-42 18q-23 0 -39 -9.5t-16 -35.5q0 -7 1 -15.5t3 -18.5l-55 -8q-8 22 -8 42q0 23 9 38.5t24.5 24.5t36.5 13t44 4
q55 0 83.5 -26t28.5 -71z" />
    <glyph glyph-name="threeinferior" unicode="&#x2083;" horiz-adv-x="372" 
d="M302 110q0 -32 -17 -63.5t-52 -52.5q20 -8 34 -20.5t22.5 -26t12 -27.5t3.5 -26q0 -30 -9.5 -50t-26 -31.5t-38.5 -16.5t-46 -5q-25 0 -47 4.5t-38.5 15t-26 26.5t-9.5 40q0 21 6 39l55 -8q-4 -16 -4 -31q0 -27 19 -37t45 -10q13 0 24.5 2.5t20 9.5t13.5 19.5t5 32.5
t-13 44t-50 38q-14 -3 -29.5 -5t-36.5 -2v33q45 0 70.5 12t38 29t15 35.5t2.5 31.5q0 25 -16 34.5t-39 9.5t-41.5 -9.5t-18.5 -34.5q0 -8 1 -16.5t2 -17.5l-53 -8q-6 21 -6 42q0 23 9.5 38t26 24t37 13t43.5 4t43.5 -4t35.5 -13t24 -24t9 -38z" />
    <glyph glyph-name="fourinferior" unicode="&#x2084;" horiz-adv-x="372" 
d="M221 -126h-28q-23 0 -46.5 3.5t-42.5 15t-30.5 31.5t-11.5 53q0 28 8 55t21.5 53t31.5 50t37 47h35q-30 -48 -51 -97.5t-21 -88.5q0 -45 15.5 -67t54.5 -22h29l13 208h43v-208h41v-33h-41v-74h-62z" />
    <glyph glyph-name="fiveinferior" unicode="&#x2085;" horiz-adv-x="372" 
d="M275 139l-129 6q-5 -31 -9 -60t-9 -60q50 -2 84 -15.5t55 -33t30 -41.5t9 -40q0 -30 -9.5 -50t-26 -32t-38.5 -17t-47 -5t-47 4.5t-38.5 15t-26 26.5t-9.5 40q0 21 6 39l55 -8q-4 -15 -4 -31q0 -27 19 -36.5t45 -9.5q13 0 24.5 2.5t20.5 9.5t14 19.5t5 32.5
q0 13 -4.5 29.5t-19 31t-41 24.5t-70.5 10h-35l12 195h184v-46z" />
    <glyph glyph-name="sixinferior" unicode="&#x2086;" horiz-adv-x="372" 
d="M64 -107q0 44 14.5 85.5t38.5 79.5t56 72t67 63l29 -26q-45 -41 -72.5 -76t-44.5 -70q43 -4 72.5 -17.5t47.5 -33t26 -42.5t8 -46q0 -25 -10 -42.5t-26.5 -28t-39.5 -15.5t-48 -5q-24 0 -45.5 4.5t-37.5 16.5t-25.5 31.5t-9.5 49.5zM248 -113q0 17 -4.5 34t-16.5 31.5
t-33 24t-55 12.5q-9 -24 -13 -47.5t-4 -46.5q0 -41 17.5 -52.5t43.5 -11.5q30 0 47.5 11.5t17.5 44.5z" />
    <glyph glyph-name="seveninferior" unicode="&#x2087;" horiz-adv-x="372" 
d="M228 -44q-31 -55 -67 -98.5t-66 -68.5l-26 27q33 32 60.5 71t47.5 80l-60 15l9 36l67 -17q14 35 23.5 70t14.5 67q-38 1 -79 2.5t-79 2.5v39h224q-2 -51 -16 -101.5t-35 -93.5l35 -8l-7 -35z" />
    <glyph glyph-name="eightinferior" unicode="&#x2088;" horiz-adv-x="372" 
d="M64 -123q0 37 21 70t52 50q-28 17 -46 48t-18 66q0 23 9 38.5t24 24.5t35.5 13t43.5 4t43.5 -4t35.5 -13t24 -24.5t9 -38.5q0 -35 -18 -66t-46 -48q31 -17 52 -50t21 -70q0 -24 -9.5 -40t-26 -26.5t-38.5 -15t-47 -4.5t-47 4.5t-38.5 15t-26 26.5t-9.5 40zM185 -22
q-14 0 -25.5 -8.5t-20 -22.5t-13.5 -32.5t-5 -37.5q0 -27 19 -36.5t45 -9.5t45 9.5t19 36.5q0 19 -5 37.5t-13.5 32.5t-20.5 22.5t-25 8.5zM185 14q11 0 21 8.5t17.5 22t12 31t4.5 35.5q0 26 -16 35.5t-39 9.5t-39 -9.5t-16 -35.5q0 -18 4 -35.5t11.5 -31t17.5 -22t22 -8.5z
" />
    <glyph glyph-name="nineinferior" unicode="&#x2089;" horiz-adv-x="372" 
d="M306 82q0 -44 -15.5 -86.5t-39.5 -80.5t-53.5 -70.5t-57.5 -55.5l-28 27q42 39 68.5 74t41.5 72q-44 3 -74.5 17t-49 34t-26.5 44t-8 48t9.5 40t26 26.5t38.5 15t47 4.5t47 -5t38.5 -17.5t26 -33.5t9.5 -53zM121 105q0 -19 3.5 -38t15.5 -34.5t34.5 -26t59.5 -13.5
q15 45 15 89q0 22 -5 36t-14 21.5t-20.5 10t-24.5 2.5q-26 0 -45 -10t-19 -37z" />
    <glyph glyph-name="Euro" unicode="&#x20ac;" 
d="M97 402v20q0 73 16 117t43.5 67.5t64.5 31t78 7.5q34 0 66 -9t56.5 -30.5t41 -58t19.5 -90.5l-75 -17q-1 51 -11 83t-25 50t-34 25t-38 7q-23 0 -44 -6t-36.5 -25t-24.5 -55t-9 -97v-20h163v-43h-162q2 -23 3.5 -45t3.5 -42h155v-43h-149q7 -46 17 -83.5t23 -64.5
t28 -41.5t32 -14.5q28 0 50.5 45.5t38.5 117.5l69 -14q-14 -42 -31 -76.5t-37.5 -59.5t-43 -39t-46.5 -14q-30 0 -57.5 18t-50.5 50t-42 77t-31 99h-73v43h64q-3 21 -5.5 42.5t-4.5 44.5h-54v43h52z" />
    <glyph glyph-name="uni2113" unicode="&#x2113;" horiz-adv-x="236" 
d="M79 750h78q-2 -139 -3.5 -234.5t-2.5 -158t-1 -97.5t-0.5 -52t-0.5 -21v-6q0 -81 10 -115t29 -34q14 0 27.5 32t15.5 91l73 -13q-10 -72 -41.5 -114.5t-76.5 -42.5q-31 0 -50 11.5t-29.5 37.5t-14.5 68t-5 103z" />
    <glyph glyph-name="trademark" unicode="&#x2122;" horiz-adv-x="857" 
d="M635 641q-16 0 -26.5 -33t-17 -89t-9 -129.5t-2.5 -154.5h-63q0 81 -2.5 154.5t-9 129.5t-17 89t-25.5 33q-17 0 -30.5 -33t-23 -89t-15 -129.5t-5.5 -154.5h-69q1 88 12.5 168t31 140.5t45 96t54.5 35.5q20 0 33.5 -18t23.5 -48t16.5 -68t11.5 -78q6 40 12.5 78t16.5 68
t24 48t34 18q28 0 54 -35.5t45.5 -96t31 -140.5t11.5 -168h-68q0 81 -6 154.5t-15.5 129.5t-23 89t-29.5 33zM149 623l-109 4v38h269v-47l-110 4l9 -387h-68z" />
    <glyph glyph-name="Omega" unicode="&#x2126;" horiz-adv-x="544" 
d="M504 0h-181v96q18 24 33 62t26.5 81.5t18 87.5t6.5 79q0 93 -34 146t-101 53q-66 0 -100 -53t-34 -146q0 -35 6.5 -78.5t17.5 -86.5t26 -80.5t33 -61.5v-99h-181v50h134v53q-28 28 -50.5 64.5t-39 77.5t-25.5 86t-9 89q0 57 18.5 99.5t49.5 70t71 41.5t83 14q44 0 84 -14
t71 -41.5t49 -70t18 -99.5q0 -45 -9 -90t-25.5 -86.5t-39.5 -78t-50 -63.5v-52h134v-50z" />
    <glyph glyph-name="estimated" unicode="&#x212e;" horiz-adv-x="600" 
d="M157 259v-181q62 -59 145 -59q124 0 193 120l35 -21q-26 -35 -50 -60t-50 -42t-57 -25t-71 -8q-62 0 -110 21.5t-81 59t-50 88t-17 107.5q0 61 18 112t51 87.5t81 56.5t108 20q64 0 111.5 -21.5t79.5 -59t48.5 -87.5t19.5 -108h-404zM448 295v145q-63 60 -147 60
q-86 0 -144 -60v-145h291z" />
    <glyph glyph-name="partialdiff" unicode="&#x2202;" horiz-adv-x="431" 
d="M311 524q-8 21 -24.5 53t-39 63t-48.5 53t-52 22q-17 0 -30.5 -7.5t-24.5 -18.5l-30 37q22 21 43.5 30t43.5 9q30 0 60.5 -17.5t58 -46t51 -65.5t40.5 -76t27 -77t10 -69q0 -50 -11 -101t-29.5 -98.5t-42.5 -89.5t-50.5 -73t-53 -49t-50.5 -18q-27 0 -48.5 19.5t-35.5 53
t-21.5 78t-7.5 94.5q0 97 17 156t46 90.5t66.5 41.5t79.5 10q26 0 50 -9zM166 26q19 0 40.5 28t41.5 74t37 105t28 120q3 17 4 30.5t1 25.5q0 25 -5.5 40t-15 23.5t-22.5 11.5t-28 3q-18 0 -35 -4.5t-31 -19t-26 -41t-19 -69.5q-17 -94 -17 -176q0 -33 3 -60.5t9 -47.5
t14.5 -31.5t20.5 -11.5z" />
    <glyph glyph-name="Delta" unicode="&#x2206;" horiz-adv-x="567" 
d="M30 50l220 580h56l231 -580v-50h-507v50zM287 520l-201 -470h358z" />
    <glyph glyph-name="product" unicode="&#x220f;" horiz-adv-x="538" 
d="M380 620h-223l-10 -700h-56l-11 750h378l-11 -750h-56z" />
    <glyph glyph-name="summation" unicode="&#x2211;" horiz-adv-x="458" 
d="M40 -30l202 337l-202 313v50h378v-50h-285l184 -341l-221 -309h342v-50h-398v50z" />
    <glyph glyph-name="minus" unicode="&#x2212;" 
d="M70 297v50h380v-50h-380z" />
    <glyph glyph-name="uni2215" unicode="&#x2215;" horiz-adv-x="258" 
d="M0 0zM212 677l46 -13l-212 -711l-46 13z" />
    <glyph glyph-name="radical" unicode="&#x221a;" horiz-adv-x="477" 
d="M209 -73q27 0 50.5 52t40.5 140.5t27 205.5t10 246v179h180v-47h-125v-132q0 -138 -10.5 -262.5t-32.5 -218.5t-57 -149.5t-83 -55.5q-24 0 -47 18.5t-42.5 50t-36 73.5t-28.5 88.5t-18.5 95t-6.5 94.5h81q0 -59 8 -125.5t21.5 -122.5t31 -93t37.5 -37z" />
    <glyph glyph-name="infinity" unicode="&#x221e;" horiz-adv-x="693" 
d="M187 209q23 0 41 9t33 24.5t28.5 36t27.5 43.5q-15 22 -29 41.5t-29.5 33.5t-33.5 22.5t-39 8.5q-45 0 -71 -29t-26 -80t27 -80.5t71 -29.5zM345 276q-13 -22 -29 -43.5t-35.5 -38.5t-43 -27.5t-51.5 -10.5q-34 0 -62.5 11.5t-49.5 32.5t-32.5 51t-11.5 68q0 37 11.5 67
t32 51t49 32.5t63.5 11.5q29 0 52 -10.5t42 -27.5t35.5 -38t32.5 -43q13 22 29 43.5t35.5 38.5t42.5 27.5t52 10.5q34 0 62.5 -11.5t49.5 -32.5t32.5 -51.5t11.5 -67.5t-11.5 -67t-32 -51t-49.5 -32.5t-63 -11.5q-29 0 -52 10.5t-42 27.5t-35.5 38t-32.5 43zM506 429
q-23 0 -41 -9t-33 -24.5t-28.5 -36t-27.5 -43.5q15 -22 29 -41.5t29.5 -33.5t33.5 -22.5t39 -8.5q45 0 71 29t26 80t-27 80.5t-71 29.5z" />
    <glyph glyph-name="integral" unicode="&#x222b;" horiz-adv-x="430" 
d="M248 163q-3 -80 -11.5 -149t-25 -120t-41.5 -80t-61 -29q-14 0 -28.5 5.5t-27.5 18.5t-23 35t-14 56l53 17q4 -45 17 -62.5t29 -17.5q15 0 26 26.5t18 71.5t11 105t6 127l4 100q3 80 11.5 149t25 120t41.5 80t61 29q14 0 28.5 -5.5t27.5 -18.5t22.5 -35t14.5 -56l-53 -17
q-4 45 -17 62.5t-29 17.5q-15 0 -26 -26.5t-18 -71.5t-11 -105t-6 -127z" />
    <glyph glyph-name="approxequal" unicode="&#x2248;" 
d="M450 387q-42 25 -91 25q-25 0 -49 -8.5t-49 -18t-50.5 -18t-53.5 -8.5q-24 0 -46 6t-41 22v50q18 -15 40 -21.5t46 -6.5q25 0 49.5 8.5t49 18t49.5 18t52 8.5q51 0 94 -25v-50zM450 207q-42 25 -91 25q-25 0 -49 -8.5t-49 -18t-50.5 -18t-53.5 -8.5q-24 0 -46 6t-41 22
v50q18 -15 40 -21.5t46 -6.5q25 0 49.5 8.5t49 18t49.5 18t52 8.5q51 0 94 -25v-50z" />
    <glyph glyph-name="notequal" unicode="&#x2260;" 
d="M70 0zM70 387v50h380v-50h-380zM70 207v50h380v-50h-380zM343 677l46 -13l-212 -711l-46 13z" />
    <glyph glyph-name="lessequal" unicode="&#x2264;" 
d="M70 1zM70 297v50l380 150v-50l-322 -125l322 -125v-50zM70 1v50h380v-50h-380z" />
    <glyph glyph-name="greaterequal" unicode="&#x2265;" 
d="M70 1zM70 147v50l322 125l-322 125v50l380 -150v-50zM70 1v50h380v-50h-380z" />
    <glyph glyph-name="lozenge" unicode="&#x25ca;" horiz-adv-x="567" 
d="M317 -130h-56l-201 380l190 380h56l201 -380zM300 -54l114 304l-124 304l-174 -304z" />
    <glyph glyph-name="commaaccent" unicode="&#xf6c3;" horiz-adv-x="300" 
d="M88 -242q20 17 35 43t15 52q-14 8 -23 25.5t-9 41.5q0 23 15.5 29t37.5 6t37 -6t15 -29q0 -36 -10 -66t-25 -54t-32.5 -41.5t-32.5 -27.5l-23 27v0z" />
    <glyph glyph-name="apple" unicode="&#xf8ff;" horiz-adv-x="923" 
d="M556 -89q-14 -4 -24.5 -13.5t-23.5 -9.5q-11 0 -23 5t-23 5q-12 0 -23.5 -6t-22.5 -6q-8 0 -14 4t-12 8.5t-13 8.5t-16 4q-6 0 -12.5 -1t-11.5 -1q-10 0 -17 4.5t-13 10.5t-11 12t-10 9q-9 4 -15 5.5t-11 2t-9.5 1t-10.5 4.5q-7 4 -10.5 10t-6.5 13t-5.5 13t-7.5 10
q-10 8 -20.5 10t-18.5 14q-8 14 -7.5 23.5t-7.5 23.5q-3 4 -8.5 9t-11.5 10.5t-10 12.5t-4 17q0 7 1.5 13t1.5 12q0 7 -4 13.5t-8.5 13t-8.5 13.5t-4 15q0 11 6 22t6 22q0 13 -6 22t-6 20q0 8 4 16t8.5 15.5t8.5 15t4 14.5q0 6 -0.5 12.5t-0.5 12.5q0 9 4 15.5t9.5 11.5
t11.5 10t10 11q5 8 5.5 21.5t5.5 21.5q6 10 19 13t21 11t12.5 20.5t12.5 20.5q10 8 24.5 9.5t26.5 7.5q6 3 11 9.5t10.5 12.5t12 11t15.5 5q6 0 12.5 -1t13.5 -1q9 0 16 3.5t13 8t12 8t14 3.5q10 0 22 -6t22 -6q11 0 22.5 6t22.5 6q10 0 16.5 -4t12.5 -8.5t12.5 -8.5
t15.5 -4q6 0 13 1.5t15 1.5q10 0 16 -4t11 -10t9.5 -12t11.5 -10q11 -6 22.5 -6.5t22.5 -8.5q10 -7 12 -18.5t11 -20.5q11 -10 27 -16t24 -20q5 -8 3.5 -21t3.5 -21q4 -7 10 -11.5t12 -9.5t10 -11.5t4 -16.5q0 -7 -0.5 -13t-0.5 -12q0 -9 3.5 -17t8 -15t8.5 -14t4 -15
q0 -11 -5.5 -20t-5.5 -19q0 -11 5.5 -22t5.5 -22q-1 -8 -5 -12.5t-8.5 -9.5t-8 -11t-3.5 -15q0 -8 1 -16t1 -16q0 -11 -4 -17t-9.5 -10.5t-11 -8.5t-9.5 -10q-6 -11 -8 -26t-10 -25q-7 -8 -17 -11t-18 -11q-9 -9 -14.5 -22.5t-15.5 -20.5t-24 -9.5t-25 -8.5q-6 -4 -10.5 -9
t-9 -9.5t-10 -7.5t-15.5 -3q-6 0 -11.5 0.5t-11.5 0.5q-7 0 -10 -1zM530 3q3 1 9 1q4 0 7.5 -0.5t7.5 -0.5q15 0 19.5 8.5t13.5 12.5q8 5 18 7t17 7q8 5 12 14.5t10 15.5q5 6 13 8t13 8q5 8 6.5 19t6.5 19q3 5 7 8l8 6t6.5 7.5t2.5 13.5q0 5 -0.5 10t-0.5 10q0 7 2.5 11.5
t5.5 8.5t6 7.5t4 8.5q0 8 -4 16t-4 16q0 7 4 14t4 14q0 12 -9 21.5t-9 23.5q0 4 0.5 8t0.5 9q0 8 -3 12.5t-7 8t-8.5 7t-7.5 8.5q-3 6 -2.5 15.5t-2.5 15.5q-6 10 -17.5 14t-19.5 12q-7 6 -8 14.5t-9 13.5q-8 6 -16 6t-17 5q-5 3 -8 7t-6.5 8.5t-8 7.5t-11.5 3q-5 0 -10 -1
t-10 -1q-7 0 -11.5 3l-9 6l-9 6t-11.5 3q-8 0 -16.5 -4.5t-16.5 -4.5t-16 4.5t-16 4.5q-12 0 -20 -8.5t-22 -8.5q-5 0 -8.5 0.5t-8.5 0.5q-14 0 -20 -11t-16 -16q-8 -5 -18.5 -5.5t-17.5 -6.5q-7 -5 -10 -14.5t-9 -15.5t-15 -8t-14 -9q-4 -6 -4 -15.5t-4 -15.5
q-3 -5 -7 -8.5t-8.5 -7.5t-7.5 -8.5t-3 -11.5q0 -4 0.5 -8t0.5 -8q0 -12 -8.5 -23t-8.5 -23q0 -8 4 -14.5t4 -15.5q0 -8 -4 -16.5t-4 -16.5q0 -11 8.5 -20.5t8.5 -20.5q0 -4 -1 -8t-1 -8q0 -14 10.5 -21t14.5 -14q6 -10 5.5 -17.5t5.5 -17.5q5 -8 13 -9.5t15 -7.5
q8 -6 10 -17t12 -17q4 -3 7.5 -3.5t7 -0.5t8 -1t10.5 -4q8 -4 15.5 -15t21.5 -11q4 0 7.5 0.5t7.5 0.5q14 0 21.5 -8t18.5 -10q9 0 18 4.5t18 4.5q8 0 16.5 -3.5t16.5 -3.5q9 0 17 7t18 9zM462 417q35 0 66 -13.5t54 -36.5t36.5 -54t13.5 -66t-13.5 -66t-36.5 -54t-54 -36.5
t-66 -13.5t-66 13.5t-54 36.5t-36.5 54t-13.5 66t13.5 66t36.5 54t54 36.5t66 13.5zM557 292v68h-191v-68h54v-175h85v175h52z" />
    <glyph glyph-name="fi" unicode="&#xfb01;" horiz-adv-x="559" 
d="M50 0zM130 516q4 55 13 100.5t23.5 78.5t35 51.5t48.5 18.5q14 0 30 -5.5t31 -18.5t26 -35t16 -56l-79 -24q-4 45 -15 66t-27 21q-12 0 -19.5 -14.5t-12.5 -41t-7 -62.5t-3 -79h106v-58l-106 4v-14v-25t0.5 -46.5t1 -79t1.5 -122t3 -175.5h-76q1 103 2 175.5t2 122
t1 79.5t0.5 47.5t1 25.5t0.5 15l-77 3v48h80zM396 516h78l-11 -516h-56zM434 585q-10 0 -18.5 7.5t-14.5 20t-9.5 28.5t-3.5 32q0 24 13.5 30.5t32.5 6.5t32 -6.5t13 -30.5q0 -16 -3.5 -32t-9.5 -28.5t-14 -20t-18 -7.5z" />
    <glyph glyph-name="fl" unicode="&#xfb02;" horiz-adv-x="544" 
d="M50 0zM130 516q4 55 13 100.5t23.5 78.5t35 51.5t48.5 18.5q14 0 30 -5.5t31 -18.5t26 -35t16 -56l-79 -24q-4 45 -15 66t-27 21q-12 0 -19.5 -14.5t-12.5 -41t-7 -62.5t-3 -79h106v-58l-106 4v-14v-25t0.5 -46.5t1 -79t1.5 -122t3 -175.5h-76q1 103 2 175.5t2 122
t1 79.5t0.5 47.5t1 25.5t0.5 15l-77 3v48h80zM387 750h78l-11 -750h-56z" />
    <glyph glyph-name="acute.case" horiz-adv-x="444" 
d="M197 724q-3 0 -8 1.5t-5 6.5q0 8 14.5 23.5t34.5 32t40.5 31.5t32.5 22q10 6 19 6q14 0 25 -16t11 -30t-18 -24q-10 -6 -30 -15t-42 -17.5t-42.5 -14.5t-31.5 -6z" />
    <glyph glyph-name="dieresis.case" horiz-adv-x="339" 
d="M94 738q-9 0 -17 7.5t-14 19.5t-9.5 27t-3.5 30q0 23 13 29t31 6t30.5 -6t12.5 -29q0 -15 -3 -30t-9 -27t-14 -19.5t-17 -7.5zM246 738q-9 0 -17 7.5t-14 19.5t-9.5 27t-3.5 30q0 23 13 29t31 6t30.5 -6t12.5 -29q0 -15 -3 -30t-9 -27t-14 -19.5t-17 -7.5z" />
    <glyph glyph-name="grave.case" horiz-adv-x="277" 
d="M214 724q-11 0 -31.5 6t-42.5 14.5t-42 17.5t-30 15q-18 10 -18 24t11 30t25 16q9 0 19 -6q12 -7 32.5 -22t40.5 -31.5t34.5 -32t14.5 -23.5q0 -5 -5 -6.5t-8 -1.5z" />
    <glyph glyph-name="ring.case" horiz-adv-x="205" 
d="M103 720q-17 0 -31.5 9t-25.5 24t-17.5 34t-6.5 39q0 29 24 37t57 8t56 -8t23 -37q0 -20 -6 -39t-16.5 -34t-25 -24t-31.5 -9zM103 760q13 0 21.5 17t8.5 32q0 12 -8.5 17t-21.5 5q-14 0 -23 -5t-9 -17q0 -15 9 -32t23 -17z" />
    <glyph glyph-name="circumflex.case" horiz-adv-x="334" 
d="M271 724q-8 0 -21 5.5t-27.5 13.5t-29.5 17t-26 17q-11 -8 -26 -17t-29.5 -17t-27.5 -13.5t-21 -5.5q-3 0 -8 1.5t-5 6.5q0 8 12.5 25t29 35.5t33.5 35t26 23.5q9 6 16 6q5 0 16 -6q9 -7 26 -23.5t33.5 -35t29 -35.5t12.5 -25q0 -5 -5 -6.5t-8 -1.5z" />
    <glyph glyph-name="caron.case" horiz-adv-x="334" 
d="M63 857q8 0 21 -5.5t27.5 -13.5t29.5 -17.5t26 -16.5q11 7 26 16.5t29.5 17.5t27.5 13.5t21 5.5q3 0 8 -1.5t5 -6.5q0 -8 -12.5 -25t-29 -35.5t-33.5 -35t-26 -23.5q-9 -6 -16 -6q-6 0 -16 6q-9 7 -26 23.5t-33.5 35t-29 35.5t-12.5 25q0 5 5 6.5t8 1.5z" />
    <glyph glyph-name="dotaccent.case" horiz-adv-x="251" 
d="M126 735q-10 0 -18.5 7.5t-14.5 20t-9.5 28.5t-3.5 32q0 24 13.5 30.5t32.5 6.5t32 -6.5t13 -30.5q0 -16 -3.5 -32t-9.5 -28.5t-14 -20t-18 -7.5z" />
    <glyph glyph-name="hungarumlaut.case" horiz-adv-x="357" 
d="M61 724q-2 0 -6.5 1.5t-4.5 6.5q0 8 9 25t21.5 35.5t25 35t19.5 23.5q6 6 12 6q7 0 14.5 -4.5t13 -11.5t9 -15t3.5 -15q0 -6 -2.5 -12.5t-10.5 -11.5q-7 -6 -21 -16.5t-29.5 -21t-30 -18t-22.5 -7.5zM191 724q-2 0 -6.5 1.5t-4.5 6.5q0 8 9 25t21.5 35.5t25 35t19.5 23.5
q6 6 12 6q7 0 14.5 -4.5t13 -11.5t9 -15t3.5 -15q0 -6 -2.5 -12.5t-10.5 -11.5q-7 -6 -21 -16.5t-29.5 -21t-30 -18t-22.5 -7.5z" />
    <glyph glyph-name="macron.case" horiz-adv-x="334" 
d="M274 821q5 0 8.5 -9.5t3.5 -21.5t-3.5 -21.5t-8.5 -9.5h-214q-5 0 -8.5 9.5t-3.5 21.5t3.5 21.5t8.5 9.5h214z" />
    <glyph glyph-name="breve.case" horiz-adv-x="334" 
d="M93 857q4 -11 9.5 -24t14 -24t20.5 -18t30 -7t30 7t20.5 18t14 24t9.5 24q1 0 8 -0.5t15 -1t14 -2t6 -4.5q0 -8 -5 -28.5t-18 -42t-36 -38t-58 -16.5q-38 0 -61 17t-35.5 38.5t-16.5 42t-4 27.5q0 3 6 4.5t14 2t14.5 1t8.5 0.5z" />
    <glyph glyph-name="eslash" horiz-adv-x="236" 
d="M236 531v-45l-236 -100v45z" />
    <glyph glyph-name="barra" horiz-adv-x="336" 
d="M336 431v-45h-336v45h336z" />
    <glyph glyph-name="tilde.case" horiz-adv-x="366" 
d="M240 733q-16 0 -30.5 9t-27.5 20.5t-24.5 20.5t-21.5 9q-5 0 -10 -1.5t-9 -7.5t-6.5 -18t-2.5 -32l-58 16q3 32 10.5 53t17 33t22 17t26.5 5q18 0 32 -9t25.5 -20.5t22.5 -20.5t24 -9q5 0 10 1.5t9 7.5t6.5 18t2.5 32l58 -16q-3 -32 -10.5 -53t-17 -33t-22 -17t-26.5 -5z
" />
    <glyph glyph-name=".ttfautohint" horiz-adv-x="677" 
d="M0 0z" />
    </font>
</defs>
</svg>
