<svg width="182" height="28" viewBox="0 0 182 28" fill="none" xmlns="http://www.w3.org/2000/svg">
<g clip-path="url(#clip0_6773_5380)">
<path d="M31.339 0.924805H41.1188C46.209 0.924805 49.5575 4.03984 49.5575 8.8873C49.5575 13.7348 46.2131 16.8873 41.1188 16.8873H34.4995V26.8529H31.335V0.924805H31.339ZM34.5036 3.88575V13.9222H40.8285C44.1729 13.9222 46.3194 11.9607 46.3194 8.88314C46.3194 5.80558 44.2138 3.88159 40.8653 3.88159H34.5036V3.88575Z" fill="#0D1834"/>
<path d="M61.1128 8.01562V10.9682H59.6342C55.7817 10.9682 54.7325 14.2571 54.7325 17.2471V26.8523H51.7793V8.01562H54.3395L54.7325 10.8602C55.5953 9.41924 57.0051 8.01562 60.2823 8.01562H61.1128Z" fill="#0D1834"/>
<path d="M60.8988 17.439C60.8988 11.7115 64.454 7.79492 69.6726 7.79492C74.8913 7.79492 78.3038 11.1591 78.4465 16.7329C78.4465 17.1358 78.4098 17.5844 78.3731 18.0246H64.0096V18.2821C64.1197 21.8665 66.3335 24.3793 69.848 24.3793C72.4573 24.3793 74.4877 22.9754 75.1074 20.5374H78.1163C77.3905 24.3045 74.345 27.0748 70.0681 27.0748C64.5233 27.0748 60.8906 23.1956 60.8906 17.4307H60.8947L60.8988 17.439ZM75.2623 15.5243C74.9728 12.2722 72.7957 10.4614 69.7134 10.4614C66.994 10.4614 64.4907 12.455 64.2012 15.5243H75.2664H75.2623Z" fill="#0D1834"/>
<path d="M108.002 15.9954V26.8532H105.038V16.1781C105.038 12.4868 103.444 10.5644 100.663 10.5644C97.585 10.5644 95.7064 12.9311 95.7064 16.7677V26.8532H92.7422V16.1781C92.7422 12.4868 91.1158 10.5644 88.2939 10.5644C85.2524 10.5644 83.4105 13.1512 83.4105 16.9171V26.8532H80.4463V8.01498H83.0161L83.4105 10.6018C84.3864 9.23156 85.9437 7.79492 88.7981 7.79492C91.3679 7.79492 93.5758 8.97413 94.6208 11.3782C95.7389 9.34782 97.7313 7.79492 101.021 7.79492C104.851 7.79492 108.002 10.0495 108.002 15.9912V15.9954Z" fill="#0D1834"/>
<path d="M110.67 2.88062C110.67 1.73869 111.492 0.924805 112.559 0.924805C113.626 0.924805 114.448 1.73869 114.448 2.88062C114.448 4.02256 113.626 4.83644 112.559 4.83644C111.492 4.83644 110.67 4.02256 110.67 2.88062ZM111.059 8.01724H113.983V26.8529H111.059V8.01724Z" fill="#0D1834"/>
<path d="M115.788 17.439C115.788 11.7115 119.344 7.79492 124.562 7.79492C129.781 7.79492 133.193 11.1591 133.336 16.7329C133.336 17.1358 133.299 17.5844 133.263 18.0246H118.899V18.2821C119.009 21.8665 121.223 24.3793 124.738 24.3793C127.347 24.3793 129.377 22.9754 129.997 20.5374H133.006C132.28 24.3045 129.235 27.0748 124.958 27.0748C119.413 27.0748 115.78 23.1956 115.78 17.4307H115.784L115.788 17.439ZM130.152 15.5243C129.862 12.2722 127.685 10.4614 124.603 10.4614C121.884 10.4614 119.38 12.455 119.091 15.5243H130.156H130.152Z" fill="#0D1834"/>
<path d="M144.668 8.01562V10.9682H143.19C139.337 10.9682 138.288 14.2571 138.288 17.2471V26.8523H135.335V8.01562H137.895L138.288 10.8602C139.151 9.41924 140.561 8.01562 143.838 8.01562H144.668Z" fill="#0D1834"/>
<path d="M25.1116 4.67601L9.02758 21.0911L2.22205 14.1455C-0.740684 11.1217 -0.740684 6.21632 2.22205 3.1926C5.18479 0.168873 9.99127 0.168873 12.954 3.1926L16.1079 6.40734L21.4559 0.94919L25.1076 4.67601H25.1116Z" fill="#054FF0"/>
<path d="M22.5454 24.6692C19.7305 27.5778 15.1546 27.5819 12.3397 24.6692L9.55664 21.7935L20.3174 10.6748L22.5454 12.9769C25.6719 16.2074 25.6719 21.4387 22.5454 24.6692Z" fill="#0D1834"/>
<path d="M8.22237 21.9048L3.58191 26.8527L0 23.2183L4.64046 18.21L8.22237 21.9048Z" fill="#0D1834"/>
</g>
<path d="M148.239 8.03711H151.009C152.449 8.03711 153.397 8.96347 153.397 10.4049C153.397 11.8463 152.449 12.7881 151.009 12.7881H149.136V15.7517H148.239V8.04095V8.03711ZM149.136 8.91735V11.904H150.927C151.875 11.904 152.481 11.3197 152.481 10.4049C152.481 9.49008 151.886 8.91735 150.935 8.91735H149.136Z" fill="#0D1834"/>
<path d="M158.739 12.6238V15.7527H157.896V12.6815C157.896 11.513 157.371 10.898 156.463 10.898C155.484 10.898 154.878 11.6783 154.878 12.9467V15.7566H154.035V8.04199H154.878V11.0594C155.185 10.5328 155.721 10.0677 156.61 10.0677C157.787 10.0677 158.739 10.7634 158.739 12.6238Z" fill="#0D1834"/>
<path d="M164.524 14.921V15.7475H164.062C163.359 15.7475 163.122 15.4284 163.115 14.8788C162.784 15.3861 162.26 15.8167 161.355 15.8167C160.202 15.8167 159.417 15.2016 159.417 14.1715C159.417 13.0491 160.147 12.4187 161.526 12.4187H163.072V12.0305C163.072 11.304 162.586 10.862 161.763 10.862C161.021 10.862 160.528 11.2348 160.427 11.8114H159.584C159.708 10.712 160.543 10.0586 161.81 10.0586C163.146 10.0586 163.918 10.7735 163.918 12.0843V14.5405C163.918 14.8365 164.019 14.9134 164.256 14.9134H164.52L164.524 14.921ZM163.072 13.1836H161.444C160.691 13.1836 160.268 13.4796 160.268 14.1215C160.268 14.6712 160.71 15.0479 161.413 15.0479C162.462 15.0479 163.072 14.3983 163.072 13.4642V13.1875H163.076L163.072 13.1836Z" fill="#0D1834"/>
<path d="M167.837 10.1338V11.0179H167.414C166.315 11.0179 166.012 11.998 166.012 12.8898V15.7535H165.169V10.1376H165.899L166.012 10.9833C166.26 10.5528 166.664 10.1376 167.596 10.1376H167.833L167.837 10.1338Z" fill="#0D1834"/>
<path d="M176.21 12.508V15.7484H175.367V12.5618C175.367 11.4625 174.913 10.8859 174.12 10.8859C173.246 10.8859 172.707 11.5932 172.707 12.7348V15.7407H171.864V12.5542C171.864 11.4548 171.402 10.8782 170.598 10.8782C169.735 10.8782 169.211 11.6509 169.211 12.7733V15.7368H168.368V10.121H169.098L169.211 10.8936C169.487 10.4862 169.933 10.0557 170.745 10.0557C171.475 10.0557 172.105 10.4055 172.404 11.1242C172.722 10.5208 173.285 10.0557 174.225 10.0557C175.317 10.0557 176.214 10.7283 176.214 12.5003V12.508H176.21Z" fill="#0D1834"/>
<path d="M182 14.921V15.7475H181.538C180.835 15.7475 180.598 15.4284 180.59 14.8788C180.26 15.3861 179.736 15.8167 178.831 15.8167C177.677 15.8167 176.893 15.2016 176.893 14.1715C176.893 13.0491 177.623 12.4187 179.002 12.4187H180.547V12.0305C180.547 11.304 180.062 10.862 179.238 10.862C178.497 10.862 178.003 11.2348 177.902 11.8114H177.06C177.18 10.712 178.019 10.0586 179.285 10.0586C180.621 10.0586 181.394 10.7735 181.394 12.0843V14.5405C181.394 14.8365 181.495 14.9134 181.732 14.9134H181.996L182 14.921ZM180.547 13.1836H178.924C178.17 13.1836 177.747 13.4796 177.747 14.1215C177.747 14.6712 178.19 15.0479 178.893 15.0479C179.941 15.0479 180.551 14.3983 180.551 13.4642V13.1875L180.547 13.1836Z" fill="#0D1834"/>
<defs>
<clipPath id="clip0_6773_5380">
<rect width="142.447" height="26.1497" fill="white" transform="translate(0 0.924805)"/>
</clipPath>
</defs>
</svg>
