<svg width="186" height="36" viewBox="0 0 186 36" fill="none" xmlns="http://www.w3.org/2000/svg">
<path d="M54.038 35H52.386L51.546 32.634H46.548L45.708 35H44.126L47.71 25.2H50.454L54.038 35ZM49.054 25.648L47.052 31.248H51.042L49.054 25.648ZM62.1254 27.846H66.9134V35H65.4434V29.148H62.1254V35H60.6554V29.148H57.3374V35H55.8674V29.148H54.3414V27.846H55.8674V27.258C55.8674 26.3713 56.0867 25.7133 56.5254 25.284C56.9641 24.8547 57.6454 24.64 58.5694 24.64H59.3534V25.942H58.5694C58.1401 25.942 57.8274 26.04 57.6314 26.236C57.4354 26.432 57.3374 26.7493 57.3374 27.188V27.846H60.6554V27.258C60.6554 26.3713 60.8747 25.7133 61.3134 25.284C61.7521 24.8547 62.4334 24.64 63.3574 24.64H64.1414V25.942H63.3574C62.9281 25.942 62.6154 26.04 62.4194 26.236C62.2234 26.432 62.1254 26.7493 62.1254 27.188V27.846ZM66.1714 26.698C65.9287 26.698 65.7141 26.6093 65.5274 26.432C65.3501 26.2547 65.2614 26.04 65.2614 25.788C65.2614 25.536 65.3501 25.3213 65.5274 25.144C65.7141 24.9667 65.9287 24.878 66.1714 24.878C66.4234 24.878 66.6381 24.9667 66.8154 25.144C67.0021 25.3213 67.0954 25.536 67.0954 25.788C67.0954 26.04 67.0021 26.2547 66.8154 26.432C66.6381 26.6093 66.4234 26.698 66.1714 26.698ZM70.3296 35H68.8596V24.64H70.3296V35ZM72.3608 26.432C72.1834 26.2547 72.0948 26.04 72.0948 25.788C72.0948 25.536 72.1834 25.3213 72.3608 25.144C72.5474 24.9667 72.7668 24.878 73.0188 24.878C73.2708 24.878 73.4854 24.9667 73.6628 25.144C73.8401 25.3213 73.9288 25.536 73.9288 25.788C73.9288 26.04 73.8401 26.2547 73.6628 26.432C73.4854 26.6093 73.2708 26.698 73.0188 26.698C72.7668 26.698 72.5474 26.6093 72.3608 26.432ZM73.7468 35H72.2768V27.846H73.7468V35ZM78.634 27.706C79.4926 27.706 80.1926 27.93 80.734 28.378C81.2753 28.826 81.546 29.47 81.546 30.31V35H80.076V33.096C79.6373 34.4587 78.7553 35.14 77.43 35.14C76.814 35.14 76.3006 34.958 75.89 34.594C75.4793 34.2207 75.274 33.7353 75.274 33.138C75.274 32.438 75.5213 31.9153 76.016 31.57C76.5106 31.2153 77.1406 30.996 77.906 30.912L79.292 30.772C79.8146 30.7253 80.076 30.492 80.076 30.072C80.076 29.7267 79.9406 29.4513 79.67 29.246C79.4086 29.0407 79.0633 28.938 78.634 28.938C78.1953 28.938 77.822 29.05 77.514 29.274C77.2153 29.498 77.024 29.8247 76.94 30.254L75.484 29.904C75.6146 29.232 75.9646 28.7 76.534 28.308C77.1033 27.9067 77.8033 27.706 78.634 27.706ZM77.906 33.95C78.5126 33.95 79.026 33.7493 79.446 33.348C79.866 32.9373 80.076 32.4613 80.076 31.92V31.528C79.964 31.7147 79.6933 31.8313 79.264 31.878L77.906 32.046C77.5513 32.0927 77.2666 32.2 77.052 32.368C76.8466 32.5267 76.744 32.746 76.744 33.026C76.744 33.306 76.8466 33.53 77.052 33.698C77.2666 33.866 77.5513 33.95 77.906 33.95ZM83.9736 29.148H82.4476V27.846H83.9736V25.522L85.4436 25.06V27.846H87.4596V29.148H85.4436V32.452C85.4436 32.8907 85.5416 33.208 85.7376 33.404C85.9336 33.6 86.2463 33.698 86.6756 33.698H87.4596V35H86.6756C85.7516 35 85.0703 34.7853 84.6316 34.356C84.193 33.9267 83.9736 33.2687 83.9736 32.382V29.148ZM92.2614 27.706C93.4094 27.706 94.3427 28.1167 95.0614 28.938C95.7801 29.7593 96.0741 30.7533 95.9434 31.92H90.0214C90.1241 32.4987 90.3901 32.97 90.8194 33.334C91.2487 33.6887 91.7667 33.866 92.3734 33.866C92.8401 33.866 93.2554 33.754 93.6194 33.53C93.9927 33.2967 94.2821 32.984 94.4874 32.592L95.7194 33.138C95.4021 33.7447 94.9494 34.23 94.3614 34.594C93.7734 34.958 93.0967 35.14 92.3314 35.14C91.2581 35.14 90.3574 34.7853 89.6294 34.076C88.9014 33.3667 88.5374 32.4847 88.5374 31.43C88.5374 30.3753 88.8921 29.4933 89.6014 28.784C90.3201 28.0653 91.2067 27.706 92.2614 27.706ZM92.2614 28.98C91.7201 28.98 91.2487 29.148 90.8474 29.484C90.4554 29.8107 90.1941 30.24 90.0634 30.772H94.4594C94.3381 30.24 94.0767 29.8107 93.6754 29.484C93.2834 29.148 92.8121 28.98 92.2614 28.98ZM103.714 35H102.16V25.2H106.08C107.078 25.2 107.89 25.494 108.516 26.082C109.141 26.67 109.454 27.412 109.454 28.308C109.454 29.1947 109.141 29.9273 108.516 30.506C107.89 31.0847 107.078 31.374 106.08 31.374H103.714V35ZM103.714 26.586V29.988H106.08C106.602 29.988 107.027 29.8293 107.354 29.512C107.69 29.1853 107.858 28.7793 107.858 28.294C107.858 27.7993 107.69 27.3933 107.354 27.076C107.027 26.7493 106.602 26.586 106.08 26.586H103.714ZM112.242 35H110.772V24.64H112.242V35ZM117.129 27.706C117.988 27.706 118.688 27.93 119.229 28.378C119.771 28.826 120.041 29.47 120.041 30.31V35H118.571V33.096C118.133 34.4587 117.251 35.14 115.925 35.14C115.309 35.14 114.796 34.958 114.385 34.594C113.975 34.2207 113.769 33.7353 113.769 33.138C113.769 32.438 114.017 31.9153 114.511 31.57C115.006 31.2153 115.636 30.996 116.401 30.912L117.787 30.772C118.31 30.7253 118.571 30.492 118.571 30.072C118.571 29.7267 118.436 29.4513 118.165 29.246C117.904 29.0407 117.559 28.938 117.129 28.938C116.691 28.938 116.317 29.05 116.009 29.274C115.711 29.498 115.519 29.8247 115.435 30.254L113.979 29.904C114.11 29.232 114.46 28.7 115.029 28.308C115.599 27.9067 116.299 27.706 117.129 27.706ZM116.401 33.95C117.008 33.95 117.521 33.7493 117.941 33.348C118.361 32.9373 118.571 32.4613 118.571 31.92V31.528C118.459 31.7147 118.189 31.8313 117.759 31.878L116.401 32.046C116.047 32.0927 115.762 32.2 115.547 32.368C115.342 32.5267 115.239 32.746 115.239 33.026C115.239 33.306 115.342 33.53 115.547 33.698C115.762 33.866 116.047 33.95 116.401 33.95ZM122.469 29.148H120.943V27.846H122.469V25.522L123.939 25.06V27.846H125.955V29.148H123.939V32.452C123.939 32.8907 124.037 33.208 124.233 33.404C124.429 33.6 124.742 33.698 125.171 33.698H125.955V35H125.171C124.247 35 123.566 34.7853 123.127 34.356C122.688 33.9267 122.469 33.2687 122.469 32.382V29.148ZM129.872 35H128.402V29.148H126.876V27.846H128.402V27.258C128.402 26.3713 128.621 25.7133 129.06 25.284C129.498 24.8547 130.18 24.64 131.104 24.64H131.888V25.942H131.104C130.674 25.942 130.362 26.04 130.166 26.236C129.97 26.432 129.872 26.7493 129.872 27.188V27.846H131.888V29.148H129.872V35ZM133.729 34.076C133.001 33.3667 132.637 32.4847 132.637 31.43C132.637 30.3753 133.001 29.4933 133.729 28.784C134.457 28.0653 135.358 27.706 136.431 27.706C137.505 27.706 138.405 28.0653 139.133 28.784C139.861 29.4933 140.225 30.3753 140.225 31.43C140.225 32.4847 139.861 33.3667 139.133 34.076C138.405 34.7853 137.505 35.14 136.431 35.14C135.358 35.14 134.457 34.7853 133.729 34.076ZM134.807 29.75C134.369 30.198 134.149 30.758 134.149 31.43C134.149 32.102 134.369 32.662 134.807 33.11C135.246 33.558 135.787 33.782 136.431 33.782C137.085 33.782 137.626 33.558 138.055 33.11C138.494 32.662 138.713 32.102 138.713 31.43C138.713 30.7487 138.494 30.184 138.055 29.736C137.626 29.288 137.085 29.064 136.431 29.064C135.787 29.064 135.246 29.2927 134.807 29.75ZM143.369 27.846V29.736C143.602 28.8867 143.966 28.3127 144.461 28.014C144.965 27.7153 145.534 27.6407 146.169 27.79V29.19C145.394 28.9753 144.732 29.0453 144.181 29.4C143.64 29.7453 143.369 30.2633 143.369 30.954V35H141.899V27.846H143.369ZM156.056 27.706C156.793 27.706 157.395 27.9907 157.862 28.56C158.338 29.1293 158.576 29.8527 158.576 30.73V35H157.106V30.954C157.106 30.4033 156.952 29.9507 156.644 29.596C156.345 29.232 155.972 29.05 155.524 29.05C155.02 29.05 154.605 29.232 154.278 29.596C153.961 29.9507 153.802 30.4033 153.802 30.954V35H152.332V30.954C152.332 30.4033 152.183 29.9507 151.884 29.596C151.585 29.232 151.212 29.05 150.764 29.05C150.26 29.05 149.845 29.232 149.518 29.596C149.201 29.9507 149.042 30.4033 149.042 30.954V35H147.572V27.846H149.042V29.596C149.238 29.008 149.532 28.546 149.924 28.21C150.325 27.874 150.792 27.706 151.324 27.706C151.893 27.706 152.383 27.888 152.794 28.252C153.214 28.6067 153.508 29.0873 153.676 29.694C153.844 29.0873 154.138 28.6067 154.558 28.252C154.987 27.888 155.487 27.706 156.056 27.706Z" fill="white"/>
<path d="M47.496 17.8418H44.084V1.17425H47.496V7.99826H55.2259V1.17425H58.6379V17.8418H55.2259V11.0177H47.496V17.8418Z" fill="white"/>
<path fill-rule="evenodd" clip-rule="evenodd" d="M62.6234 16.2716C61.3753 15.0437 60.7513 13.5239 60.7513 11.7122C60.7513 9.90051 61.3753 8.38072 62.6234 7.15279C63.8915 5.92487 65.4617 5.3109 67.3338 5.3109C69.2058 5.3109 70.7659 5.92487 72.0139 7.15279C73.2821 8.38072 73.9162 9.90051 73.9162 11.7122C73.9162 13.5239 73.2821 15.0437 72.0139 16.2716C70.7659 17.4794 69.2058 18.0833 67.3338 18.0833C65.4617 18.0833 63.8915 17.4794 62.6234 16.2716ZM64.0727 11.7122C64.0727 12.6986 64.3847 13.5138 65.0088 14.158C65.6328 14.8223 66.4078 15.1544 67.3338 15.1544C68.2597 15.1544 69.0247 14.8223 69.6286 14.158C70.2526 13.5138 70.5646 12.6986 70.5646 11.7122C70.5646 10.7258 70.2526 9.90051 69.6286 9.23622C69.0247 8.59207 68.2597 8.27001 67.3338 8.27001C66.4078 8.27001 65.6328 8.60214 65.0088 9.26643C64.3847 9.91059 64.0727 10.7258 64.0727 11.7122Z" fill="white"/>
<path d="M90.7649 5.3109C92.013 5.3109 93.0195 5.78396 93.7844 6.73006C94.5493 7.69629 94.9318 8.91416 94.9318 10.3836V17.8417H91.7312V10.9573C91.7312 10.1723 91.5198 9.51805 91.0971 8.99467C90.6743 8.49142 90.1409 8.2398 89.4967 8.2398C88.7922 8.2398 88.2084 8.49142 87.7454 8.99467C87.3026 9.51805 87.0812 10.1723 87.0812 10.9573V17.8417H83.8503V10.9573C83.8503 10.1723 83.6389 9.51805 83.2162 8.99467C82.7935 8.49142 82.2802 8.2398 81.6763 8.2398C80.9516 8.2398 80.3578 8.49142 79.8948 8.99467C79.4519 9.51805 79.2305 10.1723 79.2305 10.9573V17.8417H75.9997V5.55247H79.2305V8.54175C79.5526 7.53525 80.0458 6.74014 80.7101 6.15637C81.3542 5.59273 82.1292 5.3109 83.0351 5.3109C83.9812 5.3109 84.7864 5.60279 85.4506 6.18656C86.1149 6.77032 86.588 7.56546 86.8698 8.57195C87.1717 7.56546 87.6649 6.77032 88.3493 6.18656C89.0539 5.60279 89.8591 5.3109 90.7649 5.3109Z" fill="white"/>
<path fill-rule="evenodd" clip-rule="evenodd" d="M103.387 5.31092C105.46 5.31092 107.121 6.05573 108.369 7.54534C109.617 9.03495 110.07 10.8064 109.727 12.8596H100.246C100.468 13.6044 100.88 14.1983 101.484 14.6411C102.068 15.1041 102.773 15.3356 103.598 15.3356C105.007 15.3356 106.024 14.7619 106.648 13.6145L109.305 14.7921C108.741 15.7986 107.956 16.6038 106.95 17.2077C105.943 17.7914 104.796 18.0833 103.507 18.0833C101.635 18.0833 100.065 17.4794 98.797 16.2716C97.5489 15.0437 96.9249 13.5239 96.9249 11.7122C96.9249 9.90053 97.5489 8.38073 98.797 7.15281C100.025 5.92489 101.555 5.31092 103.387 5.31092ZM103.387 8.08884C102.682 8.08884 102.048 8.30022 101.484 8.72295C100.901 9.12554 100.498 9.67912 100.277 10.3837H106.527C106.305 9.67912 105.913 9.12554 105.349 8.72295C104.786 8.30022 104.131 8.08884 103.387 8.08884Z" fill="white"/>
<path fill-rule="evenodd" clip-rule="evenodd" d="M120.719 9.44767C122.047 9.60871 123.084 10.0516 123.829 10.7762C124.594 11.5009 124.976 12.4168 124.976 13.524C124.976 14.7519 124.513 15.7785 123.587 16.6038C122.661 17.4292 121.443 17.8418 119.934 17.8418H111.962V1.1743H119.239C120.729 1.1743 121.936 1.58696 122.862 2.41228C123.788 3.25774 124.251 4.3045 124.251 5.55255C124.251 6.55904 123.939 7.40448 123.315 8.0889C122.711 8.77332 121.846 9.22624 120.719 9.44767ZM118.907 4.10318H115.253V8.0889H118.907C119.571 8.0889 120.105 7.89768 120.507 7.51521C120.91 7.13274 121.111 6.64961 121.111 6.06584C121.111 5.48208 120.91 5.00904 120.507 4.6467C120.105 4.28437 119.571 4.10318 118.907 4.10318ZM115.253 14.9129H119.36C120.024 14.9129 120.548 14.7318 120.93 14.3694C121.333 13.9869 121.534 13.5038 121.534 12.9201C121.534 12.3363 121.333 11.8532 120.93 11.4707C120.548 11.1084 120.024 10.9272 119.36 10.9272H115.253V14.9129Z" fill="white"/>
<path d="M130.471 5.5525V8.75314C130.874 7.2434 131.498 6.24696 132.343 5.76385C133.169 5.2606 134.085 5.17003 135.091 5.4921V8.54177C133.803 8.09891 132.716 8.11905 131.83 8.60216C130.924 9.08528 130.471 9.87034 130.471 10.9574V17.8418H127.271V5.5525H130.471Z" fill="white"/>
<path fill-rule="evenodd" clip-rule="evenodd" d="M137.325 16.2716C136.077 15.0437 135.453 13.5239 135.453 11.7122C135.453 9.90051 136.077 8.38072 137.325 7.15279C138.594 5.92487 140.164 5.3109 142.036 5.3109C143.908 5.3109 145.468 5.92487 146.716 7.15279C147.984 8.38072 148.618 9.90051 148.618 11.7122C148.618 13.5239 147.984 15.0437 146.716 16.2716C145.468 17.4794 143.908 18.0833 142.036 18.0833C140.164 18.0833 138.594 17.4794 137.325 16.2716ZM138.775 11.7122C138.775 12.6986 139.087 13.5138 139.711 14.158C140.335 14.8223 141.11 15.1544 142.036 15.1544C142.962 15.1544 143.727 14.8223 144.331 14.158C144.955 13.5138 145.267 12.6986 145.267 11.7122C145.267 10.7258 144.955 9.90051 144.331 9.23622C143.727 8.59207 142.962 8.27001 142.036 8.27001C141.11 8.27001 140.335 8.60214 139.711 9.26643C139.087 9.91059 138.775 10.7258 138.775 11.7122Z" fill="white"/>
<path d="M157.677 10.746L163.202 17.8418H159.156L155.472 13.1616L153.933 14.8525V17.8418H150.702V0.208008H153.933V10.5648L158.341 5.55249H162.387L157.677 10.746Z" fill="white"/>
<path fill-rule="evenodd" clip-rule="evenodd" d="M169.302 5.3109C171.375 5.3109 173.036 6.05571 174.284 7.54532C175.532 9.03493 175.995 10.8064 175.673 12.8596H166.162C166.383 13.6044 166.796 14.1982 167.4 14.6411C167.984 15.1041 168.698 15.3356 169.544 15.3356C170.933 15.3356 171.949 14.7619 172.593 13.6145L175.22 14.7921C174.677 15.7986 173.892 16.6038 172.865 17.2077C171.859 17.7914 170.711 18.0833 169.423 18.0833C167.551 18.0833 165.991 17.4794 164.743 16.2716C163.474 15.0437 162.84 13.5239 162.84 11.7122C162.84 9.90051 163.464 8.38072 164.712 7.15279C165.961 5.92487 167.49 5.3109 169.302 5.3109ZM169.302 8.08883C168.598 8.08883 167.963 8.3002 167.4 8.72293C166.836 9.12552 166.444 9.6791 166.222 10.3836H172.442C172.221 9.6791 171.828 9.12552 171.265 8.72293C170.721 8.3002 170.067 8.08883 169.302 8.08883Z" fill="white"/>
<path d="M181.108 5.55246V8.7531C181.49 7.24336 182.104 6.24692 182.95 5.76381C183.775 5.26056 184.691 5.16999 185.698 5.49206V8.54173C184.409 8.09888 183.322 8.11901 182.436 8.60213C181.551 9.08524 181.108 9.8703 181.108 10.9573V17.8417H177.877V5.55246H181.108Z" fill="white"/>
<path fill-rule="evenodd" clip-rule="evenodd" d="M34.42 3.96631V32.4834C34.42 34.0907 33.0898 35.421 31.4824 35.421H2.96535C1.33026 35.421 0 34.0907 0 32.4834V3.96631C0 2.33122 1.33026 1.00098 2.96535 1.00098H31.4824C33.0898 1.00098 34.42 2.33122 34.42 3.96631ZM11.0853 20.4835C11.0853 19.9846 10.6697 19.5689 10.1431 19.5689H7.12235C6.5958 19.5689 6.18009 19.9846 6.18009 20.4835V27.5781C6.18009 28.1046 6.5958 28.5203 7.12235 28.5203H10.1431C10.6697 28.5203 11.0853 28.1046 11.0853 27.5781V20.4835ZM28.2676 8.84385C28.2676 8.3173 27.8519 7.90161 27.3254 7.90161H24.3046C23.7781 7.90161 23.3624 8.3173 23.3624 8.84385V18.6821H18.4571V14.6637C18.4571 14.1371 18.0137 13.7214 17.5149 13.7214H14.4664C13.9398 13.7214 13.5241 14.1371 13.5241 14.6637V27.5781C13.5241 28.1046 13.9398 28.5203 14.4664 28.5203H17.5149C18.0137 28.5203 18.4571 28.1046 18.4571 27.5781V23.5874H23.3624V27.5781C23.3624 28.1046 23.7781 28.5203 24.3046 28.5203H27.3254C27.8519 28.5203 28.2676 28.1046 28.2676 27.5781V8.84385Z" fill="white"/>
</svg>
