<svg width="229" height="50" viewBox="0 0 229 50" fill="none" xmlns="http://www.w3.org/2000/svg">
<g clip-path="url(#clip0_1350_2554)">
<path d="M58.4768 35.7473H54.276V15.2266H58.4768V23.6282H67.9937V15.2266H72.1945V35.7473H67.9937V27.3457H58.4768V35.7473Z" fill="white"/>
<path fill-rule="evenodd" clip-rule="evenodd" d="M77.1014 33.814C75.5648 32.3022 74.7965 30.431 74.7965 28.2005C74.7965 25.97 75.5648 24.0988 77.1014 22.587C78.6627 21.0752 80.5959 20.3193 82.9007 20.3193C85.2056 20.3193 87.1263 21.0752 88.6629 22.587C90.2243 24.0988 91.005 25.97 91.005 28.2005C91.005 30.431 90.2243 32.3022 88.6629 33.814C87.1263 35.301 85.2056 36.0445 82.9007 36.0445C80.5959 36.0445 78.6627 35.301 77.1014 33.814ZM78.8858 28.2005C78.8858 29.4149 79.2699 30.4187 80.0382 31.2117C80.8065 32.0296 81.7607 32.4385 82.9007 32.4385C84.0408 32.4385 84.9825 32.0296 85.7261 31.2117C86.4943 30.4187 86.8785 29.4149 86.8785 28.2005C86.8785 26.9861 86.4943 25.97 85.7261 25.1521C84.9825 24.3591 84.0408 23.9625 82.9007 23.9625C81.7607 23.9625 80.8065 24.3715 80.0382 25.1893C79.2699 25.9824 78.8858 26.9861 78.8858 28.2005Z" fill="white"/>
<path d="M111.749 20.3193C113.285 20.3193 114.525 20.9018 115.466 22.0666C116.408 23.2562 116.879 24.7556 116.879 26.5648V35.7471H112.938V27.2711C112.938 26.3046 112.678 25.4991 112.158 24.8547C111.637 24.2351 110.981 23.9253 110.187 23.9253C109.32 23.9253 108.601 24.2351 108.031 24.8547C107.486 25.4991 107.213 26.3046 107.213 27.2711V35.7471H103.236V27.2711C103.236 26.3046 102.975 25.4991 102.455 24.8547C101.935 24.2351 101.303 23.9253 100.559 23.9253C99.6668 23.9253 98.9357 24.2351 98.3657 24.8547C97.8204 25.4991 97.5478 26.3046 97.5478 27.2711V35.7471H93.5701V20.6168H97.5478V24.2971C97.9444 23.0579 98.5516 22.079 99.3694 21.3603C100.162 20.6663 101.117 20.3193 102.232 20.3193C103.397 20.3193 104.388 20.6787 105.206 21.3974C106.024 22.1162 106.606 23.0951 106.953 24.3343C107.325 23.0951 107.932 22.1162 108.775 21.3974C109.642 20.6787 110.634 20.3193 111.749 20.3193Z" fill="white"/>
<path fill-rule="evenodd" clip-rule="evenodd" d="M127.288 20.3193C129.841 20.3193 131.886 21.2363 133.422 23.0703C134.959 24.9043 135.516 27.0852 135.095 29.6132H123.422C123.695 30.5302 124.203 31.2613 124.946 31.8065C125.665 32.3765 126.532 32.6615 127.549 32.6615C129.283 32.6615 130.535 31.9552 131.303 30.5426L134.575 31.9924C133.881 33.2316 132.914 34.2229 131.675 34.9664C130.436 35.6851 129.023 36.0445 127.437 36.0445C125.132 36.0445 123.199 35.301 121.638 33.814C120.101 32.3022 119.333 30.431 119.333 28.2005C119.333 25.97 120.101 24.0988 121.638 22.587C123.149 21.0752 125.033 20.3193 127.288 20.3193ZM127.288 23.7395C126.421 23.7395 125.64 23.9997 124.946 24.5202C124.228 25.0158 123.732 25.6974 123.459 26.5648H131.155C130.882 25.6974 130.399 25.0158 129.705 24.5202C129.011 23.9997 128.205 23.7395 127.288 23.7395Z" fill="white"/>
<path fill-rule="evenodd" clip-rule="evenodd" d="M148.627 25.4126C150.263 25.6109 151.539 26.1561 152.456 27.0483C153.398 27.9405 153.869 29.0682 153.869 30.4313C153.869 31.9431 153.299 33.207 152.159 34.2231C151.019 35.2393 149.52 35.7473 147.661 35.7473H137.846V15.2266H146.806C148.64 15.2266 150.127 15.7346 151.267 16.7507C152.407 17.7917 152.977 19.0804 152.977 20.617C152.977 21.8562 152.593 22.8971 151.824 23.7397C151.081 24.5823 150.015 25.14 148.627 25.4126ZM146.397 18.8326H141.899V23.7397H146.397C147.215 23.7397 147.871 23.5043 148.367 23.0334C148.863 22.5625 149.111 21.9677 149.111 21.2489C149.111 20.5302 148.863 19.9478 148.367 19.5017C147.871 19.0556 147.215 18.8326 146.397 18.8326ZM141.899 32.1413H146.954C147.772 32.1413 148.417 31.9183 148.888 31.4722C149.383 31.0013 149.631 30.4065 149.631 29.6877C149.631 28.969 149.383 28.3742 148.888 27.9033C148.417 27.4572 147.772 27.2342 146.954 27.2342H141.899V32.1413Z" fill="white"/>
<path d="M160.635 20.617V24.5576C161.13 22.6988 161.899 21.472 162.94 20.8772C163.956 20.2576 165.083 20.1461 166.322 20.5427V24.2974C164.736 23.7521 163.398 23.7769 162.308 24.3717C161.192 24.9665 160.635 25.9331 160.635 27.2714V35.7474H156.694V20.617H160.635Z" fill="white"/>
<path fill-rule="evenodd" clip-rule="evenodd" d="M169.073 33.814C167.537 32.3022 166.768 30.431 166.768 28.2005C166.768 25.97 167.537 24.0988 169.073 22.587C170.635 21.0752 172.568 20.3193 174.873 20.3193C177.178 20.3193 179.098 21.0752 180.635 22.587C182.196 24.0988 182.977 25.97 182.977 28.2005C182.977 30.431 182.196 32.3022 180.635 33.814C179.098 35.301 177.178 36.0445 174.873 36.0445C172.568 36.0445 170.635 35.301 169.073 33.814ZM170.858 28.2005C170.858 29.4149 171.242 30.4187 172.01 31.2117C172.778 32.0296 173.733 32.4385 174.873 32.4385C176.013 32.4385 176.954 32.0296 177.698 31.2117C178.466 30.4187 178.85 29.4149 178.85 28.2005C178.85 26.9861 178.466 25.97 177.698 25.1521C176.954 24.3591 176.013 23.9625 174.873 23.9625C173.733 23.9625 172.778 24.3715 172.01 25.1893C171.242 25.9824 170.858 26.9861 170.858 28.2005Z" fill="white"/>
<path d="M194.13 27.0113L200.933 35.7475H195.951L191.416 29.9853L189.52 32.0671V35.7475H185.542V14.0371H189.52V26.7882L194.947 20.6171H199.929L194.13 27.0113Z" fill="white"/>
<path fill-rule="evenodd" clip-rule="evenodd" d="M208.442 20.3193C210.995 20.3193 213.04 21.2363 214.576 23.0703C216.113 24.9043 216.683 27.0852 216.286 29.6132H204.576C204.849 30.5302 205.357 31.2613 206.1 31.8065C206.819 32.3765 207.699 32.6615 208.74 32.6615C210.45 32.6615 211.701 31.9552 212.494 30.5426L215.729 31.9924C215.06 33.2316 214.093 34.2229 212.829 34.9664C211.59 35.6851 210.177 36.0445 208.591 36.0445C206.286 36.0445 204.365 35.301 202.829 33.814C201.267 32.3022 200.487 30.431 200.487 28.2005C200.487 25.97 201.255 24.0988 202.792 22.587C204.328 21.0752 206.212 20.3193 208.442 20.3193ZM208.442 23.7395C207.575 23.7395 206.794 23.9997 206.1 24.5202C205.406 25.0158 204.923 25.6974 204.65 26.5648H212.309C212.036 25.6974 211.553 25.0158 210.859 24.5202C210.19 23.9997 209.384 23.7395 208.442 23.7395Z" fill="white"/>
<path d="M222.978 20.617V24.5576C223.448 22.6988 224.204 21.472 225.245 20.8772C226.261 20.2576 227.389 20.1461 228.628 20.5427V24.2974C227.042 23.7521 225.704 23.7769 224.613 24.3717C223.523 24.9665 222.978 25.9331 222.978 27.2714V35.7474H219V20.617H222.978Z" fill="white"/>
<path d="M38.7335 46.3799H3.60917C1.63715 46.3799 0 44.7442 0 42.7367V7.64318C0 5.63571 1.63715 4 3.60917 4H38.7335C40.7427 4 42.3799 5.63571 42.3799 7.64318V42.7367C42.3799 44.7442 40.7427 46.3799 38.7335 46.3799Z" fill="white"/>
<path d="M8.74415 37.8663H12.4649C13.0975 37.8663 13.6184 37.3458 13.6184 36.7138V28.0148C13.6184 27.3456 13.0975 26.8252 12.4649 26.8252H8.74415C8.11161 26.8252 7.5907 27.3456 7.5907 28.0148V36.7138C7.5907 37.3458 8.11161 37.8663 8.74415 37.8663Z" fill="#664DFF"/>
<path d="M33.6366 12.5127H29.9158C29.2461 12.5127 28.7252 13.0331 28.7252 13.6651V25.7471H22.6975V20.84C22.6975 20.1708 22.1766 19.6875 21.544 19.6875H17.786C17.1535 19.6875 16.6326 20.1708 16.6326 20.84V36.7138C16.6326 37.3458 17.1535 37.8663 17.786 37.8663H21.544C22.1766 37.8663 22.6975 37.3458 22.6975 36.7138V31.8067H28.7252V36.7138C28.7252 37.3458 29.2461 37.8663 29.9158 37.8663H33.6366C34.2691 37.8663 34.7901 37.3458 34.7901 36.7138V13.6651C34.7901 13.0331 34.2691 12.5127 33.6366 12.5127Z" fill="#664DFF"/>
</g>
<defs>
<clipPath id="clip0_1350_2554">
<rect width="229" height="42.3799" fill="white" transform="translate(0 4)"/>
</clipPath>
</defs>
</svg>
